<?xml version="1.0" encoding="utf-8"?>
<!-- Generator: Adobe Illustrator 16.0.0, SVG Export Plug-In . SVG Version: 6.00 Build 0)  -->
<!DOCTYPE svg PUBLIC "-//W3C//DTD SVG 1.1//EN" "http://www.w3.org/Graphics/SVG/1.1/DTD/svg11.dtd">
<svg version="1.1" id="レイヤー_1" xmlns="http://www.w3.org/2000/svg" xmlns:xlink="http://www.w3.org/1999/xlink" x="0px"
	 y="0px" width="566.93px" height="141.732px" viewBox="0 0 566.93 141.732" enable-background="new 0 0 566.93 141.732"
	 xml:space="preserve">
<g>
	<polyline fill="none" stroke="#000000" stroke-miterlimit="10" points="4.962,23.311 14.317,23.311 14.317,39.56 23.671,39.56 
		23.671,23.311 107.865,23.311 107.865,39.56 126.575,39.56 126.575,23.311 135.929,23.311 	"/>
	<line fill="none" stroke="#898989" stroke-miterlimit="10" x1="23.671" y1="39.56" x2="107.865" y2="39.56"/>
	<line fill="none" stroke="#898989" stroke-miterlimit="10" x1="98.51" y1="23.311" x2="98.51" y2="39.56"/>
	<polyline fill="none" stroke="#898989" stroke-miterlimit="10" points="117.219,39.56 117.219,23.311 126.575,23.311 	"/>
	<line fill="none" stroke="#898989" stroke-miterlimit="10" x1="121.896" y1="23.311" x2="121.896" y2="39.56"/>
	<line fill="none" stroke="#898989" stroke-miterlimit="10" x1="89.154" y1="23.311" x2="89.154" y2="39.56"/>
	<line fill="none" stroke="#898989" stroke-miterlimit="10" x1="79.8" y1="23.311" x2="79.8" y2="39.56"/>
	<line fill="none" stroke="#898989" stroke-miterlimit="10" x1="70.446" y1="23.311" x2="70.446" y2="39.56"/>
</g>
<g>
	<polyline fill="none" stroke="#000000" stroke-miterlimit="10" points="135.928,23.313 135.928,39.562 145.282,39.562 
		145.282,23.313 229.475,23.313 229.475,39.562 248.186,39.562 248.186,23.313 257.539,23.313 	"/>
	<line fill="none" stroke="#898989" stroke-miterlimit="10" x1="145.282" y1="39.562" x2="229.475" y2="39.562"/>
	<line fill="none" stroke="#898989" stroke-miterlimit="10" x1="220.121" y1="23.313" x2="220.121" y2="39.562"/>
	<polyline fill="none" stroke="#898989" stroke-miterlimit="10" points="238.83,39.562 238.83,23.313 248.186,23.313 	"/>
	<line fill="none" stroke="#898989" stroke-miterlimit="10" x1="243.507" y1="23.313" x2="243.507" y2="39.562"/>
	<line fill="none" stroke="#898989" stroke-miterlimit="10" x1="210.765" y1="23.313" x2="210.765" y2="39.562"/>
	<line fill="none" stroke="#898989" stroke-miterlimit="10" x1="201.412" y1="23.313" x2="201.412" y2="39.562"/>
	<line fill="none" stroke="#898989" stroke-miterlimit="10" x1="192.056" y1="23.313" x2="192.056" y2="39.562"/>
</g>
<g>
	<polyline fill="none" stroke="#000000" stroke-miterlimit="10" points="419.321,23.313 419.321,39.562 428.677,39.562 
		428.677,23.313 512.865,23.313 512.865,39.562 531.578,39.562 531.578,23.313 540.93,23.313 	"/>
	<line fill="none" stroke="#898989" stroke-miterlimit="10" x1="428.677" y1="39.562" x2="512.865" y2="39.562"/>
	<line fill="none" stroke="#898989" stroke-miterlimit="10" x1="503.514" y1="23.313" x2="503.514" y2="39.562"/>
	<polyline fill="none" stroke="#898989" stroke-miterlimit="10" points="522.223,39.562 522.223,23.313 531.578,23.313 	"/>
	<line fill="none" stroke="#898989" stroke-miterlimit="10" x1="526.899" y1="23.313" x2="526.899" y2="39.562"/>
	<line fill="none" stroke="#898989" stroke-miterlimit="10" x1="494.158" y1="23.313" x2="494.158" y2="39.562"/>
	<line fill="none" stroke="#898989" stroke-miterlimit="10" x1="484.805" y1="23.313" x2="484.805" y2="39.562"/>
	<line fill="none" stroke="#898989" stroke-miterlimit="10" x1="475.449" y1="23.313" x2="475.449" y2="39.562"/>
</g>
<g>
	<polyline fill="none" stroke="#000000" stroke-miterlimit="10" points="257.539,23.313 257.539,39.562 266.892,39.562 
		266.892,23.313 351.085,23.313 351.085,39.562 369.796,39.562 369.796,23.313 379.149,23.313 	"/>
	<line fill="none" stroke="#898989" stroke-miterlimit="10" x1="266.892" y1="39.562" x2="351.085" y2="39.562"/>
	<line fill="none" stroke="#898989" stroke-miterlimit="10" x1="341.73" y1="23.313" x2="341.73" y2="39.562"/>
	<polyline fill="none" stroke="#898989" stroke-miterlimit="10" points="360.438,39.562 360.438,23.313 369.796,23.313 	"/>
	<line fill="none" stroke="#898989" stroke-miterlimit="10" x1="365.117" y1="23.313" x2="365.117" y2="39.562"/>
	<line fill="none" stroke="#898989" stroke-miterlimit="10" x1="332.376" y1="23.313" x2="332.376" y2="39.562"/>
	<line fill="none" stroke="#898989" stroke-miterlimit="10" x1="323.021" y1="23.313" x2="323.021" y2="39.562"/>
	<line fill="none" stroke="#898989" stroke-miterlimit="10" x1="313.663" y1="23.313" x2="313.663" y2="39.562"/>
</g>
<line fill="none" stroke="#000000" stroke-miterlimit="10" x1="377.934" y1="23.313" x2="419.321" y2="23.313"/>
<g enable-background="new    ">
	<path d="M60.423,6.454c-0.263,0.717-0.621,2.127-0.753,3.059l-1.075,0.132c0.287-1.088,0.872-2.558,1.183-3.106L60.423,6.454z"/>
	<path d="M68.033,15.785h-1.051l-0.979-2.951h-3.167l-0.956,2.951h-1.016l3.011-9.104h1.147L68.033,15.785z M65.8,12.046l-0.896-2.7
		c-0.191-0.622-0.347-1.195-0.466-1.732h-0.036c-0.12,0.549-0.287,1.123-0.454,1.696l-0.908,2.736H65.8z"/>
	<path d="M68.57,9.644c0.263-0.718,0.633-2.127,0.765-3.059l1.063-0.132c-0.287,1.087-0.86,2.557-1.183,3.106L68.57,9.644z"/>
</g>
<g enable-background="new    ">
	<path d="M180.821,6.454c-0.263,0.717-0.621,2.127-0.753,3.059l-1.075,0.132c0.287-1.088,0.872-2.558,1.183-3.106L180.821,6.454z"/>
	<path d="M187.726,7.529h-2.688v8.256h-0.991V7.529h-2.676V6.693h6.356V7.529z"/>
	<path d="M188.286,9.644c0.263-0.718,0.633-2.127,0.765-3.059l1.063-0.132c-0.287,1.087-0.86,2.557-1.183,3.106L188.286,9.644z"/>
</g>
<g enable-background="new    ">
	<path d="M299.402,11.341c0-3.131,1.219-4.647,2.892-4.647c1.696,0,2.736,1.601,2.736,4.527c0,3.106-1.088,4.708-2.868,4.708
		C300.536,15.928,299.402,14.327,299.402,11.341z M304.026,11.268c0-2.233-0.538-3.775-1.793-3.775
		c-1.063,0-1.815,1.422-1.815,3.775c0,2.354,0.657,3.848,1.78,3.848C303.524,15.116,304.026,13.395,304.026,11.268z"/>
	<path d="M306.522,6.801c0.668-0.107,1.445-0.191,2.293-0.191c3.656,0,4.708,2.162,4.708,4.396c0,1.446-0.382,2.677-1.243,3.572
		c-0.801,0.824-2.127,1.278-3.787,1.278c-0.752,0-1.398-0.023-1.971-0.095V6.801z M307.513,14.997
		c0.298,0.047,0.729,0.06,1.159,0.06c2.461,0,3.811-1.398,3.811-4.003c0-2.365-1.266-3.644-3.632-3.644
		c-0.573,0-1.027,0.06-1.338,0.119V14.997z"/>
</g>
<g>
	<g>
		
			<line fill="none" stroke="#000000" stroke-width="0.75" stroke-miterlimit="10" x1="374.934" y1="53.411" x2="414.794" y2="53.411"/>
		<g>
			<path d="M370.408,53.411c2.129,0.79,4.771,2.14,6.41,3.566l-1.291-3.566l1.291-3.565
				C375.18,51.274,372.537,52.623,370.408,53.411z"/>
		</g>
		<g>
			<path d="M419.321,53.411c-2.131,0.79-4.771,2.14-6.41,3.566l1.289-3.566l-1.289-3.565
				C414.548,51.274,417.19,52.623,419.321,53.411z"/>
		</g>
	</g>
</g>
<g enable-background="new    ">
	<path d="M362.915,70.475c0,0.358,0.063,0.418,0.438,0.418h1.263c0.332,0,0.386-0.191,0.421-1.505
		c0.135,0.131,0.377,0.263,0.547,0.323c-0.081,1.565-0.251,1.947-0.923,1.947h-1.37c-0.752,0-0.968-0.228-0.968-1.171V66.58h2.258
		v-2.665h-2.571v-0.752h3.162v4.528h-0.591v-0.37h-1.666V70.475z M370.269,65.158h-0.762c-0.269,1.995-0.681,3.632-1.316,4.946
		c0.556,1.087,1.263,1.935,2.149,2.449c-0.144,0.156-0.331,0.467-0.43,0.693c-0.869-0.549-1.55-1.386-2.104-2.437
		c-0.618,1.039-1.434,1.839-2.481,2.449c-0.071-0.191-0.232-0.514-0.341-0.681c1.066-0.573,1.882-1.398,2.49-2.485
		c-0.447-1.052-0.779-2.27-1.03-3.632c-0.215,0.585-0.456,1.111-0.707,1.542c-0.116-0.132-0.35-0.359-0.493-0.466
		c0.735-1.207,1.299-3.297,1.622-5.4l0.761,0.227c-0.018,0.096-0.08,0.131-0.197,0.131c-0.107,0.646-0.232,1.279-0.376,1.9h3.216
		V65.158z M366.856,65.158l-0.044,0.144c0.224,1.505,0.563,2.867,1.029,4.038c0.502-1.147,0.833-2.533,1.048-4.182H366.856z"/>
	<path d="M373.656,62.53c-0.018,0.06-0.09,0.107-0.197,0.083c-0.52,0.872-1.451,2.007-2.248,2.76
		c-0.071-0.179-0.242-0.49-0.35-0.645c0.753-0.657,1.64-1.72,2.097-2.593L373.656,62.53z M372.286,73.235v-5.257
		c-0.341,0.501-0.681,0.968-1.021,1.362c-0.08-0.155-0.269-0.478-0.385-0.621c0.851-0.944,1.836-2.509,2.454-4.002l0.698,0.382
		c-0.026,0.071-0.099,0.119-0.206,0.095c-0.269,0.598-0.582,1.207-0.922,1.792l0.161,0.072c-0.019,0.071-0.072,0.131-0.18,0.155
		v6.021H372.286z M379.21,66.365v0.777h-1.425v5.054c0,1.003-0.286,1.027-2.096,1.027c-0.027-0.228-0.107-0.55-0.197-0.789
		c0.395,0.012,0.762,0.023,1.039,0.023c0.582,0,0.645,0,0.645-0.273v-5.042h-3.116v-0.777H379.21z M378.869,62.888v0.765h-4.47
		v-0.765H378.869z"/>
	<path d="M384.541,64.31c-0.036,0.107-0.107,0.191-0.224,0.191c-0.323,3.716-1.254,6.954-2.741,6.954
		c-0.752,0-1.433-1.003-1.433-2.891c0-2.868,1.675-5.269,4.03-5.269c2.589,0,3.708,2.187,3.708,4.516
		c0,2.844-1.236,4.217-3.403,4.887c-0.081-0.191-0.233-0.514-0.377-0.729c2.061-0.525,3.117-1.864,3.117-4.122
		c0-1.971-0.949-3.763-3.045-3.763c-0.09,0-0.188,0.012-0.269,0.024L384.541,64.31z M383.681,64.155
		c-1.809,0.298-2.929,2.294-2.929,4.385c0,1.278,0.412,2.079,0.842,2.079C382.678,70.618,383.457,67.428,383.681,64.155z"/>
	<path d="M390.787,66.915v3.907c0.698,1.421,1.979,1.421,3.592,1.421c0.967,0,2.104-0.035,2.804-0.096
		c-0.072,0.191-0.18,0.574-0.197,0.813c-0.618,0.036-1.604,0.061-2.49,0.061c-1.845,0-3.072,0-3.977-1.482
		c-0.439,0.526-0.914,1.064-1.299,1.471c0.009,0.107-0.019,0.154-0.081,0.19l-0.35-0.884c0.431-0.383,0.959-0.932,1.416-1.458
		v-3.178h-1.317v-0.765H390.787z M389.452,62.434c0.601,0.514,1.299,1.302,1.604,1.888l-0.475,0.538
		c-0.296-0.597-0.977-1.41-1.576-1.947L389.452,62.434z M397.048,67.739h-2.383c0.376,1.589,1.155,2.652,2.4,3.143
		c-0.134,0.155-0.305,0.454-0.385,0.669c-1.218-0.562-1.997-1.649-2.445-3.274c-0.26,1.123-0.904,2.306-2.418,3.226
		c-0.081-0.179-0.27-0.454-0.403-0.598c1.621-0.896,2.149-2.091,2.319-3.166h-2.4v-0.741h2.464c0.009-0.143,0.009-0.287,0.009-0.418
		v-1.374h-2.177v-0.741h3.564l-0.456-0.275c0.304-0.55,0.689-1.446,0.896-2.055l0.717,0.358c-0.027,0.084-0.09,0.108-0.197,0.12
		c-0.233,0.55-0.618,1.338-0.932,1.852h1.559v0.741h-2.374v1.374c0,0.131,0,0.275-0.009,0.418h2.651V67.739z M392.821,64.466
		c-0.116-0.55-0.457-1.398-0.815-2.007l0.511-0.287c0.367,0.597,0.726,1.41,0.842,1.959L392.821,64.466z"/>
	<path d="M398.993,66.353c-0.34,0.752-0.716,1.422-1.093,1.995c-0.063-0.191-0.215-0.562-0.313-0.752
		c0.86-1.243,1.72-3.31,2.239-5.376l0.717,0.322c-0.036,0.084-0.099,0.12-0.206,0.108c-0.232,0.836-0.511,1.672-0.824,2.473
		l0.242,0.083c-0.018,0.072-0.063,0.131-0.179,0.143v7.921h-0.583V66.353z M400.194,64.394h5.912v0.681h-5.912V64.394z
		 M400.857,73.235V69.4h4.631v3.799h-0.609v-0.562h-3.439v0.598H400.857z M405.406,66.067v0.669h-4.46v-0.669H405.406z
		 M400.947,68.408v-0.669h4.451v0.669H400.947z M405.245,62.721v0.669h-4.2v-0.669H405.245z M404.878,70.069h-3.439v1.899h3.439
		V70.069z"/>
	<path d="M408.652,66.915v3.931c0.698,1.422,1.979,1.422,3.654,1.422c0.977,0,2.104-0.024,2.804-0.083
		c-0.072,0.179-0.171,0.549-0.197,0.788c-0.609,0.023-1.576,0.048-2.463,0.048c-1.953,0-3.171,0-4.058-1.482
		c-0.439,0.538-0.887,1.064-1.272,1.471c0.01,0.096-0.018,0.154-0.08,0.19l-0.341-0.849c0.412-0.394,0.923-0.907,1.371-1.445v-3.226
		h-1.281v-0.765H408.652z M407.362,62.434c0.573,0.562,1.228,1.398,1.505,2.007l-0.483,0.514c-0.278-0.621-0.905-1.481-1.479-2.079
		L407.362,62.434z M410.156,64.967v0.681c0,1.637-0.107,3.979-0.833,5.568c-0.099-0.132-0.35-0.323-0.484-0.395
		c0.69-1.517,0.762-3.632,0.762-5.185v-3.035h5.088v2.365H410.156z M414.76,67.082h-1.962v0.884h1.729v0.609h-1.729v0.932h2.123
		v0.621h-2.123v1.554h-0.582v-1.554h-2.123v-0.621h2.123v-0.932h-1.666v-0.609h1.666v-0.884h-1.89v-0.621h1.138
		c-0.099-0.358-0.305-0.813-0.52-1.159l0.457-0.239c0.241,0.382,0.483,0.908,0.573,1.267l-0.225,0.131h1.415l-0.143-0.083
		c0.196-0.371,0.438-0.968,0.563-1.362l0.646,0.311c-0.027,0.071-0.081,0.107-0.18,0.107c-0.134,0.287-0.34,0.705-0.528,1.027h1.236
		V67.082z M414.106,63.235h-3.949v1.111h3.949V63.235z"/>
	<path d="M418.3,66.377l0.35,0.155c-0.009,0.06-0.027,0.12-0.063,0.143c-0.162,1.661-0.448,3.011-0.86,4.098
		c0.923,1.112,2.203,1.362,3.727,1.374c0.349,0,2.194,0,2.633-0.012c-0.099,0.191-0.206,0.55-0.242,0.777h-2.4
		c-1.666,0-3.019-0.287-4.003-1.47c-0.377,0.788-0.824,1.397-1.344,1.852c-0.09-0.179-0.322-0.466-0.448-0.573
		c0.537-0.442,1.003-1.063,1.38-1.864c-0.377-0.633-0.69-1.434-0.932-2.473l0.475-0.263c0.188,0.836,0.43,1.505,0.734,2.043
		c0.305-0.836,0.52-1.84,0.663-3.035h-1.335l-0.232,0.538l-0.547-0.215c0.52-1.171,1.155-2.712,1.586-3.799h-1.738v-0.729h2.105
		c0.063-0.036,0.089-0.036,0.116-0.036c0.08,0.036,0.161,0.072,0.394,0.227c-0.018,0.048-0.054,0.107-0.08,0.143
		c-0.305,0.777-0.797,1.983-1.29,3.143h1.236L418.3,66.377z M423.979,69.89v0.752h-5.32V69.89h0.771v-4.588l0.743,0.071
		c-0.009,0.072-0.054,0.132-0.17,0.156v4.361h1.2v-6.32c-0.708,0.155-1.46,0.298-2.159,0.394c-0.026-0.179-0.107-0.478-0.179-0.657
		c1.567-0.239,3.395-0.657,4.371-1.171l0.52,0.669c-0.027,0.036-0.045,0.036-0.188,0.036c-0.43,0.191-0.985,0.382-1.604,0.538
		c-0.009,0.072-0.063,0.12-0.17,0.144v2.64h2.033v0.717h-2.033v3.011H423.979z"/>
</g>
<g enable-background="new    ">
	<path d="M386.856,86.82h-0.943v-2.509h-3.907v-0.634l3.823-5.807h1.027v5.676h1.219v0.765h-1.219V86.82z M383.009,83.547h2.903
		v-3.179c0-0.489,0.023-0.968,0.048-1.434h-0.048c-0.275,0.55-0.49,0.933-0.717,1.339l-2.187,3.249V83.547z"/>
	<path d="M398.194,86.82h-0.98v-3.764c0-1.267-0.453-2.079-1.434-2.079c-0.801,0-1.529,0.753-1.529,1.745v4.098h-0.979v-4.015
		c0-1.039-0.442-1.828-1.362-1.828c-0.848,0-1.601,0.837-1.601,1.853v3.99h-0.979v-4.839c0-0.669-0.023-1.146-0.048-1.685h0.872
		l0.06,1.052h0.036c0.358-0.634,0.955-1.195,1.982-1.195c0.85,0,1.506,0.526,1.781,1.303h0.023c0.43-0.776,1.088-1.303,2.091-1.303
		c0.801,0,2.067,0.514,2.067,2.748V86.82z"/>
	<path d="M403.161,81.301c-0.239-0.155-0.681-0.383-1.267-0.383c-0.717,0-1.1,0.442-1.1,0.968c0,0.562,0.371,0.824,1.207,1.183
		c1.052,0.431,1.661,0.98,1.661,1.96c0,1.159-0.884,1.924-2.306,1.924c-0.646,0-1.268-0.18-1.709-0.442l0.275-0.765
		c0.346,0.203,0.908,0.442,1.469,0.442c0.873,0,1.303-0.467,1.303-1.052c0-0.609-0.347-0.944-1.207-1.29
		c-1.1-0.442-1.66-1.052-1.66-1.84c0-1.016,0.813-1.853,2.127-1.853c0.621,0,1.146,0.18,1.492,0.395L403.161,81.301z"/>
</g>
<g>
	<g>
		
			<line fill="none" stroke="#000000" stroke-width="0.75" stroke-miterlimit="10" x1="21.272" y1="53.409" x2="365.882" y2="53.409"/>
		<g>
			<path d="M16.746,53.409c2.13,0.79,4.771,2.14,6.411,3.566l-1.291-3.566l1.291-3.565C21.518,51.272,18.875,52.621,16.746,53.409z"
				/>
		</g>
		<g>
			<path d="M370.408,53.409c-2.131,0.79-4.771,2.14-6.41,3.566l1.289-3.566l-1.289-3.565
				C365.635,51.272,368.278,52.621,370.408,53.409z"/>
		</g>
	</g>
</g>
<g enable-background="new    ">
	<path d="M96.016,72.22v-8.017h-0.024l-1.47,0.848l-0.239-0.74l1.852-1.04h0.848v8.949H96.016z"/>
	<path d="M101.487,66.76c0.406-0.753,1.147-1.207,2.163-1.207c1.542,0,2.628,1.326,2.628,3.334c0,2.365-1.445,3.477-2.795,3.477
		c-0.944,0-1.637-0.383-2.103-1.219h-0.036l-0.06,1.075h-0.86c0.024-0.43,0.047-1.087,0.047-1.613v-7.945h0.992v4.099H101.487z
		 M101.463,69.676c0,0.968,0.729,1.876,1.828,1.876c1.267,0,1.971-1.087,1.971-2.629c0-1.361-0.669-2.557-1.936-2.557
		c-1.135,0-1.864,1.063-1.864,2.02V69.676z"/>
	<path d="M112.68,65.709l-1.732,4.612c-0.776,2.114-1.326,3.333-2.139,4.098c-0.549,0.502-1.087,0.705-1.326,0.765l-0.275-0.836
		c1.518-0.562,2.103-2.211,2.103-2.342c0-0.06-0.024-0.155-0.072-0.275l-2.306-6.021h1.087l1.422,3.955
		c0.167,0.454,0.311,0.968,0.418,1.362h0.036c0.107-0.395,0.263-0.885,0.418-1.387l1.314-3.931H112.68z"/>
	<path d="M114.041,64.526l0.979-0.335v1.518h1.685v0.777h-1.685v3.763c0,0.825,0.251,1.278,0.884,1.278
		c0.299,0,0.502-0.035,0.669-0.095l0.06,0.765c-0.215,0.095-0.549,0.155-0.967,0.155c-1.577,0-1.625-1.435-1.625-2.127v-3.739
		h-1.004v-0.777h1.004V64.526z"/>
	<path d="M122.618,71.946c-0.37,0.179-1.051,0.406-2.043,0.406c-1.899,0-3.035-1.339-3.035-3.286c0-2.043,1.147-3.513,2.903-3.513
		c2.007,0,2.521,1.84,2.521,2.976c0,0.227-0.012,0.394-0.024,0.549h-4.433c0.012,1.805,1.04,2.485,2.21,2.485
		c0.813,0,1.302-0.167,1.708-0.334L122.618,71.946z M121.986,68.338c0.012-0.885-0.359-2.031-1.637-2.031
		c-1.195,0-1.72,1.135-1.816,2.031H121.986z"/>
	<path d="M130.969,67.633h-6.965v-0.717h6.965V67.633z M130.969,70.249h-6.965v-0.717h6.965V70.249z"/>
	<path d="M134.623,72.22v-8.017h-0.024l-1.47,0.848l-0.239-0.74l1.852-1.04h0.848v8.949H134.623z"/>
	<path d="M138.577,67.776c0-3.131,1.219-4.647,2.891-4.647c1.697,0,2.736,1.601,2.736,4.527c0,3.106-1.087,4.708-2.868,4.708
		C139.712,72.364,138.577,70.762,138.577,67.776z M143.2,67.704c0-2.233-0.538-3.775-1.792-3.775c-1.063,0-1.816,1.422-1.816,3.775
		c0,2.354,0.657,3.848,1.78,3.848C142.698,71.552,143.2,69.831,143.2,67.704z"/>
	<path d="M146.676,66.76c0.406-0.753,1.147-1.207,2.163-1.207c1.542,0,2.628,1.326,2.628,3.334c0,2.365-1.445,3.477-2.795,3.477
		c-0.944,0-1.637-0.383-2.103-1.219h-0.036l-0.06,1.075h-0.86c0.024-0.43,0.047-1.087,0.047-1.613v-7.945h0.992v4.099H146.676z
		 M146.652,69.676c0,0.968,0.729,1.876,1.828,1.876c1.267,0,1.971-1.087,1.971-2.629c0-1.361-0.669-2.557-1.936-2.557
		c-1.135,0-1.864,1.063-1.864,2.02V69.676z"/>
	<path d="M153.449,64.562c-0.382,0-0.646-0.299-0.646-0.682c0-0.37,0.275-0.669,0.657-0.669c0.395,0,0.645,0.299,0.645,0.669
		C154.106,64.3,153.832,64.562,153.449,64.562z M153.951,72.22h-0.992v-6.512h0.992V72.22z"/>
	<path d="M156.184,64.526l0.979-0.335v1.518h1.685v0.777h-1.685v3.763c0,0.825,0.251,1.278,0.884,1.278
		c0.299,0,0.502-0.035,0.669-0.095l0.06,0.765c-0.215,0.095-0.549,0.155-0.968,0.155c-1.577,0-1.625-1.435-1.625-2.127v-3.739
		h-1.004v-0.777h1.004V64.526z"/>
	<path d="M163.197,66.701c-0.239-0.155-0.681-0.383-1.267-0.383c-0.717,0-1.099,0.442-1.099,0.968c0,0.562,0.371,0.824,1.207,1.183
		c1.051,0.431,1.661,0.98,1.661,1.96c0,1.159-0.884,1.924-2.306,1.924c-0.645,0-1.267-0.18-1.708-0.442l0.275-0.765
		c0.347,0.203,0.908,0.442,1.47,0.442c0.872,0,1.302-0.467,1.302-1.052c0-0.609-0.347-0.944-1.207-1.29
		c-1.099-0.442-1.661-1.052-1.661-1.84c0-1.016,0.813-1.853,2.127-1.853c0.621,0,1.147,0.18,1.493,0.395L163.197,66.701z"/>
	<path d="M166.433,70.655c-0.298,1.1-0.884,2.604-1.207,3.166l-0.729,0.084c0.275-0.729,0.633-2.175,0.777-3.118L166.433,70.655z"/>
</g>
<g enable-background="new    ">
	<path d="M175.388,71.587c0.358-0.012,1.316-0.059,1.881-0.179c0.009,0.263,0.018,0.598,0.036,0.86
		c-0.591,0.084-1.487,0.131-1.854,0.131h-2.239c-1.353,0-2.006-0.788-2.006-2.497v-6.965l0.878,0.072
		c-0.018,0.119-0.081,0.191-0.242,0.215v3.895c1.37-0.574,3.278-1.529,4.442-2.366l0.457,0.824
		c-0.027,0.024-0.072,0.036-0.107,0.036c-0.045,0-0.081-0.012-0.125-0.036c-1.084,0.729-3.126,1.732-4.667,2.354v1.995
		c0,1.207,0.439,1.66,1.361,1.66H175.388z M176.23,62.591c0.412,0.49,0.86,1.23,1.111,1.756l-0.34,0.347
		c-0.251-0.526-0.717-1.302-1.093-1.756L176.23,62.591z M177.332,61.874c0.403,0.49,0.86,1.219,1.111,1.744l-0.34,0.347
		c-0.251-0.526-0.726-1.291-1.093-1.744L177.332,61.874z"/>
	<path d="M179.735,65.673c0.269,0.729,0.564,1.876,0.671,2.569l-0.501,0.179c-0.107-0.693-0.385-1.78-0.654-2.545L179.735,65.673z
		 M185.082,65.757c-0.018,0.108-0.107,0.132-0.188,0.12c-0.699,3.489-2.016,5.627-4.183,6.798c-0.072-0.144-0.233-0.418-0.349-0.55
		c2.141-1.123,3.368-3.083,4.021-6.643L185.082,65.757z M181.911,65.1c0.188,0.8,0.358,1.947,0.421,2.712l-0.528,0.131
		c-0.054-0.765-0.224-1.864-0.421-2.688L181.911,65.1z"/>
	<path d="M191.613,68.827c-0.914-0.657-2.167-1.434-3.144-1.948v5.975h-0.672V62.471l0.905,0.071
		c-0.009,0.131-0.081,0.215-0.233,0.251v3.489l0.134-0.251c1.048,0.514,2.437,1.338,3.368,1.995L191.613,68.827z"/>
	<path d="M193.523,72.759h-0.6l2.839-9.786h0.618L193.523,72.759z"/>
</g>
<g enable-background="new    ">
	<path d="M201.054,67.155c0.277,0.347,1.137,1.577,1.316,1.876l-0.358,0.633c-0.161-0.371-0.618-1.147-0.958-1.708v5.281h-0.591
		v-5.604c-0.385,1.314-0.905,2.641-1.397,3.429c-0.071-0.215-0.215-0.538-0.313-0.717c0.573-0.872,1.227-2.485,1.594-3.918h-1.469
		v-0.765h1.585v-2.079c-0.466,0.167-0.958,0.323-1.424,0.442c-0.027-0.155-0.116-0.418-0.188-0.585
		c1.102-0.322,2.374-0.812,3.054-1.302l0.538,0.598c-0.036,0.048-0.045,0.048-0.17,0.048c-0.322,0.203-0.752,0.394-1.218,0.585
		v2.294h1.299v0.765h-1.299V67.155z M206.741,68.314c-0.027,0.083-0.081,0.119-0.179,0.131c-0.582,2.485-1.863,4.015-4.219,4.767
		c-0.054-0.227-0.206-0.525-0.34-0.717c2.23-0.609,3.475-1.995,4.013-4.408L206.741,68.314z M203.732,64.406
		c-0.018,0.084-0.081,0.132-0.188,0.12c-0.224,1.35-0.609,2.784-1.075,3.656c-0.107-0.12-0.322-0.299-0.457-0.395
		c0.439-0.824,0.797-2.234,1.012-3.62L203.732,64.406z M205.147,62.197c-0.009,0.083-0.054,0.143-0.179,0.167v6.201
		c0,0.86-0.269,0.968-1.505,0.968c-0.027-0.215-0.125-0.562-0.215-0.765c0.224,0,0.439,0.012,0.6,0.012c0.466,0,0.52,0,0.52-0.227
		v-6.416L205.147,62.197z M206.096,64.108c0.511,1.099,0.95,2.557,1.102,3.524l-0.546,0.263c-0.143-0.979-0.582-2.461-1.065-3.548
		L206.096,64.108z"/>
</g>
<g enable-background="new    ">
	<path d="M217.185,67.633h-6.965v-0.717h6.965V67.633z M217.185,70.249h-6.965v-0.717h6.965V70.249z"/>
	<path d="M219.239,67.477c0.406-0.598,1.135-1.1,2.091-1.1c1.518,0,2.533,1.136,2.533,2.855c0,1.638-1.003,3.131-2.748,3.131
		c-1.745,0-2.916-1.446-2.916-3.764c0-2.401,1.123-4.91,4.026-5.389c0.334-0.048,0.633-0.083,0.836-0.083l0.012,0.824
		c-2.485,0-3.668,1.804-3.871,3.524H219.239z M222.859,69.305c0-1.374-0.741-2.175-1.816-2.175c-1.051,0-1.852,1.027-1.852,1.696
		c0.012,1.638,0.705,2.761,1.948,2.761C222.177,71.588,222.859,70.655,222.859,69.305z"/>
	<path d="M224.793,67.776c0-3.131,1.219-4.647,2.891-4.647c1.697,0,2.736,1.601,2.736,4.527c0,3.106-1.087,4.708-2.868,4.708
		C225.928,72.364,224.793,70.762,224.793,67.776z M229.417,67.704c0-2.233-0.538-3.775-1.792-3.775
		c-1.063,0-1.816,1.422-1.816,3.775c0,2.354,0.657,3.848,1.78,3.848C228.915,71.552,229.417,69.831,229.417,67.704z"/>
	<path d="M231.375,67.776c0-3.131,1.219-4.647,2.891-4.647c1.697,0,2.736,1.601,2.736,4.527c0,3.106-1.087,4.708-2.868,4.708
		C232.51,72.364,231.375,70.762,231.375,67.776z M235.999,67.704c0-2.233-0.538-3.775-1.792-3.775c-1.063,0-1.816,1.422-1.816,3.775
		c0,2.354,0.657,3.848,1.78,3.848C235.497,71.552,235.999,69.831,235.999,67.704z"/>
	<path d="M239.474,66.76c0.406-0.753,1.147-1.207,2.163-1.207c1.542,0,2.628,1.326,2.628,3.334c0,2.365-1.445,3.477-2.795,3.477
		c-0.944,0-1.637-0.383-2.103-1.219h-0.036l-0.06,1.075h-0.86c0.023-0.43,0.047-1.087,0.047-1.613v-7.945h0.992v4.099H239.474z
		 M239.45,69.676c0,0.968,0.729,1.876,1.828,1.876c1.267,0,1.971-1.087,1.971-2.629c0-1.361-0.669-2.557-1.936-2.557
		c-1.135,0-1.864,1.063-1.864,2.02V69.676z"/>
	<path d="M246.689,66.808c0.454-0.801,1.207-1.255,2.222-1.255c1.542,0,2.652,1.326,2.652,3.321c0,2.39-1.398,3.489-2.832,3.489
		c-0.86,0-1.577-0.395-1.959-1.04h-0.024v3.561h-0.992V67.8c0-0.848-0.023-1.505-0.047-2.103h0.896l0.06,1.111H246.689z
		 M246.749,69.628c0,1.267,0.944,1.936,1.828,1.936c1.278,0,1.983-1.099,1.983-2.652c0-1.35-0.681-2.545-1.948-2.545
		c-1.111,0-1.864,1.075-1.864,2.02V69.628z"/>
	<path d="M256.103,66.701c-0.239-0.155-0.681-0.383-1.267-0.383c-0.717,0-1.099,0.442-1.099,0.968c0,0.562,0.371,0.824,1.207,1.183
		c1.052,0.431,1.661,0.98,1.661,1.96c0,1.159-0.884,1.924-2.306,1.924c-0.645,0-1.266-0.18-1.708-0.442l0.275-0.765
		c0.347,0.203,0.908,0.442,1.47,0.442c0.872,0,1.302-0.467,1.302-1.052c0-0.609-0.347-0.944-1.207-1.29
		c-1.099-0.442-1.661-1.052-1.661-1.84c0-1.016,0.813-1.853,2.127-1.853c0.621,0,1.147,0.18,1.493,0.395L256.103,66.701z"/>
</g>
<g enable-background="new    ">
	<path d="M83.811,86.821v-8.017h-0.024l-1.47,0.848l-0.239-0.74l1.852-1.04h0.848v8.949H83.811z"/>
	<path d="M87.765,82.377c0-3.131,1.219-4.647,2.891-4.647c1.697,0,2.736,1.601,2.736,4.527c0,3.106-1.087,4.708-2.868,4.708
		C88.9,86.965,87.765,85.363,87.765,82.377z M92.388,82.304c0-2.233-0.538-3.775-1.792-3.775c-1.063,0-1.816,1.422-1.816,3.775
		c0,2.354,0.657,3.848,1.78,3.848C91.886,86.152,92.388,84.431,92.388,82.304z"/>
	<path d="M95.864,81.361c0.406-0.753,1.147-1.207,2.163-1.207c1.542,0,2.628,1.326,2.628,3.334c0,2.365-1.445,3.477-2.795,3.477
		c-0.944,0-1.637-0.383-2.103-1.219h-0.036l-0.06,1.075h-0.86c0.024-0.43,0.047-1.087,0.047-1.613v-7.945h0.992v4.099H95.864z
		 M95.84,84.276c0,0.968,0.729,1.876,1.828,1.876c1.267,0,1.971-1.087,1.971-2.629c0-1.361-0.669-2.557-1.936-2.557
		c-1.135,0-1.864,1.063-1.864,2.02V84.276z"/>
	<path d="M102.637,79.163c-0.382,0-0.646-0.299-0.646-0.682c0-0.37,0.275-0.669,0.657-0.669c0.395,0,0.645,0.299,0.645,0.669
		C103.294,78.9,103.019,79.163,102.637,79.163z M103.138,86.821h-0.992v-6.512h0.992V86.821z"/>
	<path d="M105.372,79.127l0.979-0.335v1.518h1.685v0.777h-1.685v3.763c0,0.825,0.251,1.278,0.884,1.278
		c0.299,0,0.502-0.035,0.669-0.095l0.06,0.765c-0.215,0.095-0.549,0.155-0.968,0.155c-1.577,0-1.625-1.435-1.625-2.127v-3.739
		h-1.004v-0.777h1.004V79.127z"/>
	<path d="M112.385,81.302c-0.239-0.155-0.681-0.383-1.267-0.383c-0.717,0-1.099,0.442-1.099,0.968c0,0.562,0.371,0.824,1.207,1.183
		c1.052,0.431,1.661,0.98,1.661,1.96c0,1.159-0.884,1.924-2.306,1.924c-0.645,0-1.266-0.18-1.708-0.442l0.275-0.765
		c0.347,0.203,0.908,0.442,1.47,0.442c0.872,0,1.302-0.467,1.302-1.052c0-0.609-0.347-0.944-1.207-1.29
		c-1.099-0.442-1.661-1.052-1.661-1.84c0-1.016,0.813-1.853,2.127-1.853c0.621,0,1.147,0.18,1.493,0.395L112.385,81.302z"/>
	<path d="M126.015,85.638l-0.526,0.537l-3.31-3.31l-3.297,3.31l-0.526-0.537l3.298-3.298l-3.298-3.298l0.526-0.537l3.297,3.31
		l3.31-3.31l0.526,0.525l-3.298,3.31L126.015,85.638z"/>
	<path d="M134.042,86.821v-8.017h-0.024l-1.47,0.848l-0.239-0.74l1.852-1.04h0.848v8.949H134.042z"/>
	<path d="M137.995,82.377c0-3.131,1.219-4.647,2.891-4.647c1.697,0,2.736,1.601,2.736,4.527c0,3.106-1.087,4.708-2.868,4.708
		C139.13,86.965,137.995,85.363,137.995,82.377z M142.619,82.304c0-2.233-0.538-3.775-1.792-3.775c-1.063,0-1.816,1.422-1.816,3.775
		c0,2.354,0.657,3.848,1.78,3.848C142.117,86.152,142.619,84.431,142.619,82.304z"/>
	<path d="M144.577,82.377c0-3.131,1.219-4.647,2.891-4.647c1.697,0,2.736,1.601,2.736,4.527c0,3.106-1.087,4.708-2.868,4.708
		C145.712,86.965,144.577,85.363,144.577,82.377z M149.2,82.304c0-2.233-0.538-3.775-1.792-3.775c-1.063,0-1.816,1.422-1.816,3.775
		c0,2.354,0.657,3.848,1.78,3.848C148.698,86.152,149.2,84.431,149.2,82.304z"/>
	<path d="M151.159,82.377c0-3.131,1.219-4.647,2.891-4.647c1.697,0,2.736,1.601,2.736,4.527c0,3.106-1.087,4.708-2.868,4.708
		C152.294,86.965,151.159,85.363,151.159,82.377z M155.782,82.304c0-2.233-0.538-3.775-1.792-3.775
		c-1.063,0-1.816,1.422-1.816,3.775c0,2.354,0.657,3.848,1.78,3.848C155.281,86.152,155.782,84.431,155.782,82.304z"/>
	<path d="M167.108,86.821h-0.979v-3.764c0-1.267-0.454-2.079-1.434-2.079c-0.801,0-1.529,0.753-1.529,1.745v4.098h-0.98v-4.015
		c0-1.039-0.442-1.828-1.362-1.828c-0.849,0-1.601,0.837-1.601,1.853v3.99h-0.98v-4.839c0-0.669-0.024-1.146-0.047-1.685h0.872
		l0.06,1.052h0.036c0.358-0.634,0.956-1.195,1.983-1.195c0.849,0,1.505,0.526,1.78,1.303h0.024c0.43-0.776,1.087-1.303,2.091-1.303
		c0.801,0,2.067,0.514,2.067,2.748V86.821z"/>
	<path d="M172.076,81.302c-0.239-0.155-0.681-0.383-1.267-0.383c-0.717,0-1.099,0.442-1.099,0.968c0,0.562,0.371,0.824,1.207,1.183
		c1.051,0.431,1.661,0.98,1.661,1.96c0,1.159-0.884,1.924-2.306,1.924c-0.645,0-1.267-0.18-1.708-0.442l0.275-0.765
		c0.347,0.203,0.908,0.442,1.47,0.442c0.872,0,1.302-0.467,1.302-1.052c0-0.609-0.347-0.944-1.207-1.29
		c-1.099-0.442-1.661-1.052-1.661-1.84c0-1.016,0.813-1.853,2.127-1.853c0.621,0,1.147,0.18,1.493,0.395L172.076,81.302z"/>
	<path d="M176.674,87.359h-0.8l3.788-9.785h0.824L176.674,87.359z"/>
	<path d="M184.738,82.078c0.406-0.598,1.135-1.1,2.091-1.1c1.518,0,2.533,1.136,2.533,2.855c0,1.638-1.003,3.131-2.748,3.131
		c-1.745,0-2.916-1.446-2.916-3.764c0-2.401,1.123-4.91,4.026-5.389c0.334-0.048,0.633-0.083,0.836-0.083l0.012,0.824
		c-2.485,0-3.668,1.804-3.871,3.524H184.738z M188.358,83.906c0-1.374-0.741-2.175-1.816-2.175c-1.051,0-1.852,1.027-1.852,1.696
		c0.012,1.638,0.705,2.761,1.948,2.761C187.677,86.188,188.358,85.256,188.358,83.906z"/>
	<path d="M190.292,82.377c0-3.131,1.219-4.647,2.891-4.647c1.697,0,2.736,1.601,2.736,4.527c0,3.106-1.087,4.708-2.868,4.708
		C191.427,86.965,190.292,85.363,190.292,82.377z M194.916,82.304c0-2.233-0.538-3.775-1.792-3.775
		c-1.063,0-1.816,1.422-1.816,3.775c0,2.354,0.657,3.848,1.78,3.848C194.414,86.152,194.916,84.431,194.916,82.304z"/>
	<path d="M196.874,82.377c0-3.131,1.219-4.647,2.891-4.647c1.697,0,2.736,1.601,2.736,4.527c0,3.106-1.087,4.708-2.868,4.708
		C198.009,86.965,196.874,85.363,196.874,82.377z M201.498,82.304c0-2.233-0.538-3.775-1.792-3.775
		c-1.063,0-1.816,1.422-1.816,3.775c0,2.354,0.657,3.848,1.78,3.848C200.996,86.152,201.498,84.431,201.498,82.304z"/>
	<path d="M204.973,81.361c0.406-0.753,1.147-1.207,2.163-1.207c1.542,0,2.628,1.326,2.628,3.334c0,2.365-1.445,3.477-2.795,3.477
		c-0.944,0-1.637-0.383-2.103-1.219h-0.036l-0.06,1.075h-0.86c0.024-0.43,0.047-1.087,0.047-1.613v-7.945h0.992v4.099H204.973z
		 M204.949,84.276c0,0.968,0.729,1.876,1.828,1.876c1.267,0,1.971-1.087,1.971-2.629c0-1.361-0.669-2.557-1.936-2.557
		c-1.135,0-1.864,1.063-1.864,2.02V84.276z"/>
	<path d="M212.188,81.409c0.454-0.801,1.207-1.255,2.222-1.255c1.542,0,2.652,1.326,2.652,3.321c0,2.39-1.398,3.489-2.832,3.489
		c-0.86,0-1.577-0.395-1.959-1.04h-0.024v3.561h-0.992V82.4c0-0.848-0.024-1.505-0.047-2.103h0.896l0.06,1.111H212.188z
		 M212.248,84.228c0,1.267,0.944,1.936,1.828,1.936c1.278,0,1.983-1.099,1.983-2.652c0-1.35-0.681-2.545-1.948-2.545
		c-1.111,0-1.864,1.075-1.864,2.02V84.228z"/>
	<path d="M221.602,81.302c-0.239-0.155-0.681-0.383-1.267-0.383c-0.717,0-1.099,0.442-1.099,0.968c0,0.562,0.371,0.824,1.207,1.183
		c1.051,0.431,1.661,0.98,1.661,1.96c0,1.159-0.884,1.924-2.306,1.924c-0.645,0-1.267-0.18-1.708-0.442l0.275-0.765
		c0.347,0.203,0.908,0.442,1.47,0.442c0.872,0,1.302-0.467,1.302-1.052c0-0.609-0.347-0.944-1.207-1.29
		c-1.099-0.442-1.661-1.052-1.661-1.84c0-1.016,0.813-1.853,2.127-1.853c0.621,0,1.147,0.18,1.493,0.395L221.602,81.302z"/>
	<path d="M235.233,85.638l-0.526,0.537l-3.31-3.31l-3.297,3.31l-0.526-0.537l3.298-3.298l-3.298-3.298l0.526-0.537l3.297,3.31
		l3.31-3.31l0.526,0.525l-3.298,3.31L235.233,85.638z"/>
	<path d="M243.904,81.982c1.051,0.18,1.948,1.027,1.948,2.318c0,1.421-1.028,2.664-3.035,2.664c-0.896,0-1.708-0.287-2.115-0.573
		L241,85.627c0.323,0.215,1.04,0.537,1.828,0.537c1.505,0,1.995-1.052,1.995-1.876c0-1.313-1.111-1.911-2.282-1.911h-0.585v-0.741
		h0.585c0.86,0,1.971-0.537,1.971-1.66c0-0.777-0.466-1.446-1.541-1.446c-0.657,0-1.279,0.323-1.637,0.586l-0.298-0.729
		c0.43-0.335,1.266-0.67,2.126-0.67c1.637,0,2.366,1.04,2.366,2.115c0,0.92-0.585,1.744-1.625,2.114V81.982z"/>
	<path d="M257.02,82.233h-6.965v-0.717h6.965V82.233z M257.02,84.849h-6.965v-0.717h6.965V84.849z"/>
	<path d="M265.442,86.821h-0.944v-2.509h-3.907v-0.634l3.823-5.807h1.028v5.676h1.218v0.765h-1.218V86.821z M261.594,83.548h2.903
		v-3.179c0-0.489,0.024-0.968,0.048-1.434h-0.048c-0.275,0.55-0.49,0.933-0.717,1.339l-2.187,3.249V83.548z"/>
	<path d="M269.18,82.078c-0.968-0.466-1.398-1.255-1.398-2.02c0-1.386,1.087-2.329,2.533-2.329c1.625,0,2.401,1.099,2.401,2.174
		c0,0.765-0.406,1.602-1.47,2.115v0.048c1.099,0.466,1.78,1.267,1.78,2.342c0,1.517-1.243,2.557-2.82,2.557
		c-1.708,0-2.76-1.088-2.76-2.378c0-1.159,0.693-1.995,1.732-2.461V82.078z M272.011,84.515c0-1.123-0.752-1.697-1.936-2.079
		c-1.051,0.347-1.613,1.111-1.613,1.995c0,1.016,0.681,1.792,1.756,1.792C271.366,86.223,272.011,85.447,272.011,84.515z
		 M268.726,79.963c-0.012,0.956,0.669,1.482,1.661,1.78c0.777-0.298,1.362-0.907,1.362-1.756c0-0.753-0.418-1.529-1.47-1.529
		C269.24,78.458,268.726,79.186,268.726,79.963z"/>
	<path d="M283.361,86.821h-0.979v-3.764c0-1.267-0.454-2.079-1.434-2.079c-0.801,0-1.529,0.753-1.529,1.745v4.098h-0.98v-4.015
		c0-1.039-0.442-1.828-1.362-1.828c-0.849,0-1.601,0.837-1.601,1.853v3.99h-0.98v-4.839c0-0.669-0.024-1.146-0.047-1.685h0.872
		l0.06,1.052h0.036c0.358-0.634,0.956-1.195,1.983-1.195c0.849,0,1.505,0.526,1.78,1.303h0.024c0.43-0.776,1.087-1.303,2.091-1.303
		c0.801,0,2.067,0.514,2.067,2.748V86.821z"/>
	<path d="M288.328,81.302c-0.238-0.155-0.681-0.383-1.266-0.383c-0.717,0-1.1,0.442-1.1,0.968c0,0.562,0.371,0.824,1.207,1.183
		c1.051,0.431,1.66,0.98,1.66,1.96c0,1.159-0.884,1.924-2.306,1.924c-0.646,0-1.267-0.18-1.708-0.442l0.274-0.765
		c0.347,0.203,0.908,0.442,1.47,0.442c0.872,0,1.303-0.467,1.303-1.052c0-0.609-0.348-0.944-1.207-1.29
		c-1.1-0.442-1.661-1.052-1.661-1.84c0-1.016,0.813-1.853,2.127-1.853c0.621,0,1.147,0.18,1.493,0.395L288.328,81.302z"/>
</g>
<g>
	<g>
		
			<line fill="none" stroke="#000000" stroke-width="0.75" stroke-miterlimit="10" x1="21.271" y1="102.322" x2="414.794" y2="102.322"/>
		<g>
			<path d="M16.744,102.322c2.13,0.789,4.771,2.14,6.41,3.566l-1.289-3.566l1.289-3.565
				C21.517,100.185,18.874,101.531,16.744,102.322z"/>
		</g>
		<g>
			<path d="M419.321,102.322c-2.131,0.789-4.771,2.14-6.41,3.566l1.289-3.566l-1.289-3.565
				C414.548,100.185,417.19,101.531,419.321,102.322z"/>
		</g>
	</g>
</g>
<g enable-background="new    ">
	<path d="M168.918,116.717l0.107,0.693l-1.362,0.478v3.524c0,0.92-0.442,1.016-1.971,0.992c-0.024-0.203-0.144-0.55-0.251-0.777
		c0.334,0.013,0.633,0.024,0.872,0.024c0.514,0,0.574,0,0.574-0.239v-3.25c-0.562,0.191-1.087,0.371-1.494,0.502
		c-0.012,0.107-0.072,0.168-0.155,0.203l-0.287-0.932c0.525-0.144,1.194-0.347,1.936-0.585v-2.832h-1.804v-0.753h1.804v-2.449
		l1.003,0.06c-0.012,0.096-0.072,0.144-0.227,0.168v2.222h1.326v0.753h-1.326v2.593L168.918,116.717z M176.135,120.958v0.741h-5.567
		v0.717h-0.777v-7.014c-0.287,0.454-0.585,0.872-0.908,1.219c-0.107-0.167-0.347-0.478-0.502-0.633
		c0.968-1.052,1.828-2.855,2.33-4.695l0.979,0.274c-0.036,0.084-0.12,0.132-0.263,0.132c-0.215,0.681-0.466,1.361-0.753,2.019h1.816
		c0.334-0.692,0.705-1.673,0.92-2.377l0.956,0.322c-0.036,0.071-0.131,0.119-0.263,0.119c-0.215,0.562-0.526,1.303-0.836,1.936
		h2.664v0.729h-2.604v1.672h2.282v0.705h-2.282v1.697h2.282v0.704h-2.282v1.732H176.135z M172.562,116.119v-1.672h-1.995v1.672
		H172.562z M172.562,118.521v-1.697h-1.995v1.697H172.562z M170.567,119.225v1.732h1.995v-1.732H170.567z"/>
	<path d="M178.965,116.49c-0.43-0.383-1.291-0.896-2.007-1.207l0.442-0.585c0.717,0.274,1.589,0.752,2.02,1.135L178.965,116.49z
		 M177.208,121.818c0.49-0.932,1.195-2.521,1.708-3.871l0.633,0.431c-0.454,1.254-1.076,2.735-1.529,3.632
		c0.048,0.071,0.071,0.132,0.071,0.191c0,0.035-0.012,0.083-0.036,0.119L177.208,121.818z M179.395,113.336
		c-0.395-0.406-1.219-0.968-1.912-1.314l0.466-0.573c0.693,0.322,1.517,0.848,1.936,1.242L179.395,113.336z M181.724,120.003
		c-0.048,0.083-0.131,0.119-0.251,0.107c-0.418,0.836-1.087,1.744-1.72,2.329c-0.144-0.131-0.418-0.334-0.598-0.441
		c0.609-0.526,1.254-1.422,1.649-2.294L181.724,120.003z M180.267,111.866h3.5v7.599h-3.5V111.866z M180.971,112.583v1.589h2.067
		v-1.589H180.971z M180.971,114.853v1.589h2.067v-1.589H180.971z M180.971,117.123v1.613h2.067v-1.613H180.971z M183.803,121.973
		c-0.275-0.489-0.873-1.302-1.374-1.876l0.597-0.37c0.502,0.562,1.123,1.338,1.398,1.816L183.803,121.973z M184.747,112.571
		l0.944,0.06c-0.012,0.071-0.084,0.132-0.227,0.155v6.702h-0.717V112.571z M186.874,111.316l0.979,0.06
		c-0.012,0.084-0.071,0.144-0.239,0.155v9.846c0,0.991-0.43,1.039-2.354,1.039c-0.036-0.203-0.144-0.55-0.251-0.776
		c0.43,0.012,0.836,0.023,1.135,0.023c0.633,0,0.729,0,0.729-0.286V111.316z"/>
	<path d="M191.639,111.83c-0.024,0.144-0.131,0.228-0.37,0.263c-0.096,1.387-0.215,4.553-0.215,6.32c0,1.78,0.884,2.641,2.39,2.641
		c1.458,0,2.939-0.729,4.301-2.27c0.119,0.19,0.394,0.573,0.538,0.704c-1.398,1.59-3.095,2.426-4.851,2.426
		c-2.174,0-3.285-1.255-3.285-3.513c0-1.505,0.107-5.209,0.191-6.679L191.639,111.83z"/>
	<path d="M206.452,113.933c-1.016,0.358-2.366,0.585-3.668,0.681c-0.502,2.736-1.23,5.46-2.187,7.467l-0.86-0.322
		c0.979-1.924,1.696-4.396,2.163-7.108c-0.239,0.012-1.84,0.023-2.199,0.012l-0.012-0.813c0.191,0.012,0.442,0.012,0.717,0.012
		c0.107,0,1.302,0,1.613-0.012c0.12-0.765,0.239-1.602,0.311-2.33l1.231,0.12c-0.012,0.131-0.179,0.227-0.347,0.238
		c-0.072,0.526-0.191,1.171-0.299,1.899c1.171-0.107,2.354-0.311,3.346-0.669L206.452,113.933z M209.63,121.89
		c-0.358,0.012-0.729,0.023-1.099,0.023c-1.123,0-2.187-0.084-2.832-0.263c-0.849-0.239-1.338-0.86-1.326-1.648
		c0.012-0.526,0.239-1.123,0.741-1.732l0.717,0.311c-0.418,0.489-0.622,0.955-0.622,1.326c0,0.943,0.908,1.183,3.083,1.183
		c0.442,0,0.896-0.012,1.338-0.048V121.89z M204.97,116.132c1.23-0.395,2.927-0.646,4.337-0.609v0.813
		c-1.35-0.036-2.915,0.155-4.134,0.537L204.97,116.132z"/>
	<path d="M212.687,116.944c-0.43,0.562-0.884,1.075-1.314,1.505c-0.083-0.167-0.311-0.514-0.442-0.681
		c0.956-0.908,2.091-2.401,2.808-3.823l0.896,0.347c-0.047,0.095-0.167,0.119-0.274,0.107c-0.263,0.489-0.574,0.991-0.908,1.481
		l0.227,0.071c-0.024,0.072-0.096,0.132-0.239,0.144v6.32h-0.753V116.944z M214.395,111.675c-0.048,0.107-0.167,0.107-0.263,0.096
		c-0.646,0.824-1.78,1.936-2.712,2.688c-0.095-0.155-0.311-0.442-0.454-0.586c0.884-0.669,1.971-1.72,2.544-2.557L214.395,111.675z
		 M218.589,115.26h3.441V116h-7.563v-0.74h3.333v-1.709h-2.7v-0.717h2.7v-1.529l1.027,0.071c-0.012,0.084-0.083,0.144-0.239,0.155
		v1.303h2.832v0.717h-2.832V115.26z M220.381,116.287c-0.012,0.083-0.072,0.143-0.239,0.155v1.158h1.804v0.741h-1.804v3.118
		c0,0.932-0.454,0.956-2.342,0.956c-0.048-0.215-0.155-0.538-0.263-0.753c0.43,0.012,0.825,0.024,1.123,0.024
		c0.633,0,0.693,0,0.693-0.239v-3.106h-4.863V117.6h4.863v-1.373L220.381,116.287z M216.916,121.101
		c-0.251-0.562-0.86-1.397-1.434-2.007l0.621-0.347c0.585,0.585,1.219,1.397,1.481,1.959L216.916,121.101z"/>
	<path d="M231.825,113.73c-1.553,0.394-3.716,0.645-5.138,0.692c-0.155,1.493-0.37,2.725-0.562,3.166
		c0.932-0.753,2.377-1.267,3.393-1.267c1.78,0,2.868,0.956,2.868,2.569c0,2.377-2.402,3.178-6.285,3.273
		c-0.048-0.227-0.131-0.585-0.239-0.788c3.429-0.072,5.651-0.657,5.651-2.462c0-1.075-0.717-1.815-2.103-1.815
		c-1.063,0-2.891,0.645-3.68,1.827l-0.836-0.394c0.382-0.431,0.776-2.139,0.956-4.099h-2.795v-0.836
		c0.501,0.012,1.971,0.012,2.867,0.012c0.048-0.681,0.072-1.445,0.072-2.162l1.267,0.119c-0.024,0.203-0.167,0.239-0.382,0.263
		c-0.024,0.598-0.06,1.207-0.108,1.769c1.267-0.036,3.465-0.311,4.899-0.729L231.825,113.73z"/>
	<path d="M237.785,112.105v7.909h-2.628v0.968h-0.765v-8.877H237.785z M237.032,112.845h-1.875v2.808h1.875V112.845z
		 M235.156,119.273h1.875v-2.891h-1.875V119.273z M241.907,115.164h3.142v0.729H238v-0.729h3.119v-1.637h-2.605v-0.718h2.605v-1.481
		l1.027,0.061c-0.012,0.083-0.083,0.143-0.239,0.167v1.254h2.664v0.718h-2.664V115.164z M243.806,116.227
		c-0.012,0.083-0.072,0.143-0.227,0.155v1.027h1.446v0.717h-1.446v3.345c0,0.49-0.107,0.717-0.478,0.837
		c-0.358,0.119-0.968,0.131-1.959,0.131c-0.036-0.215-0.155-0.537-0.275-0.752c0.454,0.012,0.884,0.023,1.195,0.023
		c0.669,0,0.729,0,0.729-0.251v-3.333h-4.743v-0.717h4.743v-1.243L243.806,116.227z M240.402,121.185
		c-0.275-0.598-0.944-1.506-1.565-2.15l0.645-0.383c0.633,0.621,1.326,1.506,1.613,2.103L240.402,121.185z"/>
	<path d="M250.865,115.964h-3.56v6.464h-0.789v-10.586h4.349V115.964z M250.101,112.475h-2.795v1.099h2.795V112.475z
		 M247.305,115.331h2.795v-1.147h-2.795V115.331z M253.685,121.281h-3.764v0.633h-0.741v-5.006h4.504V121.281z M252.921,117.553
		h-2.999v1.194h2.999V117.553z M249.922,120.635h2.999v-1.255h-2.999V120.635z M256.457,111.842v9.463
		c0,1.063-0.466,1.111-2.533,1.111c-0.024-0.228-0.155-0.609-0.274-0.836c0.382,0.012,0.765,0.023,1.063,0.023
		c0.873,0,0.944,0,0.944-0.299v-5.328h-3.656v-4.135H256.457z M255.656,112.475h-2.879v1.099h2.879V112.475z M252.777,115.343h2.879
		v-1.159h-2.879V115.343z"/>
</g>
<g enable-background="new    ">
	<path d="M163.628,135.732h-0.944v-2.509h-3.907v-0.634l3.823-5.807h1.028v5.676h1.219v0.765h-1.219V135.732z M159.781,132.459
		h2.903v-3.179c0-0.489,0.024-0.968,0.048-1.434h-0.048c-0.275,0.55-0.49,0.933-0.717,1.339l-2.187,3.249V132.459z"/>
	<path d="M167.366,130.989c-0.968-0.466-1.398-1.255-1.398-2.02c0-1.386,1.087-2.329,2.533-2.329c1.625,0,2.401,1.099,2.401,2.174
		c0,0.765-0.406,1.602-1.47,2.115v0.048c1.099,0.466,1.78,1.267,1.78,2.342c0,1.517-1.243,2.557-2.82,2.557
		c-1.708,0-2.76-1.088-2.76-2.378c0-1.159,0.693-1.995,1.732-2.461V130.989z M170.198,133.427c0-1.123-0.752-1.697-1.936-2.079
		c-1.051,0.347-1.613,1.111-1.613,1.995c0,1.016,0.681,1.792,1.756,1.792C169.553,135.135,170.198,134.358,170.198,133.427z
		 M166.912,128.874c-0.012,0.956,0.669,1.482,1.661,1.78c0.777-0.298,1.362-0.907,1.362-1.756c0-0.753-0.418-1.529-1.47-1.529
		C167.426,127.369,166.912,128.097,166.912,128.874z"/>
	<path d="M181.547,135.732h-0.979v-3.764c0-1.267-0.454-2.079-1.434-2.079c-0.801,0-1.529,0.753-1.529,1.745v4.098h-0.98v-4.015
		c0-1.039-0.442-1.828-1.362-1.828c-0.849,0-1.601,0.837-1.601,1.853v3.99h-0.98v-4.839c0-0.669-0.023-1.146-0.047-1.685h0.872
		l0.06,1.052h0.036c0.358-0.634,0.956-1.195,1.983-1.195c0.849,0,1.505,0.526,1.78,1.303h0.024c0.43-0.776,1.087-1.303,2.091-1.303
		c0.801,0,2.067,0.514,2.067,2.748V135.732z"/>
	<path d="M186.515,130.213c-0.239-0.155-0.681-0.383-1.267-0.383c-0.717,0-1.099,0.442-1.099,0.968c0,0.562,0.371,0.824,1.207,1.183
		c1.051,0.431,1.661,0.98,1.661,1.96c0,1.159-0.884,1.924-2.306,1.924c-0.645,0-1.267-0.18-1.708-0.442l0.275-0.765
		c0.347,0.203,0.908,0.442,1.47,0.442c0.872,0,1.302-0.467,1.302-1.052c0-0.609-0.347-0.944-1.207-1.29
		c-1.099-0.442-1.661-1.052-1.661-1.84c0-1.016,0.813-1.853,2.127-1.853c0.621,0,1.147,0.18,1.493,0.395L186.515,130.213z"/>
	<path d="M193.981,128.54h0.765v3.226h3.106v0.717h-3.106v3.25h-0.765v-3.25h-3.106v-0.717h3.106V128.54z"/>
	<path d="M206.261,135.732h-0.944v-2.509h-3.907v-0.634l3.823-5.807h1.028v5.676h1.218v0.765h-1.218V135.732z M202.414,132.459
		h2.903v-3.179c0-0.489,0.024-0.968,0.048-1.434h-0.048c-0.275,0.55-0.49,0.933-0.717,1.339l-2.187,3.249V132.459z"/>
	<path d="M217.598,135.732h-0.979v-3.764c0-1.267-0.454-2.079-1.434-2.079c-0.801,0-1.529,0.753-1.529,1.745v4.098h-0.98v-4.015
		c0-1.039-0.442-1.828-1.362-1.828c-0.849,0-1.601,0.837-1.601,1.853v3.99h-0.98v-4.839c0-0.669-0.024-1.146-0.047-1.685h0.872
		l0.06,1.052h0.036c0.358-0.634,0.956-1.195,1.983-1.195c0.849,0,1.505,0.526,1.78,1.303h0.024c0.43-0.776,1.087-1.303,2.091-1.303
		c0.801,0,2.067,0.514,2.067,2.748V135.732z"/>
	<path d="M222.567,130.213c-0.239-0.155-0.681-0.383-1.267-0.383c-0.717,0-1.099,0.442-1.099,0.968c0,0.562,0.371,0.824,1.207,1.183
		c1.052,0.431,1.661,0.98,1.661,1.96c0,1.159-0.884,1.924-2.306,1.924c-0.645,0-1.266-0.18-1.708-0.442l0.275-0.765
		c0.347,0.203,0.908,0.442,1.47,0.442c0.872,0,1.302-0.467,1.302-1.052c0-0.609-0.347-0.944-1.207-1.29
		c-1.099-0.442-1.661-1.052-1.661-1.84c0-1.016,0.813-1.853,2.127-1.853c0.621,0,1.147,0.18,1.493,0.395L222.567,130.213z"/>
	<path d="M233.891,131.144h-6.965v-0.717h6.965V131.144z M233.891,133.76h-6.965v-0.717h6.965V133.76z"/>
	<path d="M242.779,126.783v0.825h-3.214l-0.371,2.532c0.191-0.023,0.382-0.048,0.693-0.048c1.589,0,3.011,0.944,3.011,2.748
		c0,1.769-1.314,3.035-3.083,3.035c-0.896,0-1.649-0.263-2.055-0.526l0.287-0.776c0.334,0.228,0.992,0.502,1.769,0.502
		c1.123,0,2.091-0.824,2.079-2.114c0-1.231-0.789-2.091-2.461-2.091c-0.478,0-0.849,0.035-1.147,0.083l0.562-4.17H242.779z"/>
	<path d="M249.683,135.732h-5.293v-0.609l0.872-0.92c2.127-2.15,3.202-3.453,3.202-4.91c0-0.956-0.418-1.84-1.708-1.84
		c-0.717,0-1.362,0.394-1.792,0.74l-0.334-0.692c0.55-0.49,1.362-0.873,2.318-0.873c1.804,0,2.521,1.314,2.521,2.545
		c0,1.685-1.183,3.118-3.035,4.982l-0.705,0.741v0.023h3.955V135.732z"/>
	<path d="M260.232,135.732h-0.979v-3.764c0-1.267-0.454-2.079-1.434-2.079c-0.801,0-1.529,0.753-1.529,1.745v4.098h-0.98v-4.015
		c0-1.039-0.442-1.828-1.362-1.828c-0.849,0-1.601,0.837-1.601,1.853v3.99h-0.98v-4.839c0-0.669-0.023-1.146-0.047-1.685h0.872
		l0.06,1.052h0.036c0.358-0.634,0.956-1.195,1.983-1.195c0.849,0,1.505,0.526,1.78,1.303h0.024c0.43-0.776,1.087-1.303,2.091-1.303
		c0.801,0,2.067,0.514,2.067,2.748V135.732z"/>
	<path d="M265.2,130.213c-0.239-0.155-0.681-0.383-1.267-0.383c-0.717,0-1.099,0.442-1.099,0.968c0,0.562,0.371,0.824,1.207,1.183
		c1.051,0.431,1.661,0.98,1.661,1.96c0,1.159-0.884,1.924-2.306,1.924c-0.645,0-1.267-0.18-1.708-0.442l0.275-0.765
		c0.347,0.203,0.908,0.442,1.47,0.442c0.872,0,1.302-0.467,1.302-1.052c0-0.609-0.347-0.944-1.207-1.29
		c-1.099-0.442-1.661-1.052-1.661-1.84c0-1.016,0.813-1.853,2.127-1.853c0.621,0,1.147,0.18,1.493,0.395L265.2,130.213z"/>
</g>
</svg>
