<?xml version="1.0" encoding="utf-8"?>
<!-- Generator: Adobe Illustrator 16.0.0, SVG Export Plug-In . SVG Version: 6.00 Build 0)  -->
<!DOCTYPE svg PUBLIC "-//W3C//DTD SVG 1.1//EN" "http://www.w3.org/Graphics/SVG/1.1/DTD/svg11.dtd">
<svg version="1.1" id="レイヤー_1" xmlns="http://www.w3.org/2000/svg" xmlns:xlink="http://www.w3.org/1999/xlink" x="0px"
	 y="0px" width="566.93px" height="141.732px" viewBox="0 0 566.93 141.732" enable-background="new 0 0 566.93 141.732"
	 xml:space="preserve">
<g>
	<polyline fill="none" stroke="#000000" stroke-miterlimit="10" points="5.962,7.173 15.317,7.173 15.317,23.422 24.671,23.422 
		24.671,7.173 108.865,7.173 108.865,23.422 127.575,23.422 127.575,7.173 136.929,7.173 	"/>
	<line fill="none" stroke="#898989" stroke-miterlimit="10" x1="24.671" y1="23.422" x2="108.865" y2="23.422"/>
	<line fill="none" stroke="#898989" stroke-miterlimit="10" x1="99.51" y1="7.173" x2="99.51" y2="23.422"/>
	<polyline fill="none" stroke="#898989" stroke-miterlimit="10" points="118.219,23.422 118.219,7.173 127.575,7.173 	"/>
	<line fill="none" stroke="#898989" stroke-miterlimit="10" x1="122.896" y1="7.173" x2="122.896" y2="23.422"/>
	<line fill="none" stroke="#898989" stroke-miterlimit="10" x1="90.154" y1="7.173" x2="90.154" y2="23.422"/>
	<line fill="none" stroke="#898989" stroke-miterlimit="10" x1="80.8" y1="7.173" x2="80.8" y2="23.422"/>
	<line fill="none" stroke="#898989" stroke-miterlimit="10" x1="71.446" y1="7.173" x2="71.446" y2="23.422"/>
</g>
<g>
	<polyline fill="none" stroke="#000000" stroke-miterlimit="10" points="136.928,7.173 136.928,23.422 146.282,23.422 
		146.282,7.173 230.475,7.173 230.475,23.422 249.186,23.422 249.186,7.173 258.539,7.173 	"/>
	<line fill="none" stroke="#898989" stroke-miterlimit="10" x1="146.282" y1="23.422" x2="230.475" y2="23.422"/>
	<line fill="none" stroke="#898989" stroke-miterlimit="10" x1="221.121" y1="7.173" x2="221.121" y2="23.422"/>
	<polyline fill="none" stroke="#898989" stroke-miterlimit="10" points="239.83,23.422 239.83,7.173 249.186,7.173 	"/>
	<line fill="none" stroke="#898989" stroke-miterlimit="10" x1="244.507" y1="7.173" x2="244.507" y2="23.422"/>
	<line fill="none" stroke="#898989" stroke-miterlimit="10" x1="211.765" y1="7.173" x2="211.765" y2="23.422"/>
	<line fill="none" stroke="#898989" stroke-miterlimit="10" x1="202.412" y1="7.173" x2="202.412" y2="23.422"/>
	<line fill="none" stroke="#898989" stroke-miterlimit="10" x1="193.056" y1="7.173" x2="193.056" y2="23.422"/>
</g>
<g>
	<polyline fill="none" stroke="#000000" stroke-miterlimit="10" points="333.785,7.173 333.785,23.422 343.143,23.422 
		343.143,7.173 427.33,7.173 427.33,23.422 446.046,23.422 446.046,7.173 455.397,7.173 	"/>
	<line fill="none" stroke="#898989" stroke-miterlimit="10" x1="343.143" y1="23.422" x2="427.33" y2="23.422"/>
	<line fill="none" stroke="#898989" stroke-miterlimit="10" x1="417.979" y1="7.173" x2="417.979" y2="23.422"/>
	<polyline fill="none" stroke="#898989" stroke-miterlimit="10" points="436.688,23.422 436.688,7.173 446.046,7.173 	"/>
	<line fill="none" stroke="#898989" stroke-miterlimit="10" x1="441.364" y1="7.173" x2="441.364" y2="23.422"/>
	<line fill="none" stroke="#898989" stroke-miterlimit="10" x1="408.621" y1="7.173" x2="408.621" y2="23.422"/>
	<line fill="none" stroke="#898989" stroke-miterlimit="10" x1="399.27" y1="7.173" x2="399.27" y2="23.422"/>
	<line fill="none" stroke="#898989" stroke-miterlimit="10" x1="389.914" y1="7.173" x2="389.914" y2="23.422"/>
</g>
<line fill="none" stroke="#000000" stroke-miterlimit="10" x1="258.539" y1="7.173" x2="333.785" y2="7.173"/>
<g>
	<g>
		
			<line fill="none" stroke="#000000" stroke-width="0.75" stroke-miterlimit="10" x1="22.272" y1="37.271" x2="246.486" y2="37.271"/>
		<g>
			<path d="M17.746,37.271c2.13,0.79,4.771,2.139,6.411,3.566l-1.291-3.566l1.291-3.566C22.518,35.132,19.875,36.48,17.746,37.271z"
				/>
		</g>
		<g>
			<path d="M251.012,37.271c-2.131,0.79-4.772,2.139-6.411,3.566l1.291-3.566l-1.291-3.566
				C246.24,35.132,248.882,36.48,251.012,37.271z"/>
		</g>
	</g>
</g>
<g enable-background="new    ">
	<path d="M55.631,56.081v-8.017h-0.024l-1.47,0.848l-0.239-0.74l1.852-1.04h0.848v8.949H55.631z"/>
	<path d="M61.101,50.621c0.406-0.753,1.147-1.207,2.163-1.207c1.542,0,2.628,1.326,2.628,3.334c0,2.365-1.445,3.477-2.795,3.477
		c-0.944,0-1.637-0.383-2.103-1.219h-0.036l-0.06,1.075h-0.86c0.024-0.43,0.047-1.087,0.047-1.613v-7.945h0.992v4.099H61.101z
		 M61.077,53.536c0,0.968,0.729,1.876,1.828,1.876c1.267,0,1.971-1.087,1.971-2.629c0-1.361-0.669-2.557-1.936-2.557
		c-1.135,0-1.864,1.063-1.864,2.02V53.536z"/>
	<path d="M72.295,49.569l-1.732,4.612c-0.776,2.114-1.326,3.333-2.139,4.098c-0.549,0.502-1.087,0.705-1.326,0.765l-0.275-0.836
		c1.518-0.562,2.103-2.211,2.103-2.342c0-0.06-0.024-0.155-0.072-0.275l-2.306-6.021h1.087l1.422,3.955
		c0.167,0.454,0.311,0.968,0.418,1.362h0.036c0.107-0.395,0.263-0.885,0.418-1.387l1.314-3.931H72.295z"/>
	<path d="M73.656,48.386l0.979-0.335v1.518h1.685v0.777h-1.685v3.763c0,0.825,0.251,1.278,0.884,1.278
		c0.299,0,0.502-0.035,0.669-0.095l0.06,0.765c-0.215,0.095-0.549,0.155-0.967,0.155c-1.577,0-1.625-1.435-1.625-2.127v-3.739
		h-1.004v-0.777h1.004V48.386z"/>
	<path d="M82.233,55.806c-0.37,0.179-1.051,0.406-2.043,0.406c-1.899,0-3.035-1.339-3.035-3.286c0-2.043,1.147-3.513,2.903-3.513
		c2.007,0,2.521,1.84,2.521,2.976c0,0.227-0.012,0.394-0.024,0.549h-4.433c0.012,1.805,1.04,2.485,2.21,2.485
		c0.813,0,1.302-0.167,1.708-0.334L82.233,55.806z M81.6,52.198c0.012-0.885-0.359-2.031-1.637-2.031
		c-1.195,0-1.72,1.135-1.816,2.031H81.6z"/>
	<path d="M90.583,51.493h-6.965v-0.717h6.965V51.493z M90.583,54.109h-6.965v-0.717h6.965V54.109z"/>
	<path d="M94.238,56.081v-8.017h-0.024l-1.47,0.848l-0.239-0.74l1.852-1.04h0.848v8.949H94.238z"/>
	<path d="M98.192,51.636c0-3.131,1.219-4.647,2.891-4.647c1.697,0,2.736,1.601,2.736,4.527c0,3.106-1.087,4.708-2.868,4.708
		C99.326,56.224,98.192,54.623,98.192,51.636z M102.815,51.564c0-2.233-0.538-3.775-1.792-3.775c-1.063,0-1.816,1.422-1.816,3.775
		c0,2.354,0.657,3.848,1.78,3.848C102.313,55.412,102.815,53.691,102.815,51.564z"/>
	<path d="M106.291,50.621c0.406-0.753,1.147-1.207,2.163-1.207c1.542,0,2.628,1.326,2.628,3.334c0,2.365-1.445,3.477-2.795,3.477
		c-0.944,0-1.637-0.383-2.103-1.219h-0.036l-0.06,1.075h-0.86c0.024-0.43,0.047-1.087,0.047-1.613v-7.945h0.992v4.099H106.291z
		 M106.267,53.536c0,0.968,0.729,1.876,1.828,1.876c1.267,0,1.971-1.087,1.971-2.629c0-1.361-0.669-2.557-1.936-2.557
		c-1.135,0-1.864,1.063-1.864,2.02V53.536z"/>
	<path d="M113.064,48.423c-0.382,0-0.646-0.299-0.646-0.682c0-0.37,0.275-0.669,0.657-0.669c0.395,0,0.645,0.299,0.645,0.669
		C113.721,48.16,113.447,48.423,113.064,48.423z M113.566,56.081h-0.992v-6.512h0.992V56.081z"/>
	<path d="M115.799,48.386l0.979-0.335v1.518h1.685v0.777h-1.685v3.763c0,0.825,0.251,1.278,0.884,1.278
		c0.299,0,0.502-0.035,0.669-0.095l0.06,0.765c-0.215,0.095-0.549,0.155-0.968,0.155c-1.577,0-1.625-1.435-1.625-2.127v-3.739
		h-1.004v-0.777h1.004V48.386z"/>
	<path d="M122.812,50.561c-0.239-0.155-0.681-0.383-1.267-0.383c-0.717,0-1.099,0.442-1.099,0.968c0,0.562,0.371,0.824,1.207,1.183
		c1.051,0.431,1.661,0.98,1.661,1.96c0,1.159-0.884,1.924-2.306,1.924c-0.645,0-1.267-0.18-1.708-0.442l0.275-0.765
		c0.347,0.203,0.908,0.442,1.47,0.442c0.872,0,1.302-0.467,1.302-1.052c0-0.609-0.347-0.944-1.207-1.29
		c-1.099-0.442-1.661-1.052-1.661-1.84c0-1.016,0.813-1.853,2.127-1.853c0.621,0,1.147,0.18,1.493,0.395L122.812,50.561z"/>
	<path d="M126.048,54.515c-0.298,1.1-0.884,2.604-1.207,3.166l-0.729,0.084c0.275-0.729,0.633-2.175,0.777-3.118L126.048,54.515z"/>
</g>
<g enable-background="new    ">
	<path d="M135.003,55.448c0.358-0.012,1.316-0.06,1.881-0.179c0.009,0.263,0.018,0.598,0.036,0.86
		c-0.591,0.083-1.487,0.131-1.854,0.131h-2.239c-1.353,0-2.006-0.789-2.006-2.497v-6.965l0.878,0.072
		c-0.018,0.119-0.081,0.191-0.242,0.215v3.895c1.37-0.574,3.278-1.529,4.442-2.366l0.457,0.824
		c-0.027,0.024-0.072,0.036-0.107,0.036c-0.045,0-0.081-0.012-0.125-0.036c-1.084,0.729-3.126,1.732-4.667,2.354v1.995
		c0,1.207,0.438,1.661,1.361,1.661H135.003z M135.845,46.451c0.412,0.49,0.86,1.23,1.111,1.756l-0.34,0.347
		c-0.251-0.526-0.717-1.302-1.093-1.756L135.845,46.451z M136.947,45.734c0.403,0.49,0.86,1.219,1.111,1.744l-0.34,0.347
		c-0.251-0.526-0.726-1.291-1.093-1.744L136.947,45.734z"/>
	<path d="M139.349,49.533c0.269,0.729,0.564,1.876,0.671,2.569l-0.501,0.179c-0.107-0.693-0.385-1.78-0.654-2.545L139.349,49.533z
		 M144.697,49.617c-0.018,0.108-0.107,0.132-0.188,0.12c-0.699,3.489-2.016,5.627-4.183,6.798c-0.072-0.144-0.233-0.418-0.349-0.55
		c2.141-1.123,3.368-3.083,4.021-6.643L144.697,49.617z M141.526,48.96c0.188,0.8,0.358,1.947,0.421,2.712l-0.528,0.131
		c-0.054-0.765-0.224-1.864-0.421-2.688L141.526,48.96z"/>
	<path d="M151.228,52.688c-0.914-0.657-2.167-1.434-3.144-1.948v5.974h-0.672V46.332l0.905,0.071
		c-0.009,0.131-0.081,0.215-0.233,0.251v3.489l0.134-0.251c1.048,0.514,2.437,1.338,3.368,1.995L151.228,52.688z"/>
	<path d="M153.137,56.618h-0.6l2.839-9.785h0.618L153.137,56.618z"/>
</g>
<g enable-background="new    ">
	<path d="M160.668,51.015c0.277,0.347,1.137,1.577,1.316,1.876l-0.358,0.633c-0.161-0.371-0.618-1.147-0.958-1.708v5.281h-0.591
		v-5.604c-0.385,1.314-0.905,2.641-1.397,3.429c-0.071-0.215-0.215-0.538-0.313-0.717c0.573-0.872,1.227-2.485,1.595-3.918h-1.469
		v-0.765h1.585v-2.079c-0.466,0.167-0.958,0.323-1.424,0.442c-0.027-0.155-0.116-0.418-0.188-0.585
		c1.102-0.322,2.374-0.812,3.054-1.302l0.538,0.598c-0.036,0.048-0.045,0.048-0.17,0.048c-0.322,0.203-0.752,0.394-1.218,0.585
		v2.294h1.298v0.765h-1.298V51.015z M166.355,52.174c-0.027,0.083-0.081,0.119-0.179,0.131c-0.582,2.485-1.863,4.014-4.219,4.767
		c-0.054-0.227-0.206-0.526-0.34-0.717c2.23-0.609,3.475-1.996,4.013-4.409L166.355,52.174z M163.345,48.267
		c-0.018,0.084-0.081,0.132-0.188,0.12c-0.224,1.35-0.609,2.784-1.075,3.656c-0.107-0.12-0.322-0.299-0.457-0.395
		c0.439-0.824,0.797-2.234,1.012-3.62L163.345,48.267z M164.761,46.057c-0.009,0.083-0.054,0.143-0.179,0.167v6.201
		c0,0.86-0.269,0.968-1.505,0.968c-0.027-0.215-0.125-0.562-0.215-0.765c0.224,0,0.439,0.012,0.6,0.012c0.466,0,0.52,0,0.52-0.227
		v-6.416L164.761,46.057z M165.71,47.969c0.511,1.099,0.95,2.557,1.102,3.524l-0.546,0.263c-0.144-0.979-0.583-2.461-1.066-3.548
		L165.71,47.969z"/>
</g>
<g enable-background="new    ">
	<path d="M176.799,51.493h-6.965v-0.717h6.965V51.493z M176.799,54.109h-6.965v-0.717h6.965V54.109z"/>
	<path d="M178.852,51.338c0.406-0.598,1.135-1.1,2.091-1.1c1.518,0,2.533,1.136,2.533,2.855c0,1.638-1.003,3.131-2.748,3.131
		c-1.745,0-2.916-1.446-2.916-3.764c0-2.401,1.123-4.91,4.026-5.389c0.334-0.048,0.633-0.083,0.836-0.083l0.012,0.824
		c-2.485,0-3.668,1.804-3.871,3.524H178.852z M182.472,53.166c0-1.374-0.741-2.175-1.816-2.175c-1.051,0-1.852,1.027-1.852,1.696
		c0.012,1.638,0.705,2.761,1.948,2.761C181.791,55.448,182.472,54.515,182.472,53.166z"/>
	<path d="M184.407,51.636c0-3.131,1.219-4.647,2.891-4.647c1.697,0,2.736,1.601,2.736,4.527c0,3.106-1.087,4.708-2.868,4.708
		C185.542,56.224,184.407,54.623,184.407,51.636z M189.031,51.564c0-2.233-0.538-3.775-1.792-3.775
		c-1.063,0-1.816,1.422-1.816,3.775c0,2.354,0.657,3.848,1.78,3.848C188.529,55.412,189.031,53.691,189.031,51.564z"/>
	<path d="M190.989,51.636c0-3.131,1.219-4.647,2.891-4.647c1.697,0,2.736,1.601,2.736,4.527c0,3.106-1.087,4.708-2.868,4.708
		C192.124,56.224,190.989,54.623,190.989,51.636z M195.613,51.564c0-2.233-0.538-3.775-1.792-3.775
		c-1.063,0-1.816,1.422-1.816,3.775c0,2.354,0.657,3.848,1.78,3.848C195.111,55.412,195.613,53.691,195.613,51.564z"/>
	<path d="M199.088,50.621c0.406-0.753,1.147-1.207,2.163-1.207c1.542,0,2.628,1.326,2.628,3.334c0,2.365-1.445,3.477-2.795,3.477
		c-0.944,0-1.637-0.383-2.103-1.219h-0.036l-0.06,1.075h-0.86c0.023-0.43,0.047-1.087,0.047-1.613v-7.945h0.992v4.099H199.088z
		 M199.064,53.536c0,0.968,0.729,1.876,1.828,1.876c1.267,0,1.971-1.087,1.971-2.629c0-1.361-0.669-2.557-1.936-2.557
		c-1.135,0-1.864,1.063-1.864,2.02V53.536z"/>
	<path d="M206.303,50.669c0.454-0.801,1.207-1.255,2.222-1.255c1.542,0,2.652,1.326,2.652,3.321c0,2.39-1.398,3.489-2.832,3.489
		c-0.86,0-1.577-0.395-1.959-1.04h-0.024v3.561h-0.992V51.66c0-0.848-0.023-1.505-0.047-2.103h0.896l0.06,1.111H206.303z
		 M206.363,53.488c0,1.267,0.944,1.936,1.828,1.936c1.278,0,1.983-1.099,1.983-2.652c0-1.35-0.681-2.545-1.948-2.545
		c-1.111,0-1.864,1.075-1.864,2.02V53.488z"/>
	<path d="M215.717,50.561c-0.239-0.155-0.681-0.383-1.267-0.383c-0.717,0-1.099,0.442-1.099,0.968c0,0.562,0.371,0.824,1.207,1.183
		c1.052,0.431,1.661,0.98,1.661,1.96c0,1.159-0.884,1.924-2.306,1.924c-0.645,0-1.266-0.18-1.708-0.442l0.275-0.765
		c0.347,0.203,0.908,0.442,1.47,0.442c0.872,0,1.302-0.467,1.302-1.052c0-0.609-0.347-0.944-1.207-1.29
		c-1.099-0.442-1.661-1.052-1.661-1.84c0-1.016,0.813-1.853,2.127-1.853c0.621,0,1.147,0.18,1.493,0.395L215.717,50.561z"/>
</g>
<g enable-background="new    ">
	<path d="M62.227,65.939c0.406-0.598,1.135-1.1,2.091-1.1c1.518,0,2.533,1.136,2.533,2.855c0,1.638-1.003,3.131-2.748,3.131
		c-1.745,0-2.916-1.446-2.916-3.764c0-2.401,1.123-4.91,4.026-5.389c0.334-0.048,0.633-0.083,0.836-0.083l0.012,0.824
		c-2.485,0-3.668,1.804-3.871,3.524H62.227z M65.847,67.767c0-1.374-0.741-2.175-1.816-2.175c-1.051,0-1.852,1.027-1.852,1.696
		c0.012,1.638,0.705,2.761,1.948,2.761C65.166,70.05,65.847,69.117,65.847,67.767z"/>
	<path d="M67.782,66.238c0-3.131,1.219-4.647,2.891-4.647c1.697,0,2.736,1.601,2.736,4.527c0,3.106-1.087,4.708-2.868,4.708
		C68.917,70.826,67.782,69.224,67.782,66.238z M72.406,66.166c0-2.233-0.538-3.775-1.792-3.775c-1.063,0-1.816,1.422-1.816,3.775
		c0,2.354,0.657,3.848,1.78,3.848C71.904,70.013,72.406,68.293,72.406,66.166z"/>
	<path d="M74.364,66.238c0-3.131,1.219-4.647,2.891-4.647c1.697,0,2.736,1.601,2.736,4.527c0,3.106-1.087,4.708-2.868,4.708
		C75.499,70.826,74.364,69.224,74.364,66.238z M78.988,66.166c0-2.233-0.538-3.775-1.792-3.775c-1.063,0-1.816,1.422-1.816,3.775
		c0,2.354,0.657,3.848,1.78,3.848C78.486,70.013,78.988,68.293,78.988,66.166z"/>
	<path d="M82.463,65.222c0.406-0.753,1.147-1.207,2.163-1.207c1.542,0,2.628,1.326,2.628,3.334c0,2.365-1.445,3.477-2.795,3.477
		c-0.944,0-1.637-0.383-2.103-1.219H82.32l-0.06,1.075H81.4c0.024-0.43,0.047-1.087,0.047-1.613v-7.945h0.992v4.099H82.463z
		 M82.439,68.137c0,0.968,0.729,1.876,1.828,1.876c1.267,0,1.971-1.087,1.971-2.629c0-1.361-0.669-2.557-1.936-2.557
		c-1.135,0-1.864,1.063-1.864,2.02V68.137z"/>
	<path d="M89.678,65.27c0.454-0.801,1.207-1.255,2.222-1.255c1.542,0,2.652,1.326,2.652,3.321c0,2.39-1.398,3.489-2.832,3.489
		c-0.86,0-1.577-0.395-1.959-1.04h-0.024v3.561h-0.992v-7.085c0-0.848-0.024-1.505-0.047-2.103h0.896l0.06,1.111H89.678z
		 M89.738,68.09c0,1.267,0.944,1.936,1.828,1.936c1.278,0,1.983-1.099,1.983-2.652c0-1.35-0.681-2.545-1.948-2.545
		c-1.111,0-1.864,1.075-1.864,2.02V68.09z"/>
	<path d="M99.092,65.163c-0.239-0.155-0.681-0.383-1.267-0.383c-0.717,0-1.099,0.442-1.099,0.968c0,0.562,0.371,0.824,1.207,1.183
		c1.051,0.431,1.661,0.98,1.661,1.96c0,1.159-0.884,1.924-2.306,1.924c-0.645,0-1.267-0.18-1.708-0.442l0.275-0.765
		c0.347,0.203,0.908,0.442,1.47,0.442c0.872,0,1.302-0.467,1.302-1.052c0-0.609-0.347-0.944-1.207-1.29
		c-1.099-0.442-1.661-1.052-1.661-1.84c0-1.016,0.813-1.853,2.127-1.853c0.621,0,1.147,0.18,1.493,0.395L99.092,65.163z"/>
	<path d="M103.69,71.22h-0.8l3.788-9.785h0.824L103.69,71.22z"/>
	<path d="M113.354,70.682v-8.017h-0.024l-1.47,0.848l-0.239-0.74l1.852-1.04h0.848v8.949H113.354z"/>
	<path d="M117.307,66.238c0-3.131,1.219-4.647,2.891-4.647c1.697,0,2.736,1.601,2.736,4.527c0,3.106-1.087,4.708-2.868,4.708
		C118.442,70.826,117.307,69.224,117.307,66.238z M121.931,66.166c0-2.233-0.538-3.775-1.792-3.775
		c-1.063,0-1.816,1.422-1.816,3.775c0,2.354,0.657,3.848,1.78,3.848C121.429,70.013,121.931,68.293,121.931,66.166z"/>
	<path d="M125.406,65.222c0.406-0.753,1.147-1.207,2.163-1.207c1.542,0,2.628,1.326,2.628,3.334c0,2.365-1.445,3.477-2.795,3.477
		c-0.944,0-1.637-0.383-2.103-1.219h-0.036l-0.06,1.075h-0.86c0.024-0.43,0.047-1.087,0.047-1.613v-7.945h0.992v4.099H125.406z
		 M125.383,68.137c0,0.968,0.729,1.876,1.828,1.876c1.267,0,1.971-1.087,1.971-2.629c0-1.361-0.669-2.557-1.936-2.557
		c-1.135,0-1.864,1.063-1.864,2.02V68.137z"/>
	<path d="M132.18,63.024c-0.382,0-0.646-0.299-0.646-0.682c0-0.37,0.275-0.669,0.657-0.669c0.395,0,0.645,0.299,0.645,0.669
		C132.837,62.761,132.562,63.024,132.18,63.024z M132.681,70.682h-0.992v-6.512h0.992V70.682z"/>
	<path d="M134.915,62.988l0.979-0.335v1.518h1.685v0.777h-1.685v3.763c0,0.825,0.251,1.278,0.884,1.278
		c0.299,0,0.502-0.035,0.669-0.095l0.06,0.765c-0.215,0.095-0.549,0.155-0.967,0.155c-1.577,0-1.625-1.435-1.625-2.127v-3.739
		h-1.004v-0.777h1.004V62.988z"/>
	<path d="M141.927,65.163c-0.239-0.155-0.681-0.383-1.267-0.383c-0.717,0-1.099,0.442-1.099,0.968c0,0.562,0.371,0.824,1.207,1.183
		c1.051,0.431,1.661,0.98,1.661,1.96c0,1.159-0.884,1.924-2.306,1.924c-0.645,0-1.267-0.18-1.708-0.442l0.275-0.765
		c0.347,0.203,0.908,0.442,1.47,0.442c0.872,0,1.302-0.467,1.302-1.052c0-0.609-0.347-0.944-1.207-1.29
		c-1.099-0.442-1.661-1.052-1.661-1.84c0-1.016,0.813-1.853,2.127-1.853c0.621,0,1.147,0.18,1.493,0.395L141.927,65.163z"/>
	<path d="M153.252,66.094h-6.965v-0.717h6.965V66.094z M153.252,68.711h-6.965v-0.717h6.965V68.711z"/>
	<path d="M158.089,65.939c0.406-0.598,1.135-1.1,2.091-1.1c1.518,0,2.533,1.136,2.533,2.855c0,1.638-1.003,3.131-2.748,3.131
		c-1.745,0-2.916-1.446-2.916-3.764c0-2.401,1.123-4.91,4.026-5.389c0.334-0.048,0.633-0.083,0.836-0.083l0.012,0.824
		c-2.485,0-3.668,1.804-3.871,3.524H158.089z M161.709,67.767c0-1.374-0.741-2.175-1.816-2.175c-1.051,0-1.852,1.027-1.852,1.696
		c0.012,1.638,0.705,2.761,1.948,2.761C161.028,70.05,161.709,69.117,161.709,67.767z"/>
	<path d="M163.643,66.238c0-3.131,1.219-4.647,2.891-4.647c1.697,0,2.736,1.601,2.736,4.527c0,3.106-1.087,4.708-2.868,4.708
		C164.778,70.826,163.643,69.224,163.643,66.238z M168.267,66.166c0-2.233-0.538-3.775-1.792-3.775
		c-1.063,0-1.816,1.422-1.816,3.775c0,2.354,0.657,3.848,1.78,3.848C167.765,70.013,168.267,68.293,168.267,66.166z"/>
	<path d="M171.742,65.222c0.406-0.753,1.147-1.207,2.163-1.207c1.542,0,2.628,1.326,2.628,3.334c0,2.365-1.445,3.477-2.795,3.477
		c-0.944,0-1.637-0.383-2.103-1.219h-0.036l-0.06,1.075h-0.86c0.024-0.43,0.047-1.087,0.047-1.613v-7.945h0.992v4.099H171.742z
		 M171.719,68.137c0,0.968,0.729,1.876,1.828,1.876c1.267,0,1.971-1.087,1.971-2.629c0-1.361-0.669-2.557-1.936-2.557
		c-1.135,0-1.864,1.063-1.864,2.02V68.137z"/>
	<path d="M182.936,64.171l-1.732,4.612c-0.776,2.114-1.326,3.333-2.139,4.098c-0.549,0.502-1.087,0.705-1.326,0.765l-0.275-0.836
		c1.518-0.562,2.103-2.211,2.103-2.342c0-0.06-0.024-0.155-0.072-0.275l-2.306-6.021h1.087l1.422,3.955
		c0.167,0.454,0.311,0.968,0.418,1.362h0.036c0.107-0.395,0.263-0.885,0.418-1.387l1.314-3.931H182.936z"/>
	<path d="M184.297,62.988l0.979-0.335v1.518h1.685v0.777h-1.685v3.763c0,0.825,0.251,1.278,0.884,1.278
		c0.299,0,0.502-0.035,0.669-0.095l0.06,0.765c-0.215,0.095-0.549,0.155-0.967,0.155c-1.577,0-1.625-1.435-1.625-2.127v-3.739
		h-1.004v-0.777h1.004V62.988z"/>
	<path d="M192.875,70.408c-0.37,0.179-1.051,0.406-2.043,0.406c-1.899,0-3.035-1.339-3.035-3.286c0-2.043,1.147-3.513,2.903-3.513
		c2.007,0,2.521,1.84,2.521,2.976c0,0.227-0.012,0.394-0.024,0.549h-4.433c0.012,1.805,1.04,2.485,2.21,2.485
		c0.813,0,1.302-0.167,1.708-0.334L192.875,70.408z M192.242,66.8c0.012-0.885-0.359-2.031-1.637-2.031
		c-1.195,0-1.72,1.135-1.816,2.031H192.242z"/>
	<path d="M194.498,71.22h-0.8l3.788-9.785h0.824L194.498,71.22z"/>
	<path d="M202.299,65.163c-0.239-0.155-0.681-0.383-1.267-0.383c-0.717,0-1.099,0.442-1.099,0.968c0,0.562,0.371,0.824,1.207,1.183
		c1.052,0.431,1.661,0.98,1.661,1.96c0,1.159-0.884,1.924-2.306,1.924c-0.645,0-1.266-0.18-1.708-0.442l0.275-0.765
		c0.347,0.203,0.908,0.442,1.47,0.442c0.872,0,1.302-0.467,1.302-1.052c0-0.609-0.347-0.944-1.207-1.29
		c-1.099-0.442-1.661-1.052-1.661-1.84c0-1.016,0.813-1.853,2.127-1.853c0.621,0,1.147,0.18,1.493,0.395L202.299,65.163z"/>
	<path d="M208.929,70.408c-0.37,0.179-1.051,0.406-2.043,0.406c-1.899,0-3.035-1.339-3.035-3.286c0-2.043,1.147-3.513,2.903-3.513
		c2.007,0,2.521,1.84,2.521,2.976c0,0.227-0.012,0.394-0.024,0.549h-4.433c0.012,1.805,1.04,2.485,2.21,2.485
		c0.813,0,1.302-0.167,1.708-0.334L208.929,70.408z M208.296,66.8c0.012-0.885-0.359-2.031-1.637-2.031
		c-1.195,0-1.72,1.135-1.816,2.031H208.296z"/>
	<path d="M215.153,70.443c-0.287,0.144-0.932,0.371-1.768,0.371c-1.864,0-3.095-1.326-3.095-3.322c0-2.007,1.326-3.477,3.333-3.477
		c0.729,0,1.314,0.215,1.565,0.347l-0.25,0.801c-0.275-0.155-0.705-0.335-1.338-0.335c-1.505,0-2.294,1.207-2.294,2.604
		c0,1.577,0.944,2.569,2.258,2.569c0.645,0,1.087-0.18,1.41-0.323L215.153,70.443z"/>
</g>
<g>
	<g>
		
			<line fill="none" stroke="#000000" stroke-width="0.75" stroke-miterlimit="10" x1="22.271" y1="86.184" x2="329.26" y2="86.184"/>
		<g>
			<path d="M17.744,86.184c2.13,0.791,4.771,2.139,6.41,3.567l-1.289-3.567l1.289-3.566C22.517,84.047,19.874,85.395,17.744,86.184z
				"/>
		</g>
		<g>
			<path d="M333.785,86.184c-2.129,0.791-4.771,2.139-6.408,3.567l1.29-3.567l-1.29-3.566
				C329.014,84.047,331.656,85.395,333.785,86.184z"/>
		</g>
	</g>
</g>
<g enable-background="new    ">
	<path d="M136.057,100.581l0.107,0.693l-1.362,0.478v3.524c0,0.92-0.442,1.016-1.971,0.992c-0.024-0.203-0.144-0.55-0.251-0.777
		c0.334,0.013,0.633,0.024,0.872,0.024c0.514,0,0.574,0,0.574-0.239v-3.25c-0.562,0.191-1.087,0.371-1.494,0.502
		c-0.012,0.107-0.072,0.168-0.155,0.203l-0.287-0.932c0.525-0.144,1.194-0.347,1.936-0.585v-2.832h-1.804V97.63h1.804V95.18
		l1.003,0.06c-0.012,0.096-0.072,0.144-0.227,0.168v2.222h1.326v0.753h-1.326v2.593L136.057,100.581z M143.274,104.822v0.741h-5.567
		v0.717h-0.777v-7.014c-0.287,0.454-0.585,0.872-0.908,1.219c-0.107-0.167-0.347-0.478-0.502-0.633
		c0.968-1.052,1.828-2.855,2.33-4.695l0.979,0.274c-0.036,0.084-0.12,0.132-0.263,0.132c-0.215,0.681-0.466,1.361-0.753,2.019h1.816
		c0.334-0.692,0.705-1.673,0.92-2.377l0.956,0.322c-0.036,0.071-0.131,0.119-0.263,0.119c-0.215,0.562-0.526,1.303-0.836,1.936
		h2.664v0.729h-2.604v1.672h2.282v0.705h-2.282v1.697h2.282v0.704h-2.282v1.732H143.274z M139.701,99.983v-1.672h-1.995v1.672
		H139.701z M139.701,102.385v-1.697h-1.995v1.697H139.701z M137.706,103.09v1.732h1.995v-1.732H137.706z"/>
	<path d="M146.104,100.354c-0.43-0.383-1.291-0.896-2.007-1.207l0.442-0.585c0.717,0.274,1.589,0.752,2.02,1.135L146.104,100.354z
		 M144.347,105.682c0.49-0.932,1.195-2.521,1.708-3.871l0.633,0.431c-0.454,1.254-1.076,2.735-1.529,3.632
		c0.048,0.071,0.071,0.132,0.071,0.191c0,0.035-0.012,0.083-0.036,0.119L144.347,105.682z M146.534,97.2
		c-0.395-0.406-1.219-0.968-1.912-1.314l0.466-0.573c0.693,0.322,1.517,0.848,1.936,1.242L146.534,97.2z M148.864,103.867
		c-0.048,0.083-0.131,0.119-0.251,0.107c-0.418,0.836-1.087,1.744-1.72,2.329c-0.144-0.131-0.418-0.334-0.598-0.441
		c0.609-0.526,1.254-1.422,1.649-2.294L148.864,103.867z M147.406,95.73h3.5v7.599h-3.5V95.73z M148.111,96.447v1.589h2.067v-1.589
		H148.111z M148.111,98.718v1.589h2.067v-1.589H148.111z M148.111,100.987v1.613h2.067v-1.613H148.111z M150.943,105.838
		c-0.275-0.489-0.873-1.302-1.374-1.876l0.597-0.37c0.502,0.562,1.123,1.338,1.398,1.816L150.943,105.838z M151.886,96.435
		l0.944,0.06c-0.012,0.071-0.084,0.132-0.227,0.155v6.702h-0.717V96.435z M154.013,95.18l0.979,0.06
		c-0.012,0.084-0.071,0.144-0.239,0.155v9.846c0,0.991-0.43,1.039-2.354,1.039c-0.036-0.203-0.144-0.55-0.251-0.776
		c0.43,0.012,0.836,0.023,1.135,0.023c0.633,0,0.729,0,0.729-0.286V95.18z"/>
	<path d="M158.778,95.694c-0.024,0.144-0.131,0.228-0.37,0.263c-0.096,1.387-0.215,4.553-0.215,6.32c0,1.78,0.884,2.641,2.39,2.641
		c1.458,0,2.939-0.729,4.301-2.27c0.119,0.19,0.394,0.573,0.538,0.704c-1.398,1.59-3.095,2.426-4.851,2.426
		c-2.174,0-3.285-1.255-3.285-3.513c0-1.505,0.107-5.209,0.191-6.679L158.778,95.694z"/>
	<path d="M173.591,97.798c-1.016,0.358-2.366,0.585-3.668,0.681c-0.502,2.736-1.23,5.46-2.187,7.467l-0.86-0.322
		c0.979-1.924,1.696-4.396,2.163-7.108c-0.239,0.012-1.84,0.023-2.199,0.012l-0.012-0.813c0.191,0.012,0.442,0.012,0.717,0.012
		c0.107,0,1.302,0,1.613-0.012c0.12-0.765,0.239-1.602,0.311-2.33l1.231,0.12c-0.012,0.131-0.179,0.227-0.347,0.238
		c-0.072,0.526-0.191,1.171-0.299,1.899c1.171-0.107,2.354-0.311,3.346-0.669L173.591,97.798z M176.769,105.755
		c-0.358,0.012-0.729,0.023-1.099,0.023c-1.123,0-2.187-0.084-2.832-0.263c-0.849-0.239-1.338-0.86-1.326-1.648
		c0.012-0.526,0.239-1.123,0.741-1.732l0.717,0.311c-0.418,0.489-0.622,0.955-0.622,1.326c0,0.943,0.908,1.183,3.083,1.183
		c0.442,0,0.896-0.012,1.338-0.048V105.755z M172.11,99.996c1.23-0.395,2.927-0.646,4.337-0.609v0.813
		c-1.35-0.036-2.915,0.155-4.134,0.537L172.11,99.996z"/>
	<path d="M180.782,99.96v3.907c0.932,1.421,2.64,1.421,4.791,1.421c1.291,0,2.808-0.035,3.74-0.095
		c-0.096,0.19-0.239,0.573-0.263,0.813c-0.824,0.035-2.139,0.06-3.321,0.06c-2.461,0-4.098,0-5.305-1.481
		c-0.585,0.525-1.218,1.063-1.732,1.469c0.012,0.108-0.023,0.156-0.107,0.191l-0.466-0.884c0.573-0.383,1.278-0.932,1.888-1.458
		v-3.178h-1.756V99.96H180.782z M179.002,95.479c0.8,0.514,1.732,1.303,2.139,1.888l-0.633,0.538
		c-0.395-0.598-1.302-1.41-2.103-1.948L179.002,95.479z M189.133,100.784h-3.178c0.501,1.589,1.541,2.652,3.202,3.143
		c-0.179,0.155-0.406,0.454-0.514,0.669c-1.625-0.562-2.665-1.648-3.262-3.273c-0.347,1.123-1.207,2.306-3.226,3.226
		c-0.107-0.18-0.358-0.454-0.538-0.598c2.163-0.896,2.868-2.091,3.095-3.166h-3.202v-0.74h3.286
		c0.012-0.144,0.012-0.287,0.012-0.419v-1.374h-2.903v-0.74h4.755l-0.609-0.275c0.406-0.549,0.92-1.445,1.195-2.055l0.956,0.358
		c-0.036,0.084-0.12,0.107-0.263,0.12c-0.311,0.549-0.824,1.338-1.242,1.852h2.079v0.74h-3.166v1.374c0,0.132,0,0.275-0.012,0.419
		h3.537V100.784z M183.494,97.51c-0.155-0.55-0.609-1.398-1.087-2.007l0.681-0.287c0.49,0.598,0.968,1.41,1.123,1.959L183.494,97.51
		z"/>
	<path d="M191.723,99.398c-0.454,0.753-0.956,1.422-1.458,1.995c-0.083-0.191-0.287-0.562-0.418-0.753
		c1.147-1.242,2.294-3.31,2.987-5.376l0.956,0.322c-0.048,0.084-0.131,0.119-0.275,0.107c-0.311,0.837-0.681,1.673-1.099,2.474
		l0.323,0.083c-0.024,0.072-0.083,0.132-0.239,0.144v7.922h-0.777V99.398z M193.324,97.438h7.885v0.682h-7.885V97.438z
		 M194.209,106.28v-3.835h6.177v3.799h-0.813v-0.562h-4.588v0.598H194.209z M200.278,99.111v0.669h-5.95v-0.669H200.278z
		 M194.328,101.453v-0.669h5.938v0.669H194.328z M200.063,95.766v0.669h-5.604v-0.669H200.063z M199.573,103.114h-4.588v1.899h4.588
		V103.114z"/>
	<path d="M211.005,96.483h2.043v0.692h-2.043v1.936h-6.774v-1.936h-2.055v-0.692h2.055v-1.23l0.992,0.06
		c-0.012,0.083-0.083,0.144-0.239,0.167v1.004h2.198V95.18l1.016,0.06c-0.012,0.084-0.083,0.144-0.239,0.168v1.075h2.271v-1.23
		l1.015,0.06c-0.012,0.083-0.071,0.144-0.239,0.167V96.483z M202.522,102.265v-2.354h10.18v2.354h-0.777v-1.685h-8.65v1.685H202.522
		z M211.471,101.955v2.568c0,0.789-0.275,0.873-2.15,0.873c-0.048-0.216-0.155-0.502-0.275-0.705
		c0.395,0.012,0.765,0.023,1.027,0.023c0.538,0,0.609-0.012,0.609-0.191v-1.888h-2.724v3.633h-0.788v-3.633h-2.497v2.761h-0.789
		v-3.441h3.286v-1.135l1.027,0.06c-0.012,0.084-0.083,0.144-0.239,0.167v0.908H211.471z M204.984,97.176v1.267h2.198v-1.267H204.984
		z M210.229,98.442v-1.267h-2.271v1.267H210.229z"/>
	<path d="M217.539,102.48l0.143,0.705c-1.183,0.49-2.413,0.979-3.214,1.291c0,0.095-0.06,0.167-0.131,0.19l-0.418-0.908
		c0.442-0.143,0.992-0.334,1.601-0.549v-4.206h-1.386v-0.765h1.386v-2.975l0.98,0.071c-0.012,0.072-0.072,0.132-0.227,0.155v2.748
		h1.267v0.765h-1.267v3.943L217.539,102.48z M217.12,104.607c0.98-0.274,2.497-0.776,3.955-1.255l0.12,0.682
		c-1.278,0.478-2.628,0.956-3.5,1.254c0,0.096-0.06,0.156-0.131,0.191L217.12,104.607z M222.545,97.714
		c0.06,1.673,0.179,3.237,0.382,4.528c0.49-0.968,0.872-2.067,1.159-3.238l0.944,0.228c-0.036,0.096-0.12,0.143-0.263,0.143
		c-0.394,1.482-0.932,2.832-1.637,4.003c0.287,1.326,0.669,2.15,1.135,2.15c0.25,0,0.382-0.537,0.43-1.804
		c0.144,0.179,0.395,0.37,0.574,0.454c-0.155,1.601-0.382,2.114-1.099,2.114s-1.231-0.788-1.601-2.079
		c-0.597,0.825-1.291,1.529-2.079,2.091c-0.107-0.155-0.37-0.394-0.549-0.525c0.944-0.621,1.744-1.481,2.401-2.509
		c-0.299-1.518-0.466-3.465-0.538-5.556h-4.241v-0.741h4.217c-0.024-0.585-0.036-1.171-0.036-1.768l1.015,0.06
		c-0.012,0.096-0.083,0.155-0.25,0.167c0,0.514,0,1.027,0.012,1.541h2.617v0.741H222.545z M217.873,99.052h3.07v3.549h-3.07V99.052z
		 M220.263,101.943v-2.234h-1.721v2.234H220.263z M223.429,95.157c0.573,0.334,1.266,0.836,1.625,1.171l-0.478,0.502
		c-0.347-0.347-1.04-0.885-1.601-1.243L223.429,95.157z"/>
</g>
<g enable-background="new    ">
	<path d="M98.054,114.853c0.406-0.598,1.135-1.1,2.091-1.1c1.518,0,2.533,1.136,2.533,2.855c0,1.638-1.003,3.131-2.748,3.131
		c-1.745,0-2.916-1.446-2.916-3.764c0-2.401,1.123-4.91,4.026-5.389c0.334-0.048,0.633-0.083,0.836-0.083l0.012,0.824
		c-2.485,0-3.668,1.804-3.871,3.524H98.054z M101.674,116.681c0-1.374-0.741-2.175-1.816-2.175c-1.051,0-1.852,1.027-1.852,1.696
		c0.012,1.638,0.705,2.761,1.948,2.761C100.993,118.964,101.674,118.031,101.674,116.681z"/>
	<path d="M103.609,115.152c0-3.131,1.219-4.647,2.891-4.647c1.697,0,2.736,1.601,2.736,4.527c0,3.106-1.087,4.708-2.868,4.708
		C104.743,119.74,103.609,118.138,103.609,115.152z M108.232,115.08c0-2.233-0.538-3.775-1.792-3.775
		c-1.063,0-1.816,1.422-1.816,3.775c0,2.354,0.657,3.848,1.78,3.848C107.73,118.927,108.232,117.207,108.232,115.08z"/>
	<path d="M111.708,114.136c0.406-0.753,1.147-1.207,2.163-1.207c1.542,0,2.628,1.326,2.628,3.334c0,2.365-1.445,3.477-2.795,3.477
		c-0.944,0-1.637-0.383-2.103-1.219h-0.036l-0.06,1.075h-0.86c0.024-0.43,0.047-1.087,0.047-1.613v-7.945h0.992v4.099H111.708z
		 M111.684,117.052c0,0.968,0.729,1.876,1.828,1.876c1.267,0,1.971-1.087,1.971-2.629c0-1.361-0.669-2.557-1.936-2.557
		c-1.135,0-1.864,1.063-1.864,2.02V117.052z"/>
	<path d="M122.901,113.085l-1.732,4.612c-0.776,2.114-1.326,3.333-2.139,4.098c-0.549,0.502-1.087,0.705-1.326,0.765l-0.275-0.836
		c1.518-0.562,2.103-2.211,2.103-2.342c0-0.06-0.024-0.155-0.072-0.275l-2.306-6.021h1.087l1.422,3.955
		c0.167,0.454,0.311,0.968,0.418,1.362h0.036c0.107-0.395,0.263-0.885,0.418-1.387l1.314-3.931H122.901z"/>
	<path d="M124.262,111.902l0.979-0.335v1.518h1.685v0.777h-1.685v3.763c0,0.825,0.251,1.278,0.884,1.278
		c0.299,0,0.502-0.035,0.669-0.095l0.06,0.765c-0.215,0.095-0.549,0.155-0.967,0.155c-1.577,0-1.625-1.435-1.625-2.127v-3.739
		h-1.004v-0.777h1.004V111.902z"/>
	<path d="M132.84,119.322c-0.37,0.179-1.051,0.406-2.043,0.406c-1.899,0-3.035-1.339-3.035-3.286c0-2.043,1.147-3.513,2.903-3.513
		c2.007,0,2.521,1.84,2.521,2.976c0,0.227-0.012,0.394-0.024,0.549h-4.433c0.012,1.805,1.04,2.485,2.21,2.485
		c0.813,0,1.302-0.167,1.708-0.334L132.84,119.322z M132.207,115.714c0.012-0.885-0.359-2.031-1.637-2.031
		c-1.195,0-1.72,1.135-1.816,2.031H132.207z"/>
	<path d="M134.463,120.135h-0.8l3.788-9.785h0.824L134.463,120.135z"/>
	<path d="M142.264,114.077c-0.239-0.155-0.681-0.383-1.267-0.383c-0.717,0-1.099,0.442-1.099,0.968c0,0.562,0.371,0.824,1.207,1.183
		c1.052,0.431,1.661,0.98,1.661,1.96c0,1.159-0.884,1.924-2.306,1.924c-0.645,0-1.266-0.18-1.708-0.442l0.275-0.765
		c0.347,0.203,0.908,0.442,1.47,0.442c0.872,0,1.302-0.467,1.302-1.052c0-0.609-0.347-0.944-1.207-1.29
		c-1.099-0.442-1.661-1.052-1.661-1.84c0-1.016,0.813-1.853,2.127-1.853c0.621,0,1.147,0.18,1.493,0.395L142.264,114.077z"/>
	<path d="M148.894,119.322c-0.37,0.179-1.051,0.406-2.043,0.406c-1.899,0-3.035-1.339-3.035-3.286c0-2.043,1.147-3.513,2.903-3.513
		c2.007,0,2.521,1.84,2.521,2.976c0,0.227-0.012,0.394-0.024,0.549h-4.433c0.012,1.805,1.04,2.485,2.21,2.485
		c0.813,0,1.302-0.167,1.708-0.334L148.894,119.322z M148.261,115.714c0.012-0.885-0.359-2.031-1.637-2.031
		c-1.195,0-1.72,1.135-1.816,2.031H148.261z"/>
	<path d="M155.118,119.357c-0.287,0.144-0.932,0.371-1.768,0.371c-1.864,0-3.095-1.326-3.095-3.322c0-2.007,1.326-3.477,3.333-3.477
		c0.729,0,1.314,0.215,1.565,0.347l-0.25,0.801c-0.275-0.155-0.705-0.335-1.338-0.335c-1.505,0-2.294,1.207-2.294,2.604
		c0,1.577,0.944,2.569,2.258,2.569c0.645,0,1.087-0.18,1.41-0.323L155.118,119.357z"/>
	<path d="M168.115,118.414l-0.526,0.537l-3.31-3.31l-3.297,3.31l-0.526-0.537l3.298-3.298l-3.298-3.298l0.526-0.537l3.297,3.31
		l3.31-3.31l0.526,0.525l-3.298,3.31L168.115,118.414z"/>
	<path d="M175.281,114.853c-0.968-0.466-1.398-1.255-1.398-2.02c0-1.386,1.087-2.329,2.533-2.329c1.625,0,2.401,1.099,2.401,2.174
		c0,0.765-0.406,1.602-1.47,2.115v0.048c1.099,0.466,1.78,1.267,1.78,2.342c0,1.517-1.243,2.557-2.82,2.557
		c-1.708,0-2.76-1.088-2.76-2.378c0-1.159,0.693-1.995,1.732-2.461V114.853z M178.113,117.291c0-1.123-0.752-1.697-1.936-2.079
		c-1.051,0.347-1.613,1.111-1.613,1.995c0,1.016,0.681,1.792,1.756,1.792C177.468,118.999,178.113,118.222,178.113,117.291z
		 M174.827,112.738c-0.012,0.956,0.669,1.482,1.661,1.78c0.777-0.298,1.362-0.907,1.362-1.756c0-0.753-0.418-1.529-1.47-1.529
		C175.341,111.233,174.827,111.962,174.827,112.738z"/>
	<path d="M180.095,115.152c0-3.131,1.219-4.647,2.891-4.647c1.697,0,2.736,1.601,2.736,4.527c0,3.106-1.087,4.708-2.868,4.708
		C181.23,119.74,180.095,118.138,180.095,115.152z M184.719,115.08c0-2.233-0.538-3.775-1.792-3.775
		c-1.063,0-1.816,1.422-1.816,3.775c0,2.354,0.657,3.848,1.78,3.848C184.217,118.927,184.719,117.207,184.719,115.08z"/>
	<path d="M190.536,113.288c0,1.864-0.92,2.76-1.983,2.76c-1.027,0-1.936-0.872-1.936-2.64c0-1.793,0.932-2.725,1.996-2.725
		C189.819,110.683,190.536,111.663,190.536,113.288z M187.429,113.408c0,1.087,0.395,2.019,1.147,2.019
		c0.813,0,1.147-0.943,1.147-2.079c0-1.075-0.298-2.043-1.147-2.043C187.764,111.304,187.429,112.38,187.429,113.408z
		 M189.078,119.763h-0.681l5.114-9.104h0.681L189.078,119.763z M195.996,116.944c0,1.852-0.92,2.748-1.983,2.748
		c-1.028,0-1.936-0.872-1.936-2.641c0-1.792,0.932-2.736,1.995-2.736C195.279,114.315,195.996,115.307,195.996,116.944z
		 M192.889,117.004c0,1.135,0.395,2.055,1.147,2.055c0.824,0,1.146-0.932,1.146-2.078c0-1.063-0.287-2.043-1.135-2.043
		C193.248,114.937,192.889,115.976,192.889,117.004z"/>
	<path d="M206.71,115.009h-6.965v-0.717h6.965V115.009z M206.71,117.625h-6.965v-0.717h6.965V117.625z"/>
	<path d="M215.132,119.596h-0.944v-2.509h-3.907v-0.634l3.823-5.807h1.028v5.676h1.219v0.765h-1.219V119.596z M211.284,116.323
		h2.903v-3.179c0-0.489,0.024-0.968,0.048-1.434h-0.048c-0.275,0.55-0.49,0.933-0.717,1.339l-2.187,3.249V116.323z"/>
	<path d="M218.87,114.853c-0.968-0.466-1.398-1.255-1.398-2.02c0-1.386,1.087-2.329,2.533-2.329c1.625,0,2.401,1.099,2.401,2.174
		c0,0.765-0.406,1.602-1.47,2.115v0.048c1.099,0.466,1.78,1.267,1.78,2.342c0,1.517-1.243,2.557-2.82,2.557
		c-1.708,0-2.76-1.088-2.76-2.378c0-1.159,0.693-1.995,1.732-2.461V114.853z M221.701,117.291c0-1.123-0.752-1.697-1.936-2.079
		c-1.051,0.347-1.613,1.111-1.613,1.995c0,1.016,0.681,1.792,1.756,1.792C221.056,118.999,221.701,118.222,221.701,117.291z
		 M218.416,112.738c-0.012,0.956,0.669,1.482,1.661,1.78c0.777-0.298,1.362-0.907,1.362-1.756c0-0.753-0.418-1.529-1.47-1.529
		C218.929,111.233,218.416,111.962,218.416,112.738z"/>
	<path d="M225.201,114.136c0.406-0.753,1.147-1.207,2.163-1.207c1.542,0,2.628,1.326,2.628,3.334c0,2.365-1.445,3.477-2.795,3.477
		c-0.944,0-1.637-0.383-2.103-1.219h-0.036l-0.06,1.075h-0.86c0.024-0.43,0.047-1.087,0.047-1.613v-7.945h0.992v4.099H225.201z
		 M225.177,117.052c0,0.968,0.729,1.876,1.828,1.876c1.267,0,1.971-1.087,1.971-2.629c0-1.361-0.669-2.557-1.936-2.557
		c-1.135,0-1.864,1.063-1.864,2.02V117.052z"/>
	<path d="M236.394,113.085l-1.732,4.612c-0.776,2.114-1.326,3.333-2.139,4.098c-0.549,0.502-1.087,0.705-1.326,0.765l-0.275-0.836
		c1.518-0.562,2.103-2.211,2.103-2.342c0-0.06-0.024-0.155-0.072-0.275l-2.306-6.021h1.087l1.422,3.955
		c0.167,0.454,0.311,0.968,0.418,1.362h0.036c0.107-0.395,0.263-0.885,0.418-1.387l1.314-3.931H236.394z"/>
	<path d="M237.756,111.902l0.979-0.335v1.518h1.685v0.777h-1.685v3.763c0,0.825,0.251,1.278,0.884,1.278
		c0.299,0,0.502-0.035,0.669-0.095l0.06,0.765c-0.215,0.095-0.549,0.155-0.967,0.155c-1.577,0-1.625-1.435-1.625-2.127v-3.739
		h-1.004v-0.777h1.004V111.902z"/>
	<path d="M246.333,119.322c-0.37,0.179-1.051,0.406-2.043,0.406c-1.899,0-3.035-1.339-3.035-3.286c0-2.043,1.147-3.513,2.903-3.513
		c2.007,0,2.521,1.84,2.521,2.976c0,0.227-0.012,0.394-0.024,0.549h-4.433c0.012,1.805,1.04,2.485,2.21,2.485
		c0.813,0,1.302-0.167,1.708-0.334L246.333,119.322z M245.7,115.714c0.012-0.885-0.359-2.031-1.637-2.031
		c-1.195,0-1.72,1.135-1.816,2.031H245.7z"/>
	<path d="M247.956,120.135h-0.8l3.788-9.785h0.824L247.956,120.135z"/>
	<path d="M255.758,114.077c-0.239-0.155-0.681-0.383-1.267-0.383c-0.717,0-1.099,0.442-1.099,0.968c0,0.562,0.371,0.824,1.207,1.183
		c1.052,0.431,1.661,0.98,1.661,1.96c0,1.159-0.884,1.924-2.306,1.924c-0.645,0-1.266-0.18-1.708-0.442l0.275-0.765
		c0.347,0.203,0.908,0.442,1.47,0.442c0.872,0,1.302-0.467,1.302-1.052c0-0.609-0.347-0.944-1.207-1.29
		c-1.099-0.442-1.661-1.052-1.661-1.84c0-1.016,0.813-1.853,2.127-1.853c0.621,0,1.147,0.18,1.493,0.395L255.758,114.077z"/>
	<path d="M262.387,119.322c-0.37,0.179-1.051,0.406-2.043,0.406c-1.899,0-3.035-1.339-3.035-3.286c0-2.043,1.147-3.513,2.903-3.513
		c2.007,0,2.521,1.84,2.521,2.976c0,0.227-0.012,0.394-0.024,0.549h-4.433c0.012,1.805,1.04,2.485,2.21,2.485
		c0.813,0,1.302-0.167,1.708-0.334L262.387,119.322z M261.755,115.714c0.012-0.885-0.359-2.031-1.637-2.031
		c-1.195,0-1.72,1.135-1.816,2.031H261.755z"/>
	<path d="M268.611,119.357c-0.287,0.144-0.932,0.371-1.768,0.371c-1.864,0-3.095-1.326-3.095-3.322c0-2.007,1.326-3.477,3.333-3.477
		c0.729,0,1.314,0.215,1.565,0.347l-0.25,0.801c-0.275-0.155-0.705-0.335-1.338-0.335c-1.505,0-2.294,1.207-2.294,2.604
		c0,1.577,0.944,2.569,2.258,2.569c0.645,0,1.087-0.18,1.41-0.323L268.611,119.357z"/>
</g>
<g>
	<g>
		
			<line fill="none" stroke="#000000" stroke-width="0.75" stroke-miterlimit="10" x1="252.498" y1="37.272" x2="329.26" y2="37.272"/>
		<g>
			<path d="M247.972,37.272c2.13,0.79,4.771,2.139,6.41,3.566l-1.29-3.566l1.29-3.566C252.744,35.134,250.102,36.482,247.972,37.272
				z"/>
		</g>
		<g>
			<path d="M333.785,37.272c-2.129,0.79-4.771,2.139-6.408,3.566l1.29-3.566l-1.29-3.566
				C329.014,35.134,331.656,36.482,333.785,37.272z"/>
		</g>
	</g>
</g>
<g enable-background="new    ">
	<path d="M259.563,50.778v3.907c0.698,1.422,1.979,1.422,3.591,1.422c0.968,0,2.105-0.036,2.804-0.096
		c-0.072,0.191-0.179,0.574-0.197,0.813c-0.618,0.036-1.604,0.06-2.49,0.06c-1.845,0-3.072,0-3.977-1.481
		c-0.438,0.526-0.914,1.063-1.299,1.47c0.009,0.107-0.018,0.155-0.081,0.191l-0.349-0.884c0.43-0.382,0.958-0.932,1.415-1.458
		v-3.178h-1.316v-0.765H259.563z M258.228,46.298c0.6,0.514,1.29,1.302,1.604,1.888l-0.475,0.538
		c-0.296-0.597-0.977-1.41-1.577-1.947L258.228,46.298z M261.372,54.936v0.526h-0.591v-8.172h1.478
		c0.134-0.43,0.26-0.956,0.332-1.338l0.806,0.215c-0.027,0.083-0.081,0.12-0.188,0.131c-0.09,0.275-0.206,0.645-0.332,0.992h2.087
		v3.142h-3.592v1.159h3.959v3.859h-0.591v-0.514H261.372z M264.373,47.982h-3v1.756h3V47.982z M264.74,52.283h-3.368v1.959h3.368
		V52.283z"/>
	<path d="M270.08,48.353l0.144-0.012l0.313,0.024c0,0.072-0.009,0.191-0.009,0.287c-0.072,5.508-0.144,7.264-0.403,7.766
		c-0.197,0.371-0.376,0.454-1.03,0.454c-0.179,0-0.376-0.012-0.573-0.024c-0.018-0.239-0.072-0.573-0.17-0.8
		c0.412,0.047,0.788,0.047,0.94,0.047c0.144,0,0.224-0.036,0.305-0.191c0.188-0.347,0.278-1.995,0.34-6.762h-1.469
		c-0.081,3.178-0.368,6.141-1.496,7.957c-0.099-0.179-0.313-0.406-0.466-0.526c1.039-1.625,1.299-4.373,1.371-7.431h-1.227v-0.789
		h1.245c0.009-0.765,0.009-1.553,0.009-2.342l0.824,0.06c-0.018,0.107-0.081,0.179-0.224,0.203c0,0.693-0.009,1.386-0.018,2.079
		H270.08z M271.379,47.433h3.045v9.295h-0.6v-0.8h-1.863v0.896h-0.583V47.433z M271.962,55.151h1.863v-6.941h-1.863V55.151z"/>
	<path d="M280.196,48.174c-0.036,0.107-0.107,0.191-0.224,0.191c-0.322,3.716-1.254,6.954-2.741,6.954
		c-0.752,0-1.433-1.003-1.433-2.891c0-2.868,1.675-5.269,4.031-5.269c2.588,0,3.708,2.187,3.708,4.516
		c0,2.844-1.236,4.217-3.404,4.887c-0.081-0.191-0.233-0.514-0.376-0.729c2.06-0.525,3.117-1.864,3.117-4.122
		c0-1.971-0.95-3.763-3.045-3.763c-0.09,0-0.188,0.012-0.269,0.024L280.196,48.174z M279.336,48.018
		c-1.81,0.298-2.929,2.294-2.929,4.385c0,1.278,0.412,2.079,0.842,2.079C278.332,54.482,279.112,51.292,279.336,48.018z"/>
	<path d="M286.441,50.778v3.907c0.698,1.422,1.979,1.422,3.592,1.422c0.968,0,2.104-0.036,2.804-0.096
		c-0.072,0.191-0.18,0.574-0.197,0.813c-0.618,0.036-1.604,0.06-2.49,0.06c-1.846,0-3.072,0-3.977-1.481
		c-0.439,0.526-0.914,1.063-1.299,1.47c0.009,0.107-0.018,0.155-0.081,0.191l-0.349-0.884c0.43-0.382,0.958-0.932,1.414-1.458
		v-3.178h-1.316v-0.765H286.441z M285.106,46.298c0.6,0.514,1.299,1.302,1.604,1.888l-0.475,0.538
		c-0.296-0.597-0.977-1.41-1.576-1.947L285.106,46.298z M292.701,51.602h-2.383c0.377,1.589,1.156,2.652,2.4,3.143
		c-0.135,0.155-0.305,0.454-0.385,0.669c-1.219-0.562-1.998-1.649-2.445-3.274c-0.26,1.123-0.904,2.306-2.418,3.226
		c-0.081-0.179-0.27-0.454-0.403-0.598c1.621-0.896,2.149-2.091,2.319-3.166h-2.4v-0.741h2.463c0.01-0.143,0.01-0.287,0.01-0.418
		V49.07h-2.177v-0.741h3.565l-0.457-0.275c0.305-0.55,0.689-1.446,0.896-2.055l0.716,0.358c-0.026,0.084-0.089,0.108-0.196,0.12
		c-0.233,0.55-0.618,1.338-0.932,1.852h1.559v0.741h-2.374v1.374c0,0.131,0,0.275-0.009,0.418h2.651V51.602z M288.474,48.329
		c-0.116-0.55-0.457-1.398-0.815-2.007l0.511-0.287c0.367,0.597,0.726,1.41,0.842,1.959L288.474,48.329z"/>
	<path d="M294.648,50.217c-0.341,0.752-0.717,1.422-1.093,1.995c-0.063-0.191-0.215-0.562-0.313-0.752
		c0.86-1.243,1.72-3.31,2.239-5.376l0.717,0.322c-0.036,0.084-0.1,0.12-0.207,0.108c-0.232,0.836-0.51,1.672-0.823,2.473
		l0.241,0.083c-0.018,0.072-0.063,0.131-0.179,0.143v7.921h-0.582V50.217z M295.848,48.257h5.911v0.681h-5.911V48.257z
		 M296.51,57.098v-3.835h4.631v3.799h-0.608v-0.562h-3.439v0.598H296.51z M301.061,49.93v0.669H296.6V49.93H301.061z M296.6,52.271
		v-0.669h4.452v0.669H296.6z M300.9,46.584v0.669h-4.201v-0.669H300.9z M300.532,53.932h-3.439v1.899h3.439V53.932z"/>
	<path d="M304.306,50.778v3.931c0.698,1.422,1.979,1.422,3.654,1.422c0.977,0,2.104-0.024,2.804-0.083
		c-0.072,0.179-0.171,0.549-0.197,0.789c-0.609,0.023-1.576,0.047-2.463,0.047c-1.953,0-3.171,0-4.058-1.481
		c-0.439,0.538-0.887,1.063-1.272,1.47c0.01,0.096-0.018,0.155-0.08,0.191l-0.341-0.848c0.412-0.394,0.923-0.908,1.371-1.446v-3.226
		h-1.281v-0.765H304.306z M303.016,46.298c0.573,0.562,1.228,1.398,1.505,2.007l-0.483,0.514c-0.278-0.621-0.905-1.481-1.479-2.079
		L303.016,46.298z M305.811,48.83v0.681c0,1.637-0.107,3.979-0.833,5.568c-0.099-0.132-0.35-0.323-0.484-0.395
		c0.69-1.517,0.762-3.632,0.762-5.185v-3.035h5.088v2.365H305.811z M310.414,50.945h-1.962v0.884h1.729v0.609h-1.729v0.932h2.123
		v0.621h-2.123v1.553h-0.582v-1.553h-2.123v-0.621h2.123v-0.932h-1.666v-0.609h1.666v-0.884h-1.89v-0.621h1.138
		c-0.099-0.358-0.305-0.813-0.52-1.159l0.457-0.239c0.241,0.382,0.483,0.908,0.573,1.267l-0.225,0.131h1.415l-0.143-0.083
		c0.196-0.371,0.438-0.968,0.563-1.362l0.646,0.311c-0.027,0.071-0.081,0.107-0.18,0.107c-0.134,0.287-0.34,0.705-0.528,1.027h1.236
		V50.945z M309.76,47.098h-3.949v1.111h3.949V47.098z"/>
	<path d="M313.954,50.24l0.35,0.155c-0.009,0.06-0.027,0.12-0.063,0.143c-0.162,1.661-0.448,3.011-0.86,4.098
		c0.923,1.111,2.203,1.362,3.727,1.374c0.349,0,2.194,0,2.633-0.012c-0.099,0.191-0.206,0.549-0.242,0.776h-2.4
		c-1.666,0-3.019-0.287-4.003-1.469c-0.377,0.788-0.824,1.397-1.344,1.852c-0.09-0.179-0.322-0.466-0.448-0.573
		c0.537-0.442,1.003-1.063,1.38-1.864c-0.377-0.633-0.69-1.434-0.932-2.473l0.475-0.263c0.188,0.836,0.43,1.505,0.734,2.043
		c0.305-0.836,0.52-1.84,0.663-3.035h-1.335l-0.232,0.538l-0.547-0.215c0.52-1.171,1.155-2.712,1.586-3.799h-1.738v-0.729h2.105
		c0.063-0.036,0.089-0.036,0.116-0.036c0.08,0.036,0.161,0.072,0.394,0.227c-0.018,0.048-0.054,0.107-0.08,0.143
		c-0.305,0.777-0.797,1.983-1.29,3.143h1.236L313.954,50.24z M319.633,53.753v0.752h-5.32v-0.752h0.771v-4.588l0.743,0.071
		c-0.009,0.072-0.054,0.132-0.17,0.156v4.361h1.2v-6.32c-0.708,0.155-1.46,0.298-2.159,0.394c-0.026-0.179-0.107-0.478-0.179-0.657
		c1.567-0.239,3.395-0.657,4.371-1.171l0.52,0.669c-0.027,0.036-0.045,0.036-0.188,0.036c-0.43,0.191-0.985,0.382-1.604,0.538
		c-0.009,0.072-0.063,0.12-0.17,0.144v2.64h2.033v0.717h-2.033v3.011H319.633z"/>
</g>
<g enable-background="new    ">
	<path d="M279.666,65.939c-0.968-0.466-1.398-1.255-1.398-2.02c0-1.386,1.087-2.329,2.533-2.329c1.625,0,2.401,1.099,2.401,2.174
		c0,0.765-0.406,1.602-1.47,2.115v0.048c1.099,0.466,1.78,1.267,1.78,2.342c0,1.517-1.243,2.557-2.82,2.557
		c-1.708,0-2.76-1.088-2.76-2.378c0-1.159,0.693-1.995,1.732-2.461V65.939z M282.497,68.377c0-1.123-0.752-1.697-1.936-2.079
		c-1.051,0.347-1.613,1.111-1.613,1.995c0,1.016,0.681,1.792,1.756,1.792C281.852,70.085,282.497,69.308,282.497,68.377z
		 M279.212,63.824c-0.012,0.956,0.669,1.482,1.661,1.78c0.777-0.298,1.362-0.907,1.362-1.756c0-0.753-0.418-1.529-1.47-1.529
		C279.725,62.319,279.212,63.048,279.212,63.824z"/>
	<path d="M293.846,70.682h-0.979v-3.764c0-1.267-0.455-2.079-1.434-2.079c-0.801,0-1.529,0.753-1.529,1.745v4.098h-0.98v-4.015
		c0-1.039-0.441-1.828-1.361-1.828c-0.85,0-1.602,0.837-1.602,1.853v3.99h-0.98v-4.839c0-0.669-0.023-1.146-0.047-1.685h0.872
		l0.06,1.052h0.036c0.358-0.634,0.956-1.195,1.983-1.195c0.848,0,1.505,0.526,1.779,1.303h0.024
		c0.431-0.776,1.087-1.303,2.091-1.303c0.801,0,2.066,0.514,2.066,2.748V70.682z"/>
	<path d="M298.815,65.163c-0.238-0.155-0.682-0.383-1.267-0.383c-0.717,0-1.099,0.442-1.099,0.968c0,0.562,0.37,0.824,1.207,1.183
		c1.051,0.431,1.66,0.98,1.66,1.96c0,1.159-0.885,1.924-2.307,1.924c-0.645,0-1.266-0.18-1.708-0.442l0.274-0.765
		c0.348,0.203,0.908,0.442,1.471,0.442c0.871,0,1.302-0.467,1.302-1.052c0-0.609-0.347-0.944-1.207-1.29
		c-1.099-0.442-1.661-1.052-1.661-1.84c0-1.016,0.813-1.853,2.127-1.853c0.621,0,1.147,0.18,1.494,0.395L298.815,65.163z"/>
</g>
</svg>
