<?xml version="1.0" encoding="utf-8"?>
<!-- Generator: Adobe Illustrator 16.0.0, SVG Export Plug-In . SVG Version: 6.00 Build 0)  -->
<!DOCTYPE svg PUBLIC "-//W3C//DTD SVG 1.1//EN" "http://www.w3.org/Graphics/SVG/1.1/DTD/svg11.dtd">
<svg version="1.1" id="レイヤー_1" xmlns="http://www.w3.org/2000/svg" xmlns:xlink="http://www.w3.org/1999/xlink" x="0px"
	 y="0px" width="566.93px" height="283.464px" viewBox="0 0 566.93 283.464" enable-background="new 0 0 566.93 283.464"
	 xml:space="preserve">
<g enable-background="new    ">
	<path d="M61.445,63.108c-0.263-0.167-0.836-0.418-1.601-0.418c-1.266,0-1.744,0.776-1.744,1.434c0,0.896,0.55,1.351,1.768,1.864
		c1.47,0.621,2.223,1.374,2.223,2.676c0,1.446-1.052,2.558-3.011,2.558c-0.824,0-1.72-0.251-2.174-0.574l0.275-0.824
		c0.49,0.322,1.219,0.562,1.959,0.562c1.219,0,1.936-0.657,1.936-1.637c0-0.896-0.49-1.445-1.673-1.924
		c-1.374-0.514-2.306-1.313-2.306-2.568c0-1.386,1.123-2.401,2.784-2.401c0.86,0,1.517,0.215,1.864,0.43L61.445,63.108z"/>
	<path d="M69.007,62.833h-2.688v8.256h-0.991v-8.256h-2.676v-0.836h6.356V62.833z"/>
</g>
<g enable-background="new    ">
	<path d="M98.232,66.645c0-3.131,1.219-4.647,2.891-4.647c1.697,0,2.736,1.601,2.736,4.527c0,3.106-1.087,4.708-2.868,4.708
		C99.366,71.233,98.232,69.631,98.232,66.645z M102.855,66.573c0-2.233-0.538-3.775-1.792-3.775c-1.063,0-1.816,1.422-1.816,3.775
		c0,2.354,0.657,3.848,1.78,3.848C102.353,70.42,102.855,68.7,102.855,66.573z"/>
</g>
<g enable-background="new    ">
	<path d="M138.515,71.089v-8.017h-0.024l-1.47,0.848l-0.239-0.74l1.852-1.04h0.848v8.949H138.515z"/>
</g>
<g enable-background="new    ">
	<path d="M178.942,71.089h-5.293V70.48l0.872-0.92c2.127-2.15,3.202-3.453,3.202-4.91c0-0.956-0.418-1.84-1.708-1.84
		c-0.717,0-1.362,0.394-1.792,0.74l-0.334-0.692c0.55-0.49,1.362-0.873,2.318-0.873c1.804,0,2.521,1.314,2.521,2.545
		c0,1.685-1.183,3.118-3.035,4.982l-0.705,0.741v0.023h3.955V71.089z"/>
</g>
<g enable-background="new    ">
	<path d="M214.47,66.25c1.051,0.18,1.948,1.027,1.948,2.318c0,1.421-1.028,2.664-3.035,2.664c-0.896,0-1.708-0.287-2.115-0.573
		l0.298-0.765c0.323,0.215,1.04,0.537,1.828,0.537c1.505,0,1.995-1.052,1.995-1.876c0-1.313-1.111-1.911-2.282-1.911h-0.585v-0.741
		h0.585c0.86,0,1.971-0.537,1.971-1.66c0-0.777-0.466-1.446-1.541-1.446c-0.657,0-1.279,0.323-1.637,0.586l-0.298-0.729
		c0.43-0.335,1.266-0.67,2.126-0.67c1.637,0,2.366,1.04,2.366,2.115c0,0.92-0.585,1.744-1.625,2.114V66.25z"/>
</g>
<g enable-background="new    ">
	<path d="M253.464,71.089h-0.944v-2.509h-3.907v-0.634l3.823-5.807h1.028v5.676h1.219v0.765h-1.219V71.089z M249.616,67.816h2.903
		v-3.179c0-0.489,0.024-0.968,0.048-1.434h-0.048c-0.275,0.55-0.49,0.933-0.717,1.339l-2.187,3.249V67.816z"/>
</g>
<g enable-background="new    ">
	<path d="M291.585,62.14v0.825h-3.214L288,65.498c0.191-0.023,0.383-0.048,0.693-0.048c1.59,0,3.012,0.944,3.012,2.748
		c0,1.769-1.314,3.035-3.083,3.035c-0.896,0-1.649-0.263-2.056-0.526l0.287-0.776c0.334,0.228,0.992,0.502,1.769,0.502
		c1.123,0,2.091-0.824,2.079-2.114c0-1.231-0.789-2.091-2.461-2.091c-0.479,0-0.85,0.035-1.147,0.083l0.562-4.17H291.585z"/>
</g>
<g enable-background="new    ">
	<path d="M325.189,66.346c0.406-0.598,1.135-1.1,2.09-1.1c1.518,0,2.533,1.136,2.533,2.855c0,1.638-1.004,3.131-2.748,3.131
		s-2.915-1.446-2.915-3.764c0-2.401,1.123-4.91,4.026-5.389c0.334-0.048,0.633-0.083,0.836-0.083l0.013,0.824
		c-2.485,0-3.668,1.804-3.871,3.524H325.189z M328.808,68.174c0-1.374-0.74-2.175-1.815-2.175c-1.052,0-1.853,1.027-1.853,1.696
		c0.013,1.638,0.705,2.761,1.948,2.761C328.128,70.457,328.808,69.524,328.808,68.174z"/>
</g>
<g enable-background="new    ">
	<path d="M362.091,62.14h5.245v0.634l-3.74,8.315h-1.016l3.74-8.101v-0.023h-4.229V62.14z"/>
</g>
<g enable-background="new    ">
	<path d="M394.634,62.105c0.525-0.096,1.219-0.18,2.067-0.18c2.938,0,3.178,1.888,3.178,2.604c0,2.139-1.709,2.903-3.322,2.903
		c-0.346,0-0.656-0.012-0.932-0.083v3.739h-0.991V62.105z M395.625,66.525c0.252,0.072,0.574,0.096,0.956,0.096
		c1.434,0,2.306-0.717,2.306-2.019c0-1.303-0.932-1.876-2.174-1.876c-0.502,0-0.873,0.048-1.088,0.096V66.525z"/>
	<path d="M407.954,71.089h-1.052l-0.979-2.951h-3.167l-0.956,2.951h-1.016l3.012-9.104h1.146L407.954,71.089z M405.72,67.35
		l-0.896-2.7c-0.191-0.622-0.347-1.195-0.467-1.732h-0.035c-0.119,0.549-0.287,1.123-0.454,1.696l-0.908,2.736H405.72z"/>
</g>
<g enable-background="new    ">
	<path d="M437.685,63.108c-0.262-0.167-0.836-0.418-1.601-0.418c-1.267,0-1.744,0.776-1.744,1.434c0,0.896,0.55,1.351,1.769,1.864
		c1.469,0.621,2.223,1.374,2.223,2.676c0,1.446-1.053,2.558-3.012,2.558c-0.824,0-1.721-0.251-2.174-0.574l0.274-0.824
		c0.489,0.322,1.219,0.562,1.96,0.562c1.219,0,1.936-0.657,1.936-1.637c0-0.896-0.49-1.445-1.674-1.924
		c-1.373-0.514-2.305-1.313-2.305-2.568c0-1.386,1.123-2.401,2.783-2.401c0.86,0,1.518,0.215,1.863,0.43L437.685,63.108z"/>
	<path d="M439.92,62.105c0.525-0.096,1.219-0.18,2.066-0.18c2.939,0,3.178,1.888,3.178,2.604c0,2.139-1.708,2.903-3.321,2.903
		c-0.347,0-0.657-0.012-0.932-0.083v3.739h-0.991V62.105z M440.911,66.525c0.251,0.072,0.573,0.096,0.956,0.096
		c1.434,0,2.306-0.717,2.306-2.019c0-1.303-0.933-1.876-2.175-1.876c-0.502,0-0.872,0.048-1.087,0.096V66.525z"/>
</g>
<g enable-background="new    ">
	<path d="M204.103,13.632h-3.942l0.203,0.06c-0.012,0.071-0.108,0.132-0.239,0.144c-0.311,2.162-1.29,4.313-3.692,5.52
		c-0.131-0.155-0.442-0.43-0.645-0.585c2.354-1.171,3.178-2.987,3.453-5.138h-4.564v-0.801h9.426V13.632z M202.347,10.371h-6.631
		V9.57h6.631V10.371z M202.503,8.614c0.49,0.514,1.039,1.326,1.314,1.888l-0.478,0.323c-0.25-0.55-0.824-1.398-1.302-1.888
		L202.503,8.614z M203.912,8.208c0.49,0.515,1.063,1.326,1.35,1.876l-0.49,0.299c-0.251-0.525-0.849-1.374-1.314-1.863
		L203.912,8.208z"/>
	<path d="M206.109,13.513h9.976v0.848h-9.522c-0.072,0.12-0.227,0.203-0.382,0.228L206.109,13.513z"/>
	<path d="M226.346,10.956c-0.012,0.061-0.072,0.107-0.144,0.132c-0.442,1.481-1.04,2.844-1.756,3.955
		c0.514,0.298,1.099,0.669,1.541,0.991l-0.501,0.788c-0.43-0.334-1.04-0.729-1.542-1.039c-1.099,1.529-2.509,2.76-4.313,3.632
		c-0.131-0.203-0.442-0.489-0.657-0.621c1.745-0.813,3.143-2.02,4.229-3.44c-0.884-0.49-1.756-0.908-2.64-1.243l0.454-0.669
		c0.873,0.311,1.769,0.717,2.688,1.207c0.621-0.979,1.111-2.02,1.446-3.166h-4.05c-0.729,1.219-1.708,2.425-2.76,3.285
		c-0.155-0.144-0.478-0.406-0.681-0.537c1.565-1.195,3.046-3.346,3.763-5.389l1.135,0.263c-0.048,0.132-0.167,0.167-0.323,0.155
		c-0.167,0.395-0.442,0.979-0.669,1.422h3.967l0.167-0.048L226.346,10.956z"/>
	<path d="M235.425,18.053c0.478-0.013,1.756-0.061,2.509-0.18c0.012,0.263,0.024,0.598,0.047,0.86
		c-0.788,0.084-1.983,0.132-2.473,0.132h-2.987c-1.804,0-2.676-0.789-2.676-2.497V9.403l1.171,0.071
		c-0.024,0.12-0.107,0.191-0.322,0.216v3.895c1.828-0.573,4.373-1.529,5.926-2.365l0.609,0.824
		c-0.036,0.023-0.096,0.035-0.144,0.035c-0.06,0-0.107-0.012-0.167-0.035c-1.446,0.729-4.17,1.732-6.225,2.354v1.995
		c0,1.207,0.585,1.661,1.816,1.661H235.425z M236.548,9.056c0.55,0.49,1.147,1.23,1.481,1.757l-0.454,0.346
		c-0.335-0.525-0.956-1.302-1.458-1.756L236.548,9.056z M238.017,8.339c0.538,0.49,1.147,1.219,1.481,1.744l-0.454,0.347
		c-0.334-0.525-0.968-1.29-1.458-1.744L238.017,8.339z"/>
	<path d="M241.218,12.139c0.358,0.729,0.752,1.875,0.896,2.568l-0.669,0.179c-0.144-0.692-0.514-1.779-0.872-2.544L241.218,12.139z
		 M248.35,12.222c-0.024,0.107-0.144,0.132-0.251,0.12c-0.932,3.488-2.688,5.627-5.58,6.798c-0.096-0.144-0.311-0.418-0.466-0.55
		c2.855-1.123,4.492-3.082,5.364-6.643L248.35,12.222z M244.121,11.565c0.251,0.801,0.478,1.948,0.562,2.713l-0.705,0.131
		c-0.072-0.765-0.299-1.863-0.562-2.688L244.121,11.565z"/>
	<path d="M257.059,15.292c-1.219-0.656-2.892-1.434-4.194-1.947v5.974h-0.896V8.937l1.207,0.071
		c-0.012,0.132-0.107,0.215-0.311,0.251v3.489l0.179-0.251c1.398,0.514,3.25,1.338,4.492,1.995L257.059,15.292z"/>
</g>
<g enable-background="new    ">
	<path d="M208.385,35.982c-0.849-1.111-1.769-2.844-1.769-5.483c0-2.665,0.908-4.397,1.769-5.532h0.812
		c-0.991,1.326-1.708,3.082-1.708,5.544c0,2.401,0.741,4.122,1.708,5.472H208.385z"/>
	<path d="M215.003,25.396v0.825h-3.214l-0.371,2.532c0.191-0.023,0.382-0.048,0.693-0.048c1.589,0,3.011,0.944,3.011,2.748
		c0,1.769-1.314,3.035-3.083,3.035c-0.896,0-1.649-0.263-2.055-0.526l0.287-0.776c0.334,0.228,0.992,0.502,1.769,0.502
		c1.123,0,2.091-0.824,2.079-2.114c0-1.231-0.789-2.091-2.461-2.091c-0.478,0-0.849,0.035-1.147,0.083l0.562-4.17H215.003z"/>
	<path d="M216.806,34.883h-0.8l3.788-9.785h0.824L216.806,34.883z"/>
	<path d="M222.086,29.602c0.406-0.598,1.135-1.1,2.091-1.1c1.518,0,2.533,1.136,2.533,2.855c0,1.638-1.003,3.131-2.748,3.131
		c-1.745,0-2.916-1.446-2.916-3.764c0-2.401,1.123-4.91,4.026-5.389c0.334-0.048,0.633-0.083,0.836-0.083l0.012,0.824
		c-2.485,0-3.668,1.804-3.871,3.524H222.086z M225.706,31.43c0-1.374-0.741-2.175-1.816-2.175c-1.051,0-1.852,1.027-1.852,1.696
		c0.012,1.638,0.705,2.761,1.948,2.761C225.025,33.712,225.706,32.78,225.706,31.43z"/>
	<path d="M227.939,34.883h-0.8l3.788-9.785h0.824L227.939,34.883z"/>
	<path d="M232.467,25.396h5.245v0.634l-3.739,8.315h-1.016l3.739-8.101v-0.023h-4.229V25.396z"/>
	<path d="M239.072,34.883h-0.8l3.788-9.785h0.824L239.072,34.883z"/>
	<path d="M245.093,29.602c-0.968-0.466-1.398-1.255-1.398-2.02c0-1.386,1.087-2.329,2.533-2.329c1.625,0,2.401,1.099,2.401,2.174
		c0,0.765-0.406,1.602-1.47,2.115v0.048c1.099,0.466,1.78,1.267,1.78,2.342c0,1.517-1.243,2.557-2.82,2.557
		c-1.708,0-2.76-1.088-2.76-2.378c0-1.159,0.693-1.995,1.732-2.461V29.602z M247.925,32.04c0-1.123-0.752-1.697-1.936-2.079
		c-1.051,0.347-1.613,1.111-1.613,1.995c0,1.016,0.681,1.792,1.756,1.792C247.28,33.748,247.925,32.971,247.925,32.04z
		 M244.639,27.487c-0.012,0.956,0.669,1.482,1.661,1.78c0.777-0.298,1.362-0.907,1.362-1.756c0-0.753-0.418-1.529-1.47-1.529
		C245.153,25.982,244.639,26.71,244.639,27.487z"/>
	<path d="M250.492,24.966c0.848,1.111,1.756,2.844,1.756,5.508c0,2.652-0.896,4.361-1.756,5.508h-0.813
		c0.968-1.326,1.708-3.082,1.708-5.52c0-2.426-0.729-4.146-1.708-5.496H250.492z"/>
</g>
<g enable-background="new    ">
	<path d="M338.433,10.8c-0.035,0.096-0.131,0.168-0.311,0.18c-0.479,2.867-1.47,5.89-2.867,7.658
		c-0.215-0.167-0.538-0.322-0.801-0.43c1.338-1.625,2.39-4.66,2.771-7.659L338.433,10.8z M344.443,18.567
		c-0.562-2.091-1.947-5.484-3.178-7.694l0.776-0.371c1.255,2.139,2.652,5.509,3.273,7.719L344.443,18.567z M344.288,8.411
		c0.741,0,1.338,0.598,1.338,1.351c0,0.729-0.597,1.338-1.338,1.338s-1.339-0.609-1.339-1.338
		C342.949,8.985,343.571,8.411,344.288,8.411z M345.232,9.761c0-0.538-0.431-0.956-0.944-0.956c-0.526,0-0.944,0.418-0.944,0.956
		c0,0.514,0.418,0.943,0.944,0.943C344.826,10.705,345.232,10.251,345.232,9.761z"/>
	<path d="M347.56,15.543V9.737l1.135,0.072c-0.012,0.107-0.096,0.191-0.287,0.215v5.52H347.56z M354.215,9.271
		c-0.012,0.12-0.096,0.18-0.287,0.203v3.8c0,2.509-0.859,4.803-4.289,6.129c-0.119-0.179-0.418-0.49-0.621-0.646
		c3.31-1.23,4.051-3.273,4.051-5.483V9.2L354.215,9.271z"/>
	<path d="M366.232,13.632h-4.038l0.203,0.06c-0.024,0.071-0.107,0.132-0.239,0.144c-0.322,2.222-1.135,4.205-3.691,5.46
		c-0.144-0.155-0.442-0.442-0.646-0.598c2.485-1.194,3.179-2.867,3.453-5.065h-4.647v-0.801h9.605V13.632z M365.05,10.263h-7.336
		V9.462h7.336V10.263z"/>
	<path d="M375.048,11.733c-0.048,0.06-0.119,0.083-0.203,0.083c-0.06,0-0.107-0.012-0.167-0.023
		c-0.765,0.765-1.744,1.577-2.629,2.21c0.156,0.06,0.228,0.084,0.264,0.107c-0.024,0.048-0.107,0.107-0.203,0.132v5.186h-0.729
		v-4.982c-1.016,0.717-2.641,1.66-3.932,2.282c-0.096-0.144-0.287-0.431-0.43-0.562c2.055-0.944,5.137-2.748,7.204-5.019
		L375.048,11.733z"/>
	<path d="M383.648,18.053c0.479-0.013,1.756-0.061,2.51-0.18c0.012,0.263,0.023,0.598,0.047,0.86
		c-0.788,0.084-1.982,0.132-2.473,0.132h-2.987c-1.804,0-2.677-0.789-2.677-2.497V9.403l1.172,0.071
		c-0.024,0.12-0.107,0.191-0.322,0.216v3.895c1.827-0.573,4.372-1.529,5.926-2.365l0.609,0.824
		c-0.036,0.023-0.096,0.035-0.145,0.035c-0.059,0-0.107-0.012-0.166-0.035c-1.446,0.729-4.17,1.732-6.225,2.354v1.995
		c0,1.207,0.585,1.661,1.815,1.661H383.648z M384.771,9.056c0.55,0.49,1.146,1.23,1.481,1.757l-0.454,0.346
		c-0.334-0.525-0.955-1.302-1.457-1.756L384.771,9.056z M386.241,8.339c0.538,0.49,1.147,1.219,1.481,1.744l-0.454,0.347
		c-0.335-0.525-0.968-1.29-1.458-1.744L386.241,8.339z"/>
	<path d="M389.441,12.139c0.359,0.729,0.753,1.875,0.896,2.568l-0.669,0.179c-0.144-0.692-0.514-1.779-0.872-2.544L389.441,12.139z
		 M396.574,12.222c-0.023,0.107-0.143,0.132-0.25,0.12c-0.933,3.488-2.689,5.627-5.58,6.798c-0.096-0.144-0.311-0.418-0.466-0.55
		c2.855-1.123,4.492-3.082,5.364-6.643L396.574,12.222z M392.345,11.565c0.25,0.801,0.478,1.948,0.561,2.713l-0.705,0.131
		c-0.071-0.765-0.298-1.863-0.561-2.688L392.345,11.565z"/>
	<path d="M405.283,15.292c-1.219-0.656-2.893-1.434-4.194-1.947v5.974h-0.896V8.937l1.206,0.071
		c-0.012,0.132-0.107,0.215-0.311,0.251v3.489l0.179-0.251c1.398,0.514,3.25,1.338,4.492,1.995L405.283,15.292z"/>
</g>
<g enable-background="new    ">
	<path d="M395.08,35.982c-0.849-1.111-1.769-2.844-1.769-5.483c0-2.665,0.908-4.397,1.769-5.532h0.813
		c-0.992,1.326-1.709,3.082-1.709,5.544c0,2.401,0.741,4.122,1.709,5.472H395.08z"/>
	<path d="M396.621,29.901c0-3.131,1.219-4.647,2.891-4.647c1.697,0,2.736,1.601,2.736,4.527c0,3.106-1.088,4.708-2.867,4.708
		C397.756,34.489,396.621,32.887,396.621,29.901z M401.244,29.829c0-2.233-0.537-3.775-1.792-3.775
		c-1.063,0-1.815,1.422-1.815,3.775c0,2.354,0.656,3.848,1.779,3.848C400.742,33.676,401.244,31.956,401.244,29.829z"/>
	<path d="M403.501,34.883h-0.8l3.787-9.785h0.824L403.501,34.883z"/>
	<path d="M410.383,34.345v-8.017h-0.024l-1.47,0.848l-0.238-0.74l1.852-1.04h0.848v8.949H410.383z"/>
	<path d="M414.922,24.966c0.848,1.111,1.756,2.844,1.756,5.508c0,2.652-0.896,4.361-1.756,5.508h-0.813
		c0.967-1.326,1.708-3.082,1.708-5.52c0-2.426-0.729-4.146-1.708-5.496H414.922z"/>
</g>
<g enable-background="new    ">
	<path d="M437.568,10.167c-0.024,0.06-0.084,0.107-0.156,0.131c-0.645,1.518-1.409,2.832-2.389,4.11
		c1.302,1.039,3.262,2.819,4.373,4.051l-0.729,0.633c-1.052-1.219-2.976-3.035-4.193-4.015c-1.052,1.278-2.868,3.023-4.601,4.015
		c-0.131-0.18-0.418-0.478-0.621-0.646c3.311-1.815,5.926-5.209,7.002-7.802h-5.867V9.833h6.333l0.155-0.06L437.568,10.167z"/>
	<path d="M447.746,15.292c-1.219-0.656-2.893-1.434-4.194-1.947v5.974h-0.896V8.937l1.206,0.071
		c-0.012,0.132-0.107,0.215-0.311,0.251v3.489l0.179-0.251c1.398,0.514,3.25,1.338,4.492,1.995L447.746,15.292z"/>
	<path d="M451.256,12.139c0.359,0.729,0.753,1.875,0.896,2.568l-0.669,0.179c-0.144-0.692-0.514-1.779-0.872-2.544L451.256,12.139z
		 M458.388,12.222c-0.023,0.107-0.143,0.132-0.25,0.12c-0.933,3.488-2.689,5.627-5.58,6.798c-0.096-0.144-0.311-0.418-0.466-0.55
		c2.855-1.123,4.492-3.082,5.364-6.643L458.388,12.222z M454.16,11.565c0.25,0.801,0.478,1.948,0.561,2.713l-0.705,0.131
		c-0.071-0.765-0.298-1.863-0.561-2.688L454.16,11.565z"/>
	<path d="M460.347,10.382h7.598l0.072-0.036l0.813,0.622c-0.036,0.048-0.072,0.083-0.144,0.107c-0.968,4.492-3.047,6.834-6.702,8.22
		c-0.132-0.215-0.371-0.525-0.538-0.705c3.477-1.278,5.483-3.501,6.261-7.384h-7.359V10.382z M469.451,8.244
		c0.717,0,1.303,0.586,1.303,1.314c0,0.717-0.586,1.302-1.303,1.302c-0.729,0-1.314-0.585-1.314-1.302
		C468.136,8.805,468.746,8.244,469.451,8.244z M470.359,9.558c0-0.514-0.406-0.92-0.908-0.92s-0.92,0.406-0.92,0.92
		c0,0.502,0.418,0.92,0.92,0.92C469.976,10.478,470.359,10.036,470.359,9.558z"/>
	<path d="M478.433,18.053c0.479-0.013,1.756-0.061,2.51-0.18c0.012,0.263,0.023,0.598,0.047,0.86
		c-0.788,0.084-1.982,0.132-2.473,0.132h-2.987c-1.804,0-2.677-0.789-2.677-2.497V9.403l1.172,0.071
		c-0.024,0.12-0.107,0.191-0.322,0.216v3.895c1.827-0.573,4.372-1.529,5.926-2.365l0.609,0.824
		c-0.036,0.023-0.096,0.035-0.145,0.035c-0.059,0-0.107-0.012-0.166-0.035c-1.446,0.729-4.17,1.732-6.225,2.354v1.995
		c0,1.207,0.585,1.661,1.815,1.661H478.433z M479.556,9.056c0.55,0.49,1.146,1.23,1.481,1.757l-0.454,0.346
		c-0.334-0.525-0.955-1.302-1.457-1.756L479.556,9.056z M481.026,8.339c0.538,0.49,1.147,1.219,1.481,1.744l-0.454,0.347
		c-0.335-0.525-0.968-1.29-1.458-1.744L481.026,8.339z"/>
	<path d="M484.226,12.139c0.358,0.729,0.752,1.875,0.896,2.568l-0.67,0.179c-0.143-0.692-0.514-1.779-0.871-2.544L484.226,12.139z
		 M491.359,12.222c-0.023,0.107-0.144,0.132-0.251,0.12c-0.933,3.488-2.688,5.627-5.579,6.798c-0.096-0.144-0.311-0.418-0.467-0.55
		c2.855-1.123,4.492-3.082,5.365-6.643L491.359,12.222z M487.13,11.565c0.251,0.801,0.478,1.948,0.562,2.713l-0.705,0.131
		c-0.072-0.765-0.299-1.863-0.562-2.688L487.13,11.565z"/>
	<path d="M500.068,15.292c-1.219-0.656-2.893-1.434-4.194-1.947v5.974h-0.896V8.937l1.206,0.071
		c-0.012,0.132-0.107,0.215-0.311,0.251v3.489l0.179-0.251c1.398,0.514,3.25,1.338,4.492,1.995L500.068,15.292z"/>
</g>
<g enable-background="new    ">
	<path d="M431.486,35.982c-0.849-1.111-1.769-2.844-1.769-5.483c0-2.665,0.908-4.397,1.769-5.532h0.813
		c-0.992,1.326-1.709,3.082-1.709,5.544c0,2.401,0.741,4.122,1.709,5.472H431.486z"/>
	<path d="M435.655,34.345v-8.017h-0.024l-1.469,0.848l-0.239-0.74l1.853-1.04h0.848v8.949H435.655z"/>
	<path d="M439.907,34.883h-0.8l3.787-9.785h0.824L439.907,34.883z"/>
	<path d="M446.789,34.345v-8.017h-0.024l-1.47,0.848l-0.238-0.74l1.852-1.04h0.848v8.949H446.789z"/>
	<path d="M450.969,33.736c0-0.454,0.299-0.776,0.717-0.776s0.705,0.322,0.705,0.776c0,0.43-0.274,0.753-0.717,0.753
		C451.219,34.489,450.969,34.13,450.969,33.736z"/>
	<path d="M458.424,25.396v0.825h-3.215l-0.37,2.532c0.191-0.023,0.382-0.048,0.693-0.048c1.589,0,3.011,0.944,3.011,2.748
		c0,1.769-1.314,3.035-3.082,3.035c-0.896,0-1.649-0.263-2.056-0.526l0.286-0.776c0.335,0.228,0.992,0.502,1.77,0.502
		c1.123,0,2.09-0.824,2.078-2.114c0-1.231-0.789-2.091-2.461-2.091c-0.479,0-0.849,0.035-1.146,0.083l0.561-4.17H458.424z"/>
	<path d="M460.226,34.883h-0.801l3.787-9.785h0.824L460.226,34.883z"/>
	<path d="M469.879,34.345h-5.293v-0.609l0.873-0.92c2.127-2.15,3.201-3.453,3.201-4.91c0-0.956-0.418-1.84-1.708-1.84
		c-0.717,0-1.362,0.394-1.792,0.74l-0.335-0.692c0.55-0.49,1.362-0.873,2.317-0.873c1.805,0,2.521,1.314,2.521,2.545
		c0,1.685-1.183,3.118-3.035,4.982l-0.705,0.741v0.023h3.955V34.345z"/>
	<path d="M471.646,24.966c0.848,1.111,1.756,2.844,1.756,5.508c0,2.652-0.896,4.361-1.756,5.508h-0.813
		c0.968-1.326,1.709-3.082,1.709-5.52c0-2.426-0.729-4.146-1.709-5.496H471.646z"/>
</g>
<g enable-background="new    ">
	<path d="M30.804,10.167c-0.024,0.06-0.083,0.107-0.155,0.131c-0.645,1.518-1.41,2.832-2.39,4.11
		c1.302,1.039,3.262,2.819,4.373,4.051l-0.729,0.633c-1.051-1.219-2.975-3.035-4.193-4.015c-1.052,1.278-2.868,3.023-4.6,4.015
		c-0.131-0.18-0.418-0.478-0.621-0.646c3.31-1.815,5.926-5.209,7.001-7.802h-5.866V9.832h6.333l0.155-0.06L30.804,10.167z"/>
	<path d="M42.523,10.955c-0.012,0.061-0.072,0.107-0.144,0.132c-0.442,1.481-1.04,2.844-1.756,3.955
		c0.514,0.298,1.099,0.669,1.541,0.991l-0.501,0.788c-0.43-0.334-1.04-0.729-1.542-1.039c-1.099,1.529-2.509,2.76-4.313,3.632
		c-0.131-0.203-0.442-0.489-0.657-0.621c1.745-0.813,3.143-2.02,4.229-3.44c-0.884-0.49-1.756-0.908-2.64-1.243l0.454-0.669
		c0.873,0.311,1.769,0.717,2.688,1.207c0.621-0.979,1.111-2.02,1.446-3.166h-4.05c-0.729,1.219-1.708,2.425-2.76,3.285
		c-0.155-0.144-0.478-0.406-0.681-0.537c1.565-1.195,3.046-3.346,3.763-5.389l1.135,0.263c-0.048,0.132-0.167,0.167-0.323,0.155
		c-0.167,0.395-0.442,0.979-0.669,1.422h3.967l0.167-0.048L42.523,10.955z"/>
	<path d="M44.743,13.512h9.977v0.848h-9.522c-0.072,0.12-0.227,0.203-0.382,0.228L44.743,13.512z"/>
	<path d="M63.32,15.292c-1.219-0.656-2.892-1.434-4.194-1.947v5.974H58.23V8.936l1.207,0.071c-0.012,0.132-0.107,0.215-0.311,0.251
		v3.489l0.179-0.251c1.398,0.514,3.25,1.338,4.492,1.995L63.32,15.292z"/>
	<path d="M72.745,18.052c0.478-0.013,1.756-0.061,2.509-0.18c0.012,0.263,0.024,0.598,0.047,0.86
		c-0.788,0.084-1.983,0.132-2.473,0.132h-2.987c-1.804,0-2.676-0.789-2.676-2.497V9.402l1.171,0.071
		c-0.024,0.12-0.107,0.191-0.322,0.216v3.895c1.828-0.573,4.373-1.529,5.926-2.365l0.609,0.824
		c-0.036,0.023-0.096,0.035-0.144,0.035c-0.06,0-0.107-0.012-0.167-0.035c-1.446,0.729-4.17,1.732-6.225,2.354v1.995
		c0,1.207,0.585,1.661,1.816,1.661H72.745z M73.868,9.055c0.55,0.49,1.147,1.23,1.481,1.757l-0.454,0.346
		c-0.335-0.525-0.956-1.302-1.458-1.756L73.868,9.055z M75.338,8.338c0.538,0.49,1.147,1.219,1.481,1.744l-0.454,0.347
		c-0.334-0.525-0.968-1.29-1.458-1.744L75.338,8.338z"/>
	<path d="M78.538,12.138c0.358,0.729,0.752,1.875,0.896,2.568l-0.669,0.179c-0.144-0.692-0.514-1.779-0.872-2.544L78.538,12.138z
		 M85.671,12.221c-0.024,0.107-0.144,0.132-0.251,0.12c-0.932,3.488-2.688,5.627-5.58,6.798c-0.096-0.144-0.311-0.418-0.466-0.55
		c2.855-1.123,4.492-3.082,5.364-6.643L85.671,12.221z M81.441,11.564c0.251,0.801,0.478,1.948,0.562,2.713l-0.705,0.131
		c-0.072-0.765-0.299-1.863-0.562-2.688L81.441,11.564z"/>
	<path d="M94.379,15.292c-1.219-0.656-2.892-1.434-4.194-1.947v5.974h-0.896V8.936l1.207,0.071
		c-0.012,0.132-0.107,0.215-0.311,0.251v3.489l0.179-0.251c1.398,0.514,3.25,1.338,4.492,1.995L94.379,15.292z"/>
</g>
<g enable-background="new    ">
	<path d="M59.537,35.981c-0.849-1.111-1.769-2.844-1.769-5.483c0-2.665,0.908-4.397,1.769-5.532h0.812
		c-0.991,1.326-1.708,3.082-1.708,5.544c0,2.401,0.741,4.122,1.708,5.472H59.537z"/>
	<path d="M63.706,34.344v-8.017h-0.024l-1.47,0.848l-0.239-0.74l1.852-1.04h0.848v8.949H63.706z"/>
	<path d="M68.245,24.965c0.848,1.111,1.756,2.844,1.756,5.508c0,2.652-0.896,4.361-1.756,5.508h-0.813
		c0.968-1.326,1.708-3.082,1.708-5.52c0-2.426-0.729-4.146-1.708-5.496H68.245z"/>
</g>
<g>
	<polyline fill="none" stroke="#000000" stroke-miterlimit="10" points="7.457,44.754 45.081,44.754 45.081,82.378 82.704,82.378 
		82.704,44.754 421.321,44.754 421.321,82.378 496.571,82.379 496.571,44.755 534.194,44.755 	"/>
	<line fill="none" stroke="#898989" stroke-miterlimit="10" x1="82.704" y1="82.378" x2="421.321" y2="82.378"/>
	<line fill="none" stroke="#898989" stroke-miterlimit="10" x1="383.696" y1="44.755" x2="383.696" y2="82.378"/>
	<polyline fill="none" stroke="#898989" stroke-miterlimit="10" points="458.942,82.379 458.942,44.755 496.567,44.755 	"/>
	<line fill="none" stroke="#898989" stroke-miterlimit="10" x1="477.757" y1="44.754" x2="477.757" y2="82.378"/>
	<line fill="none" stroke="#898989" stroke-miterlimit="10" x1="346.073" y1="44.755" x2="346.073" y2="82.378"/>
	<line fill="none" stroke="#898989" stroke-miterlimit="10" x1="308.447" y1="44.756" x2="308.447" y2="82.379"/>
	<line fill="none" stroke="#898989" stroke-miterlimit="10" x1="270.824" y1="44.756" x2="270.824" y2="82.379"/>
</g>
<g enable-background="new    ">
	<path d="M92.385,111.844c0.358-0.012,1.316-0.06,1.881-0.179c0.009,0.263,0.018,0.598,0.036,0.86
		c-0.591,0.083-1.487,0.131-1.854,0.131h-2.239c-1.353,0-2.006-0.789-2.006-2.497v-6.965l0.878,0.072
		c-0.018,0.119-0.081,0.191-0.242,0.215v3.895c1.37-0.574,3.278-1.529,4.442-2.366l0.457,0.824
		c-0.027,0.024-0.072,0.036-0.107,0.036c-0.045,0-0.081-0.012-0.125-0.036c-1.084,0.729-3.126,1.732-4.667,2.354v1.995
		c0,1.207,0.438,1.661,1.361,1.661H92.385z M93.227,102.847c0.412,0.49,0.86,1.23,1.111,1.756l-0.34,0.347
		c-0.251-0.526-0.717-1.302-1.093-1.756L93.227,102.847z M94.329,102.13c0.403,0.49,0.86,1.219,1.111,1.744l-0.34,0.347
		c-0.251-0.526-0.726-1.291-1.093-1.744L94.329,102.13z"/>
	<path d="M96.732,105.93c0.269,0.729,0.564,1.876,0.671,2.569l-0.501,0.179c-0.107-0.693-0.385-1.78-0.654-2.545L96.732,105.93z
		 M102.079,106.013c-0.018,0.108-0.107,0.132-0.188,0.12c-0.699,3.489-2.016,5.627-4.183,6.798c-0.072-0.144-0.233-0.418-0.349-0.55
		c2.141-1.123,3.368-3.083,4.021-6.643L102.079,106.013z M98.908,105.356c0.188,0.8,0.358,1.947,0.421,2.712l-0.528,0.131
		c-0.054-0.765-0.224-1.864-0.421-2.688L98.908,105.356z"/>
	<path d="M108.61,109.084c-0.914-0.657-2.167-1.434-3.144-1.948v5.974h-0.672v-10.382l0.905,0.071
		c-0.009,0.131-0.081,0.215-0.233,0.251v3.489l0.134-0.251c1.048,0.514,2.437,1.338,3.368,1.995L108.61,109.084z"/>
	<path d="M110.52,113.015h-0.6l2.839-9.785h0.618L110.52,113.015z"/>
	<path d="M115.922,107.411c0.277,0.347,1.137,1.577,1.316,1.876l-0.358,0.633c-0.161-0.371-0.618-1.147-0.958-1.708v5.281h-0.591
		v-5.604c-0.385,1.314-0.905,2.641-1.397,3.429c-0.071-0.215-0.215-0.538-0.313-0.717c0.573-0.872,1.227-2.485,1.595-3.918h-1.469
		v-0.765h1.585v-2.079c-0.466,0.167-0.958,0.323-1.424,0.442c-0.027-0.155-0.116-0.418-0.188-0.585
		c1.102-0.322,2.374-0.812,3.054-1.302l0.538,0.598c-0.036,0.048-0.045,0.048-0.17,0.048c-0.322,0.203-0.752,0.394-1.218,0.585
		v2.294h1.298v0.765h-1.298V107.411z M121.61,108.57c-0.027,0.083-0.081,0.119-0.179,0.131c-0.582,2.485-1.863,4.014-4.219,4.767
		c-0.054-0.227-0.206-0.526-0.34-0.717c2.23-0.609,3.475-1.996,4.013-4.409L121.61,108.57z M118.6,104.663
		c-0.018,0.084-0.081,0.132-0.188,0.12c-0.224,1.35-0.609,2.784-1.075,3.656c-0.107-0.12-0.322-0.299-0.457-0.395
		c0.439-0.824,0.797-2.234,1.012-3.62L118.6,104.663z M120.015,102.453c-0.009,0.083-0.054,0.143-0.179,0.167v6.201
		c0,0.86-0.269,0.968-1.505,0.968c-0.027-0.215-0.125-0.562-0.215-0.765c0.224,0,0.439,0.012,0.6,0.012c0.466,0,0.52,0,0.52-0.227
		v-6.416L120.015,102.453z M120.965,104.365c0.511,1.099,0.95,2.557,1.102,3.524l-0.546,0.263c-0.144-0.979-0.583-2.461-1.066-3.548
		L120.965,104.365z"/>
</g>
<g enable-background="new    ">
	<path d="M98.148,130.042c-0.849-1.111-1.769-2.844-1.769-5.483c0-2.665,0.908-4.397,1.769-5.532h0.812
		c-0.991,1.326-1.708,3.082-1.708,5.544c0,2.401,0.741,4.122,1.708,5.472H98.148z"/>
	<path d="M101.206,122.945c0.406-0.753,1.147-1.207,2.163-1.207c1.542,0,2.628,1.326,2.628,3.334c0,2.365-1.445,3.477-2.795,3.477
		c-0.944,0-1.637-0.383-2.103-1.219h-0.036l-0.06,1.075h-0.86c0.024-0.43,0.047-1.087,0.047-1.613v-7.945h0.992v4.099H101.206z
		 M101.182,125.86c0,0.968,0.729,1.876,1.828,1.876c1.267,0,1.971-1.087,1.971-2.629c0-1.361-0.669-2.557-1.936-2.557
		c-1.135,0-1.864,1.063-1.864,2.02V125.86z"/>
	<path d="M108.421,122.993c0.454-0.801,1.207-1.255,2.222-1.255c1.542,0,2.652,1.326,2.652,3.321c0,2.39-1.398,3.489-2.832,3.489
		c-0.86,0-1.577-0.395-1.959-1.04h-0.024v3.561h-0.992v-7.085c0-0.848-0.023-1.505-0.047-2.103h0.896l0.06,1.111H108.421z
		 M108.481,125.812c0,1.267,0.944,1.936,1.828,1.936c1.278,0,1.983-1.099,1.983-2.652c0-1.35-0.681-2.545-1.948-2.545
		c-1.111,0-1.864,1.075-1.864,2.02V125.812z"/>
	<path d="M117.834,122.885c-0.239-0.155-0.681-0.383-1.267-0.383c-0.717,0-1.099,0.442-1.099,0.968c0,0.562,0.371,0.824,1.207,1.183
		c1.051,0.431,1.661,0.98,1.661,1.96c0,1.159-0.884,1.924-2.306,1.924c-0.645,0-1.267-0.18-1.708-0.442l0.275-0.765
		c0.347,0.203,0.908,0.442,1.47,0.442c0.872,0,1.302-0.467,1.302-1.052c0-0.609-0.347-0.944-1.207-1.29
		c-1.099-0.442-1.661-1.052-1.661-1.84c0-1.016,0.813-1.853,2.127-1.853c0.621,0,1.147,0.18,1.493,0.395L117.834,122.885z"/>
	<path d="M119.936,119.026c0.848,1.111,1.756,2.844,1.756,5.508c0,2.652-0.896,4.361-1.756,5.508h-0.813
		c0.968-1.326,1.708-3.082,1.708-5.52c0-2.426-0.729-4.146-1.708-5.496H119.936z"/>
</g>
<g enable-background="new    ">
	<path d="M504.468,61.985h0.991v9.104h-0.991V61.985z"/>
	<path d="M507.502,62.105c0.669-0.107,1.445-0.191,2.294-0.191c3.655,0,4.708,2.162,4.708,4.396c0,1.446-0.383,2.677-1.243,3.572
		c-0.801,0.824-2.127,1.278-3.788,1.278c-0.752,0-1.397-0.023-1.971-0.095V62.105z M508.494,70.301
		c0.298,0.047,0.729,0.06,1.158,0.06c2.461,0,3.812-1.398,3.812-4.003c0-2.365-1.267-3.644-3.632-3.644
		c-0.574,0-1.027,0.06-1.338,0.119V70.301z"/>
	<path d="M520.761,71.089h-4.755v-9.104h0.991v8.256h3.764V71.089z"/>
	<path d="M526.853,71.089h-4.803v-9.104h4.6v0.837h-3.607v3.082h3.393v0.824h-3.393v3.525h3.811V71.089z"/>
</g>
<g enable-background="new    ">
	<path d="M15.356,61.985h0.992v9.104h-0.992V61.985z"/>
	<path d="M18.39,62.105c0.669-0.107,1.446-0.191,2.294-0.191c3.656,0,4.708,2.162,4.708,4.396c0,1.446-0.382,2.677-1.243,3.572
		c-0.801,0.824-2.127,1.278-3.788,1.278c-0.752,0-1.398-0.023-1.971-0.095V62.105z M19.382,70.301
		c0.298,0.047,0.729,0.06,1.159,0.06c2.461,0,3.812-1.398,3.812-4.003c0-2.365-1.267-3.644-3.632-3.644
		c-0.573,0-1.027,0.06-1.338,0.119V70.301z"/>
	<path d="M31.65,71.089h-4.755v-9.104h0.992v8.256h3.763V71.089z"/>
	<path d="M37.742,71.089H32.94v-9.104h4.6v0.837h-3.608v3.082h3.393v0.824h-3.393v3.525h3.811V71.089z"/>
</g>
<g>
	<polyline fill="none" stroke="#000000" stroke-miterlimit="10" points="7.449,165.774 25.405,165.774 25.405,183.728 
		43.359,183.728 43.359,165.774 204.951,165.774 204.951,183.728 240.86,183.728 240.86,165.774 258.814,165.774 	"/>
	<line fill="none" stroke="#898989" stroke-miterlimit="10" x1="43.359" y1="183.728" x2="204.951" y2="183.728"/>
	<line fill="none" stroke="#898989" stroke-miterlimit="10" x1="186.996" y1="165.774" x2="186.996" y2="183.728"/>
	<polyline fill="none" stroke="#898989" stroke-miterlimit="10" points="222.904,183.728 222.904,165.774 240.86,165.774 	"/>
	<line fill="none" stroke="#898989" stroke-miterlimit="10" x1="231.882" y1="165.774" x2="231.882" y2="183.728"/>
	<line fill="none" stroke="#898989" stroke-miterlimit="10" x1="169.041" y1="165.774" x2="169.041" y2="183.728"/>
	<line fill="none" stroke="#898989" stroke-miterlimit="10" x1="151.086" y1="165.774" x2="151.086" y2="183.728"/>
	<line fill="none" stroke="#898989" stroke-miterlimit="10" x1="133.132" y1="165.774" x2="133.132" y2="183.728"/>
</g>
<g>
	<polyline fill="none" stroke="#000000" stroke-miterlimit="10" points="281.885,165.774 299.841,165.774 299.841,183.728 
		317.796,183.728 317.796,165.774 479.384,165.774 479.384,183.728 515.294,183.728 515.294,165.774 533.251,165.774 	"/>
	<line fill="none" stroke="#898989" stroke-miterlimit="10" x1="317.796" y1="183.728" x2="479.384" y2="183.728"/>
	<line fill="none" stroke="#898989" stroke-miterlimit="10" x1="461.432" y1="165.774" x2="461.432" y2="183.728"/>
	<polyline fill="none" stroke="#898989" stroke-miterlimit="10" points="497.339,183.728 497.339,165.774 515.294,165.774 	"/>
	<line fill="none" stroke="#898989" stroke-miterlimit="10" x1="506.319" y1="165.774" x2="506.319" y2="183.728"/>
	<line fill="none" stroke="#898989" stroke-miterlimit="10" x1="443.477" y1="165.774" x2="443.477" y2="183.728"/>
	<line fill="none" stroke="#898989" stroke-miterlimit="10" x1="425.522" y1="165.774" x2="425.522" y2="183.728"/>
	<line fill="none" stroke="#898989" stroke-miterlimit="10" x1="407.567" y1="165.774" x2="407.567" y2="183.728"/>
</g>
<line fill="none" stroke="#000000" stroke-miterlimit="10" x1="253.883" y1="165.774" x2="282.533" y2="165.774"/>
<g>
	<g>
		
			<line fill="none" stroke="#000000" stroke-width="0.75" stroke-miterlimit="10" x1="90.995" y1="93.667" x2="119.565" y2="93.667"/>
		<g>
			<path d="M86.468,93.667c2.131,0.791,4.772,2.139,6.411,3.567l-1.291-3.567l1.291-3.566
				C91.241,91.528,88.598,92.877,86.468,93.667z"/>
		</g>
		<g>
			<path d="M124.092,93.667c-2.13,0.791-4.771,2.139-6.41,3.567l1.29-3.567l-1.29-3.566
				C119.319,91.528,121.962,92.877,124.092,93.667z"/>
		</g>
	</g>
</g>
<g>
	<g>
		
			<line fill="none" stroke="#000000" stroke-width="0.75" stroke-miterlimit="10" x1="43.73" y1="97.986" x2="26.269" y2="153.866"/>
		<g>
			<path d="M45.081,93.666c-1.39,1.797-3.465,3.917-5.315,5.055l3.789-0.167l3.019,2.295C45.698,98.858,45.199,95.934,45.081,93.666
				z"/>
		</g>
	</g>
</g>
<g>
	<g>
		
			<line fill="none" stroke="#000000" stroke-width="0.75" stroke-miterlimit="10" x1="492.165" y1="98.479" x2="244.489" y2="157.628"/>
		<g>
			<path d="M496.567,97.428c-2.254-0.274-5.139-0.972-7.063-1.98l2.082,3.17l-0.427,3.768
				C492.423,100.616,494.678,98.691,496.567,97.428z"/>
		</g>
	</g>
</g>
<g>
	<g>
		
			<line fill="none" stroke="#000000" stroke-width="0.75" stroke-miterlimit="10" x1="245.252" y1="195.251" x2="292.635" y2="195.251"/>
		<g>
			<path d="M240.726,195.251c2.13,0.791,4.771,2.14,6.411,3.567l-1.291-3.567l1.291-3.565
				C245.499,193.114,242.856,194.462,240.726,195.251z"/>
		</g>
		<g>
			<path d="M297.16,195.251c-2.129,0.791-4.771,2.14-6.41,3.567l1.291-3.567l-1.291-3.565
				C292.389,193.114,295.031,194.462,297.16,195.251z"/>
		</g>
	</g>
</g>
<g enable-background="new    ">
	<path d="M248.057,206.847h-1.612c0.233,0.107,0.295,0.132,0.358,0.168c-0.027,0.084-0.099,0.119-0.224,0.119
		c-0.52,1.959-1.227,3.513-2.167,4.768c1.012,1.123,2.257,1.947,3.753,2.4c-0.144,0.191-0.332,0.551-0.43,0.801
		c-1.532-0.525-2.786-1.397-3.815-2.604c-1.012,1.135-2.257,1.971-3.78,2.592c-0.063-0.203-0.233-0.537-0.35-0.729
		c1.469-0.562,2.688-1.35,3.672-2.438c-0.967-1.326-1.702-2.975-2.23-4.922l0.367-0.156h-1.729v-0.788h3.753v-2.091l0.797,0.072
		c-0.009,0.083-0.063,0.143-0.179,0.166v1.853h3.816V206.847z M241.85,206.847c0.466,1.744,1.165,3.262,2.105,4.492
		c0.887-1.182,1.559-2.652,2.033-4.492H241.85z"/>
	<path d="M256.945,210.743v0.765h-3.717v2.58c0,0.956-0.43,0.969-1.917,0.969c-0.045-0.216-0.162-0.538-0.26-0.766
		c0.358,0.012,0.708,0.024,0.958,0.024c0.555,0,0.582,0,0.582-0.239v-2.568h-3.726v-0.765h3.726v-1.111l0.277,0.024
		c0.484-0.371,0.995-0.873,1.389-1.362h-3.708v-0.741h4.317l0.107-0.047l0.475,0.394c-0.018,0.06-0.081,0.096-0.135,0.107
		c-0.51,0.693-1.326,1.529-2.087,2.103v0.634H256.945z M249.788,206.226v2.031h-0.591v-2.796h3.376v-1.529l0.806,0.071
		c-0.009,0.084-0.054,0.145-0.179,0.168v1.29h3.439v2.796h-0.609v-2.031H249.788z"/>
	<path d="M262.384,206.155c-0.036,0.107-0.107,0.19-0.224,0.19c-0.322,3.717-1.254,6.954-2.741,6.954
		c-0.752,0-1.433-1.003-1.433-2.892c0-2.867,1.675-5.269,4.031-5.269c2.588,0,3.708,2.187,3.708,4.517
		c0,2.844-1.236,4.217-3.404,4.887c-0.081-0.191-0.233-0.514-0.376-0.729c2.06-0.525,3.117-1.864,3.117-4.122
		c0-1.971-0.95-3.764-3.045-3.764c-0.09,0-0.188,0.012-0.269,0.024L262.384,206.155z M261.524,206
		c-1.81,0.299-2.929,2.294-2.929,4.385c0,1.278,0.412,2.078,0.842,2.078C260.521,212.462,261.3,209.273,261.524,206z"/>
	<path d="M268.629,208.759v3.906c0.698,1.422,1.979,1.422,3.591,1.422c0.968,0,2.105-0.035,2.804-0.096
		c-0.072,0.191-0.179,0.574-0.197,0.813c-0.618,0.036-1.604,0.061-2.49,0.061c-1.845,0-3.072,0-3.977-1.482
		c-0.438,0.526-0.914,1.064-1.299,1.471c0.009,0.107-0.018,0.154-0.081,0.19l-0.349-0.884c0.43-0.383,0.958-0.932,1.415-1.457
		v-3.179h-1.316v-0.765H268.629z M267.294,204.279c0.6,0.514,1.299,1.303,1.604,1.888l-0.475,0.538
		c-0.296-0.598-0.977-1.41-1.577-1.947L267.294,204.279z M274.89,209.583h-2.382c0.376,1.59,1.155,2.652,2.4,3.143
		c-0.135,0.155-0.305,0.453-0.385,0.669c-1.218-0.562-1.998-1.649-2.445-3.274c-0.26,1.123-0.905,2.307-2.418,3.227
		c-0.081-0.18-0.269-0.454-0.403-0.598c1.621-0.896,2.149-2.091,2.32-3.166h-2.4v-0.74h2.463c0.009-0.144,0.009-0.287,0.009-0.418
		v-1.375h-2.176v-0.74h3.565l-0.457-0.275c0.305-0.549,0.69-1.445,0.896-2.055l0.716,0.358c-0.027,0.084-0.089,0.108-0.197,0.12
		c-0.233,0.549-0.618,1.338-0.932,1.852h1.559v0.74h-2.374v1.375c0,0.131,0,0.274-0.009,0.418h2.651V209.583z M270.662,206.31
		c-0.117-0.55-0.457-1.398-0.815-2.008l0.511-0.286c0.367,0.597,0.726,1.409,0.842,1.96L270.662,206.31z"/>
	<path d="M276.836,208.198c-0.34,0.753-0.717,1.422-1.093,1.995c-0.063-0.191-0.215-0.562-0.313-0.752
		c0.86-1.243,1.72-3.311,2.239-5.377l0.716,0.322c-0.036,0.084-0.099,0.119-0.206,0.107c-0.233,0.836-0.51,1.673-0.824,2.474
		l0.242,0.083c-0.018,0.072-0.063,0.132-0.179,0.144v7.921h-0.582V208.198z M278.036,206.238h5.912v0.682h-5.912V206.238z
		 M278.699,215.08v-3.836h4.631v3.8h-0.609v-0.562h-3.439v0.598H278.699z M283.249,207.912v0.668h-4.46v-0.668H283.249z
		 M278.789,210.252v-0.669h4.452v0.669H278.789z M283.088,204.566v0.669h-4.201v-0.669H283.088z M282.721,211.914h-3.439v1.899
		h3.439V211.914z"/>
	<path d="M286.494,208.759v3.931c0.698,1.422,1.979,1.422,3.654,1.422c0.977,0,2.105-0.024,2.803-0.083
		c-0.07,0.179-0.17,0.549-0.196,0.788c-0.609,0.023-1.577,0.048-2.464,0.048c-1.952,0-3.17,0-4.057-1.482
		c-0.439,0.538-0.887,1.064-1.271,1.471c0.008,0.096-0.019,0.154-0.081,0.19l-0.341-0.849c0.412-0.394,0.923-0.907,1.371-1.445
		v-3.226h-1.281v-0.765H286.494z M285.204,204.279c0.573,0.562,1.228,1.398,1.505,2.008l-0.484,0.514
		c-0.277-0.621-0.904-1.482-1.477-2.08L285.204,204.279z M287.998,206.812v0.681c0,1.637-0.107,3.979-0.832,5.567
		c-0.099-0.131-0.35-0.322-0.484-0.395c0.689-1.517,0.762-3.631,0.762-5.185v-3.034h5.088v2.365H287.998z M292.602,208.926h-1.962
		v0.884h1.729v0.609h-1.729v0.933h2.123v0.621h-2.123v1.554h-0.582v-1.554h-2.123v-0.621h2.123v-0.933h-1.666v-0.609h1.666v-0.884
		h-1.89v-0.621h1.138c-0.099-0.358-0.305-0.813-0.52-1.159l0.457-0.238c0.241,0.382,0.483,0.908,0.572,1.266l-0.223,0.132h1.414
		l-0.143-0.083c0.197-0.371,0.438-0.969,0.564-1.363l0.645,0.312c-0.027,0.071-0.08,0.107-0.18,0.107
		c-0.134,0.286-0.34,0.704-0.527,1.027h1.235V208.926z M291.949,205.08h-3.951v1.111h3.951V205.08z"/>
	<path d="M296.142,208.222l0.35,0.154c-0.009,0.061-0.027,0.12-0.063,0.144c-0.161,1.661-0.447,3.011-0.859,4.099
		c0.922,1.111,2.203,1.361,3.726,1.373c0.35,0,2.194,0,2.634-0.012c-0.099,0.191-0.206,0.55-0.242,0.777h-2.4
		c-1.666,0-3.019-0.287-4.004-1.47c-0.376,0.788-0.824,1.397-1.344,1.852c-0.09-0.179-0.322-0.466-0.447-0.573
		c0.537-0.442,1.003-1.063,1.379-1.863c-0.376-0.634-0.689-1.435-0.932-2.474l0.475-0.263c0.188,0.836,0.43,1.505,0.734,2.043
		c0.305-0.836,0.52-1.84,0.663-3.035h-1.335l-0.232,0.537l-0.547-0.215c0.52-1.17,1.156-2.711,1.586-3.799h-1.738v-0.729h2.105
		c0.063-0.036,0.09-0.036,0.117-0.036c0.08,0.036,0.16,0.071,0.394,0.228c-0.019,0.047-0.054,0.107-0.081,0.143
		c-0.305,0.777-0.797,1.983-1.289,3.143h1.236L296.142,208.222z M301.821,211.734v0.753h-5.319v-0.753h0.77v-4.588l0.744,0.072
		c-0.01,0.071-0.055,0.131-0.171,0.155v4.36h1.2v-6.32c-0.707,0.156-1.46,0.299-2.158,0.395c-0.027-0.18-0.107-0.479-0.18-0.657
		c1.567-0.239,3.396-0.657,4.371-1.171l0.52,0.67c-0.026,0.035-0.045,0.035-0.188,0.035c-0.431,0.191-0.985,0.383-1.604,0.537
		c-0.009,0.072-0.063,0.12-0.17,0.145v2.64h2.033v0.717h-2.033v3.011H301.821z"/>
</g>
<g enable-background="new    ">
	<path d="M264.698,228.664h-0.944v-2.509h-3.907v-0.634l3.823-5.807h1.028v5.676h1.219v0.765h-1.219V228.664z M260.851,225.39h2.903
		v-3.179c0-0.489,0.024-0.968,0.048-1.434h-0.048c-0.275,0.55-0.49,0.933-0.717,1.339l-2.187,3.249V225.39z"/>
	<path d="M276.035,228.664h-0.979V224.9c0-1.267-0.454-2.079-1.434-2.079c-0.801,0-1.529,0.753-1.529,1.745v4.098h-0.98v-4.015
		c0-1.039-0.442-1.828-1.362-1.828c-0.849,0-1.601,0.837-1.601,1.853v3.99h-0.98v-4.839c0-0.669-0.023-1.146-0.047-1.685h0.872
		l0.06,1.052h0.036c0.358-0.634,0.956-1.195,1.983-1.195c0.849,0,1.505,0.526,1.78,1.303h0.024c0.43-0.776,1.087-1.303,2.091-1.303
		c0.801,0,2.067,0.514,2.067,2.748V228.664z"/>
	<path d="M281.003,223.144c-0.239-0.155-0.681-0.383-1.267-0.383c-0.717,0-1.099,0.442-1.099,0.968c0,0.562,0.371,0.824,1.207,1.183
		c1.051,0.431,1.661,0.98,1.661,1.96c0,1.159-0.884,1.924-2.306,1.924c-0.645,0-1.267-0.18-1.708-0.442l0.275-0.765
		c0.347,0.203,0.908,0.442,1.47,0.442c0.872,0,1.302-0.467,1.302-1.052c0-0.609-0.347-0.944-1.207-1.29
		c-1.099-0.442-1.661-1.052-1.661-1.84c0-1.016,0.813-1.853,2.127-1.853c0.621,0,1.147,0.18,1.493,0.395L281.003,223.144z"/>
</g>
<g>
	<g>
		
			<line fill="none" stroke="#000000" stroke-width="0.75" stroke-miterlimit="10" x1="30.795" y1="195.251" x2="236.2" y2="195.251"/>
		<g>
			<path d="M26.269,195.251c2.13,0.791,4.771,2.14,6.411,3.567l-1.291-3.567l1.291-3.565
				C31.042,193.114,28.399,194.462,26.269,195.251z"/>
		</g>
		<g>
			<path d="M240.726,195.251c-2.13,0.791-4.772,2.14-6.411,3.567l1.291-3.567l-1.291-3.565
				C235.954,193.114,238.596,194.462,240.726,195.251z"/>
		</g>
	</g>
</g>
<g enable-background="new    ">
	<path d="M49.105,214.064v-8.017h-0.024l-1.47,0.848l-0.239-0.74l1.852-1.04h0.848v8.949H49.105z"/>
	<path d="M54.576,208.604c0.406-0.753,1.147-1.207,2.163-1.207c1.542,0,2.628,1.326,2.628,3.334c0,2.365-1.445,3.477-2.795,3.477
		c-0.944,0-1.637-0.383-2.103-1.219h-0.036l-0.06,1.075h-0.86c0.024-0.43,0.047-1.087,0.047-1.613v-7.945h0.992v4.099H54.576z
		 M54.552,211.519c0,0.968,0.729,1.876,1.828,1.876c1.267,0,1.971-1.087,1.971-2.629c0-1.361-0.669-2.557-1.936-2.557
		c-1.135,0-1.864,1.063-1.864,2.02V211.519z"/>
	<path d="M65.77,207.552l-1.732,4.612c-0.776,2.114-1.326,3.333-2.139,4.098c-0.549,0.502-1.087,0.705-1.326,0.765l-0.275-0.836
		c1.518-0.562,2.103-2.211,2.103-2.342c0-0.06-0.024-0.155-0.072-0.275l-2.306-6.021h1.087l1.422,3.955
		c0.167,0.454,0.311,0.968,0.418,1.362h0.036c0.107-0.395,0.263-0.885,0.418-1.387l1.314-3.931H65.77z"/>
	<path d="M67.131,206.37l0.979-0.335v1.518h1.685v0.777H68.11v3.763c0,0.825,0.251,1.278,0.884,1.278
		c0.299,0,0.502-0.035,0.669-0.095l0.06,0.765c-0.215,0.095-0.549,0.155-0.967,0.155c-1.577,0-1.625-1.435-1.625-2.127v-3.739
		h-1.004v-0.777h1.004V206.37z"/>
	<path d="M75.708,213.79c-0.37,0.179-1.051,0.406-2.043,0.406c-1.899,0-3.035-1.339-3.035-3.286c0-2.043,1.147-3.513,2.903-3.513
		c2.007,0,2.521,1.84,2.521,2.976c0,0.227-0.012,0.394-0.024,0.549h-4.433c0.012,1.805,1.04,2.485,2.21,2.485
		c0.813,0,1.302-0.167,1.708-0.334L75.708,213.79z M75.075,210.181c0.012-0.885-0.359-2.031-1.637-2.031
		c-1.195,0-1.72,1.135-1.816,2.031H75.075z"/>
	<path d="M84.058,209.476h-6.965v-0.717h6.965V209.476z M84.058,212.092h-6.965v-0.717h6.965V212.092z"/>
	<path d="M87.713,214.064v-8.017h-0.024l-1.47,0.848l-0.239-0.74l1.852-1.04h0.848v8.949H87.713z"/>
	<path d="M91.666,209.62c0-3.131,1.219-4.647,2.891-4.647c1.697,0,2.736,1.601,2.736,4.527c0,3.106-1.087,4.708-2.868,4.708
		C92.801,214.208,91.666,212.606,91.666,209.62z M96.29,209.547c0-2.233-0.538-3.775-1.792-3.775c-1.063,0-1.816,1.422-1.816,3.775
		c0,2.354,0.657,3.848,1.78,3.848C95.788,213.395,96.29,211.674,96.29,209.547z"/>
	<path d="M99.765,208.604c0.406-0.753,1.147-1.207,2.163-1.207c1.542,0,2.628,1.326,2.628,3.334c0,2.365-1.445,3.477-2.795,3.477
		c-0.944,0-1.637-0.383-2.103-1.219h-0.036l-0.06,1.075h-0.86c0.024-0.43,0.047-1.087,0.047-1.613v-7.945h0.992v4.099H99.765z
		 M99.741,211.519c0,0.968,0.729,1.876,1.828,1.876c1.267,0,1.971-1.087,1.971-2.629c0-1.361-0.669-2.557-1.936-2.557
		c-1.135,0-1.864,1.063-1.864,2.02V211.519z"/>
	<path d="M106.539,206.406c-0.382,0-0.646-0.299-0.646-0.682c0-0.37,0.275-0.669,0.657-0.669c0.395,0,0.645,0.299,0.645,0.669
		C107.196,206.143,106.921,206.406,106.539,206.406z M107.04,214.064h-0.992v-6.512h0.992V214.064z"/>
	<path d="M109.274,206.37l0.979-0.335v1.518h1.685v0.777h-1.685v3.763c0,0.825,0.251,1.278,0.884,1.278
		c0.299,0,0.502-0.035,0.669-0.095l0.06,0.765c-0.215,0.095-0.549,0.155-0.968,0.155c-1.577,0-1.625-1.435-1.625-2.127v-3.739
		h-1.004v-0.777h1.004V206.37z"/>
	<path d="M116.286,208.544c-0.239-0.155-0.681-0.383-1.267-0.383c-0.717,0-1.099,0.442-1.099,0.968c0,0.562,0.371,0.824,1.207,1.183
		c1.051,0.431,1.661,0.98,1.661,1.96c0,1.159-0.884,1.924-2.306,1.924c-0.645,0-1.267-0.18-1.708-0.442l0.275-0.765
		c0.347,0.203,0.908,0.442,1.47,0.442c0.872,0,1.302-0.467,1.302-1.052c0-0.609-0.347-0.944-1.207-1.29
		c-1.099-0.442-1.661-1.052-1.661-1.84c0-1.016,0.813-1.853,2.127-1.853c0.621,0,1.147,0.18,1.493,0.395L116.286,208.544z"/>
	<path d="M119.523,212.499c-0.298,1.1-0.884,2.604-1.207,3.166l-0.729,0.084c0.275-0.729,0.633-2.175,0.777-3.118L119.523,212.499z"
		/>
</g>
<g enable-background="new    ">
	<path d="M128.478,213.431c0.358-0.012,1.316-0.061,1.881-0.18c0.009,0.263,0.018,0.598,0.036,0.86
		c-0.591,0.083-1.487,0.132-1.854,0.132h-2.239c-1.353,0-2.006-0.789-2.006-2.498v-6.965l0.878,0.072
		c-0.018,0.119-0.081,0.19-0.242,0.215v3.895c1.37-0.574,3.278-1.529,4.442-2.365l0.457,0.824c-0.027,0.023-0.072,0.035-0.107,0.035
		c-0.045,0-0.081-0.012-0.125-0.035c-1.084,0.729-3.126,1.732-4.667,2.354v1.995c0,1.206,0.439,1.661,1.361,1.661H128.478z
		 M129.32,204.434c0.412,0.489,0.86,1.23,1.111,1.757l-0.34,0.346c-0.251-0.525-0.717-1.302-1.093-1.756L129.32,204.434z
		 M130.421,203.717c0.403,0.489,0.86,1.219,1.111,1.744l-0.34,0.347c-0.251-0.525-0.726-1.291-1.093-1.744L130.421,203.717z"/>
	<path d="M132.824,207.517c0.269,0.729,0.564,1.875,0.671,2.568l-0.501,0.18c-0.107-0.693-0.385-1.781-0.654-2.545L132.824,207.517z
		 M138.171,207.6c-0.018,0.108-0.107,0.132-0.188,0.12c-0.699,3.488-2.016,5.627-4.183,6.798c-0.072-0.144-0.233-0.419-0.349-0.55
		c2.141-1.123,3.368-3.082,4.021-6.643L138.171,207.6z M135,206.943c0.188,0.801,0.358,1.947,0.421,2.713l-0.528,0.131
		c-0.054-0.765-0.224-1.863-0.421-2.688L135,206.943z"/>
	<path d="M144.702,210.671c-0.914-0.658-2.167-1.434-3.144-1.948v5.974h-0.672v-10.382l0.905,0.071
		c-0.009,0.131-0.081,0.215-0.233,0.251v3.489l0.134-0.252c1.048,0.514,2.437,1.339,3.368,1.996L144.702,210.671z"/>
	<path d="M146.612,214.601h-0.6l2.839-9.785h0.618L146.612,214.601z"/>
</g>
<g enable-background="new    ">
	<path d="M154.143,208.998c0.277,0.348,1.137,1.578,1.316,1.877l-0.358,0.633c-0.161-0.371-0.618-1.146-0.958-1.709v5.281h-0.591
		v-5.604c-0.385,1.314-0.905,2.641-1.397,3.43c-0.071-0.216-0.215-0.539-0.313-0.718c0.573-0.872,1.227-2.485,1.595-3.919h-1.469
		v-0.764h1.585v-2.08c-0.466,0.168-0.958,0.323-1.424,0.442c-0.027-0.155-0.116-0.418-0.188-0.585
		c1.102-0.322,2.374-0.813,3.054-1.303l0.538,0.598c-0.036,0.048-0.045,0.048-0.17,0.048c-0.322,0.203-0.752,0.394-1.218,0.585
		v2.295h1.298v0.764h-1.298V208.998z M159.83,210.158c-0.027,0.083-0.081,0.119-0.179,0.131c-0.582,2.484-1.863,4.014-4.219,4.768
		c-0.054-0.228-0.206-0.526-0.34-0.717c2.23-0.609,3.475-1.996,4.013-4.409L159.83,210.158z M156.821,206.25
		c-0.018,0.084-0.081,0.133-0.188,0.12c-0.224,1.351-0.609,2.784-1.075,3.656c-0.107-0.12-0.322-0.299-0.457-0.395
		c0.439-0.824,0.797-2.234,1.012-3.62L156.821,206.25z M158.236,204.041c-0.009,0.083-0.054,0.143-0.179,0.166v6.201
		c0,0.86-0.269,0.969-1.505,0.969c-0.027-0.216-0.125-0.563-0.215-0.766c0.224,0,0.439,0.012,0.6,0.012c0.466,0,0.52,0,0.52-0.227
		v-6.416L158.236,204.041z M159.185,205.952c0.511,1.099,0.95,2.557,1.102,3.524l-0.546,0.263c-0.144-0.979-0.583-2.461-1.066-3.548
		L159.185,205.952z"/>
</g>
<g enable-background="new    ">
	<path d="M170.274,209.476h-6.965v-0.717h6.965V209.476z M170.274,212.092h-6.965v-0.717h6.965V212.092z"/>
	<path d="M172.327,209.321c0.406-0.598,1.135-1.1,2.091-1.1c1.518,0,2.533,1.136,2.533,2.855c0,1.638-1.003,3.131-2.748,3.131
		c-1.745,0-2.916-1.446-2.916-3.764c0-2.401,1.123-4.91,4.026-5.389c0.334-0.048,0.633-0.083,0.836-0.083l0.012,0.824
		c-2.485,0-3.668,1.804-3.871,3.524H172.327z M175.948,211.149c0-1.374-0.741-2.175-1.816-2.175c-1.051,0-1.852,1.027-1.852,1.696
		c0.012,1.638,0.705,2.761,1.948,2.761C175.266,213.431,175.948,212.499,175.948,211.149z"/>
	<path d="M177.882,209.62c0-3.131,1.219-4.647,2.891-4.647c1.697,0,2.736,1.601,2.736,4.527c0,3.106-1.087,4.708-2.868,4.708
		C179.017,214.208,177.882,212.606,177.882,209.62z M182.506,209.547c0-2.233-0.538-3.775-1.792-3.775
		c-1.063,0-1.816,1.422-1.816,3.775c0,2.354,0.657,3.848,1.78,3.848C182.004,213.395,182.506,211.674,182.506,209.547z"/>
	<path d="M184.464,209.62c0-3.131,1.219-4.647,2.891-4.647c1.697,0,2.736,1.601,2.736,4.527c0,3.106-1.087,4.708-2.868,4.708
		C185.599,214.208,184.464,212.606,184.464,209.62z M189.088,209.547c0-2.233-0.538-3.775-1.792-3.775
		c-1.063,0-1.816,1.422-1.816,3.775c0,2.354,0.657,3.848,1.78,3.848C188.586,213.395,189.088,211.674,189.088,209.547z"/>
	<path d="M192.563,208.604c0.406-0.753,1.147-1.207,2.163-1.207c1.542,0,2.628,1.326,2.628,3.334c0,2.365-1.445,3.477-2.795,3.477
		c-0.944,0-1.637-0.383-2.103-1.219h-0.036l-0.06,1.075h-0.86c0.023-0.43,0.047-1.087,0.047-1.613v-7.945h0.992v4.099H192.563z
		 M192.539,211.519c0,0.968,0.729,1.876,1.828,1.876c1.267,0,1.971-1.087,1.971-2.629c0-1.361-0.669-2.557-1.936-2.557
		c-1.135,0-1.864,1.063-1.864,2.02V211.519z"/>
	<path d="M199.778,208.652c0.454-0.801,1.207-1.255,2.222-1.255c1.542,0,2.652,1.326,2.652,3.321c0,2.39-1.398,3.489-2.832,3.489
		c-0.86,0-1.577-0.395-1.959-1.04h-0.024v3.561h-0.992v-7.085c0-0.848-0.023-1.505-0.047-2.103h0.896l0.06,1.111H199.778z
		 M199.838,211.471c0,1.267,0.944,1.936,1.828,1.936c1.278,0,1.983-1.099,1.983-2.652c0-1.35-0.681-2.545-1.948-2.545
		c-1.111,0-1.864,1.075-1.864,2.02V211.471z"/>
	<path d="M209.192,208.544c-0.239-0.155-0.681-0.383-1.267-0.383c-0.717,0-1.099,0.442-1.099,0.968c0,0.562,0.371,0.824,1.207,1.183
		c1.052,0.431,1.661,0.98,1.661,1.96c0,1.159-0.884,1.924-2.306,1.924c-0.645,0-1.266-0.18-1.708-0.442l0.275-0.765
		c0.347,0.203,0.908,0.442,1.47,0.442c0.872,0,1.302-0.467,1.302-1.052c0-0.609-0.347-0.944-1.207-1.29
		c-1.099-0.442-1.661-1.052-1.661-1.84c0-1.016,0.813-1.853,2.127-1.853c0.621,0,1.147,0.18,1.493,0.395L209.192,208.544z"/>
</g>
<g enable-background="new    ">
	<path d="M45.692,228.664v-8.017h-0.024l-1.47,0.848l-0.239-0.74l1.852-1.04h0.848v8.949H45.692z"/>
	<path d="M49.646,224.219c0-3.131,1.219-4.647,2.891-4.647c1.697,0,2.736,1.601,2.736,4.527c0,3.106-1.087,4.708-2.868,4.708
		C50.781,228.807,49.646,227.206,49.646,224.219z M54.269,224.147c0-2.233-0.538-3.775-1.792-3.775
		c-1.063,0-1.816,1.422-1.816,3.775c0,2.354,0.657,3.848,1.78,3.848C53.767,227.995,54.269,226.274,54.269,224.147z"/>
	<path d="M57.745,223.204c0.406-0.753,1.147-1.207,2.163-1.207c1.542,0,2.628,1.326,2.628,3.334c0,2.365-1.445,3.477-2.795,3.477
		c-0.944,0-1.637-0.383-2.103-1.219h-0.036l-0.06,1.075h-0.86c0.024-0.43,0.047-1.087,0.047-1.613v-7.945h0.992v4.099H57.745z
		 M57.721,226.119c0,0.968,0.729,1.876,1.828,1.876c1.267,0,1.971-1.087,1.971-2.629c0-1.361-0.669-2.557-1.936-2.557
		c-1.135,0-1.864,1.063-1.864,2.02V226.119z"/>
	<path d="M64.518,221.005c-0.382,0-0.646-0.299-0.646-0.682c0-0.37,0.275-0.669,0.657-0.669c0.395,0,0.645,0.299,0.645,0.669
		C65.175,220.743,64.9,221.005,64.518,221.005z M65.019,228.664h-0.992v-6.512h0.992V228.664z"/>
	<path d="M67.253,220.969l0.979-0.335v1.518h1.685v0.777h-1.685v3.763c0,0.825,0.251,1.278,0.884,1.278
		c0.299,0,0.502-0.035,0.669-0.095l0.06,0.765c-0.215,0.095-0.549,0.155-0.968,0.155c-1.577,0-1.625-1.435-1.625-2.127v-3.739
		h-1.004v-0.777h1.004V220.969z"/>
	<path d="M74.265,223.144c-0.239-0.155-0.681-0.383-1.267-0.383c-0.717,0-1.099,0.442-1.099,0.968c0,0.562,0.371,0.824,1.207,1.183
		c1.052,0.431,1.661,0.98,1.661,1.96c0,1.159-0.884,1.924-2.306,1.924c-0.645,0-1.266-0.18-1.708-0.442l0.275-0.765
		c0.347,0.203,0.908,0.442,1.47,0.442c0.872,0,1.302-0.467,1.302-1.052c0-0.609-0.347-0.944-1.207-1.29
		c-1.099-0.442-1.661-1.052-1.661-1.84c0-1.016,0.813-1.853,2.127-1.853c0.621,0,1.147,0.18,1.493,0.395L74.265,223.144z"/>
	<path d="M87.896,227.481l-0.526,0.537l-3.31-3.31l-3.297,3.31l-0.526-0.537l3.298-3.298l-3.298-3.298l0.526-0.537l3.297,3.31
		l3.31-3.31l0.526,0.525l-3.298,3.31L87.896,227.481z"/>
	<path d="M95.923,228.664v-8.017h-0.024l-1.47,0.848l-0.239-0.74l1.852-1.04h0.848v8.949H95.923z"/>
	<path d="M99.876,224.219c0-3.131,1.219-4.647,2.891-4.647c1.697,0,2.736,1.601,2.736,4.527c0,3.106-1.087,4.708-2.868,4.708
		C101.011,228.807,99.876,227.206,99.876,224.219z M104.5,224.147c0-2.233-0.538-3.775-1.792-3.775
		c-1.063,0-1.816,1.422-1.816,3.775c0,2.354,0.657,3.848,1.78,3.848C103.998,227.995,104.5,226.274,104.5,224.147z"/>
	<path d="M106.458,224.219c0-3.131,1.219-4.647,2.891-4.647c1.697,0,2.736,1.601,2.736,4.527c0,3.106-1.087,4.708-2.868,4.708
		C107.593,228.807,106.458,227.206,106.458,224.219z M111.081,224.147c0-2.233-0.538-3.775-1.792-3.775
		c-1.063,0-1.816,1.422-1.816,3.775c0,2.354,0.657,3.848,1.78,3.848C110.579,227.995,111.081,226.274,111.081,224.147z"/>
	<path d="M113.04,224.219c0-3.131,1.219-4.647,2.891-4.647c1.697,0,2.736,1.601,2.736,4.527c0,3.106-1.087,4.708-2.868,4.708
		C114.175,228.807,113.04,227.206,113.04,224.219z M117.663,224.147c0-2.233-0.538-3.775-1.792-3.775
		c-1.063,0-1.816,1.422-1.816,3.775c0,2.354,0.657,3.848,1.78,3.848C117.161,227.995,117.663,226.274,117.663,224.147z"/>
	<path d="M128.989,228.664h-0.979V224.9c0-1.267-0.454-2.079-1.434-2.079c-0.801,0-1.529,0.753-1.529,1.745v4.098h-0.98v-4.015
		c0-1.039-0.442-1.828-1.362-1.828c-0.849,0-1.601,0.837-1.601,1.853v3.99h-0.98v-4.839c0-0.669-0.024-1.146-0.047-1.685h0.872
		l0.06,1.052h0.036c0.358-0.634,0.956-1.195,1.983-1.195c0.849,0,1.505,0.526,1.78,1.303h0.024c0.43-0.776,1.087-1.303,2.091-1.303
		c0.801,0,2.067,0.514,2.067,2.748V228.664z"/>
	<path d="M133.957,223.144c-0.239-0.155-0.681-0.383-1.267-0.383c-0.717,0-1.099,0.442-1.099,0.968c0,0.562,0.371,0.824,1.207,1.183
		c1.051,0.431,1.661,0.98,1.661,1.96c0,1.159-0.884,1.924-2.306,1.924c-0.645,0-1.267-0.18-1.708-0.442l0.275-0.765
		c0.347,0.203,0.908,0.442,1.47,0.442c0.872,0,1.302-0.467,1.302-1.052c0-0.609-0.347-0.944-1.207-1.29
		c-1.099-0.442-1.661-1.052-1.661-1.84c0-1.016,0.813-1.853,2.127-1.853c0.621,0,1.147,0.18,1.493,0.395L133.957,223.144z"/>
	<path d="M138.555,229.202h-0.8l3.788-9.785h0.824L138.555,229.202z"/>
	<path d="M146.618,223.92c0.406-0.598,1.135-1.1,2.091-1.1c1.518,0,2.533,1.136,2.533,2.855c0,1.638-1.003,3.131-2.748,3.131
		c-1.745,0-2.916-1.446-2.916-3.764c0-2.401,1.123-4.91,4.026-5.389c0.334-0.048,0.633-0.083,0.836-0.083l0.012,0.824
		c-2.485,0-3.668,1.804-3.871,3.524H146.618z M150.239,225.749c0-1.374-0.741-2.175-1.816-2.175c-1.051,0-1.852,1.027-1.852,1.696
		c0.012,1.638,0.705,2.761,1.948,2.761C149.557,228.031,150.239,227.098,150.239,225.749z"/>
	<path d="M152.173,224.219c0-3.131,1.219-4.647,2.891-4.647c1.697,0,2.736,1.601,2.736,4.527c0,3.106-1.087,4.708-2.868,4.708
		C153.308,228.807,152.173,227.206,152.173,224.219z M156.797,224.147c0-2.233-0.538-3.775-1.792-3.775
		c-1.063,0-1.816,1.422-1.816,3.775c0,2.354,0.657,3.848,1.78,3.848C156.295,227.995,156.797,226.274,156.797,224.147z"/>
	<path d="M158.755,224.219c0-3.131,1.219-4.647,2.891-4.647c1.697,0,2.736,1.601,2.736,4.527c0,3.106-1.087,4.708-2.868,4.708
		C159.89,228.807,158.755,227.206,158.755,224.219z M163.379,224.147c0-2.233-0.538-3.775-1.792-3.775
		c-1.063,0-1.816,1.422-1.816,3.775c0,2.354,0.657,3.848,1.78,3.848C162.877,227.995,163.379,226.274,163.379,224.147z"/>
	<path d="M166.854,223.204c0.406-0.753,1.147-1.207,2.163-1.207c1.542,0,2.628,1.326,2.628,3.334c0,2.365-1.445,3.477-2.795,3.477
		c-0.944,0-1.637-0.383-2.103-1.219h-0.036l-0.06,1.075h-0.86c0.024-0.43,0.047-1.087,0.047-1.613v-7.945h0.992v4.099H166.854z
		 M166.83,226.119c0,0.968,0.729,1.876,1.828,1.876c1.267,0,1.971-1.087,1.971-2.629c0-1.361-0.669-2.557-1.936-2.557
		c-1.135,0-1.864,1.063-1.864,2.02V226.119z"/>
	<path d="M174.069,223.251c0.454-0.801,1.207-1.255,2.222-1.255c1.542,0,2.652,1.326,2.652,3.321c0,2.39-1.398,3.489-2.832,3.489
		c-0.86,0-1.577-0.395-1.959-1.04h-0.024v3.561h-0.992v-7.085c0-0.848-0.024-1.505-0.047-2.103h0.896l0.06,1.111H174.069z
		 M174.129,226.071c0,1.267,0.944,1.936,1.828,1.936c1.278,0,1.983-1.099,1.983-2.652c0-1.35-0.681-2.545-1.948-2.545
		c-1.111,0-1.864,1.075-1.864,2.02V226.071z"/>
	<path d="M183.483,223.144c-0.239-0.155-0.681-0.383-1.267-0.383c-0.717,0-1.099,0.442-1.099,0.968c0,0.562,0.371,0.824,1.207,1.183
		c1.051,0.431,1.661,0.98,1.661,1.96c0,1.159-0.884,1.924-2.306,1.924c-0.645,0-1.267-0.18-1.708-0.442l0.275-0.765
		c0.347,0.203,0.908,0.442,1.47,0.442c0.872,0,1.302-0.467,1.302-1.052c0-0.609-0.347-0.944-1.207-1.29
		c-1.099-0.442-1.661-1.052-1.661-1.84c0-1.016,0.813-1.853,2.127-1.853c0.621,0,1.147,0.18,1.493,0.395L183.483,223.144z"/>
	<path d="M194.807,224.076h-6.965v-0.717h6.965V224.076z M194.807,226.692h-6.965v-0.717h6.965V226.692z"/>
	<path d="M201.245,228.664v-8.017h-0.024l-1.47,0.848l-0.239-0.74l1.852-1.04h0.848v8.949H201.245z"/>
	<path d="M206.226,223.92c0.406-0.598,1.135-1.1,2.091-1.1c1.518,0,2.533,1.136,2.533,2.855c0,1.638-1.003,3.131-2.748,3.131
		c-1.745,0-2.916-1.446-2.916-3.764c0-2.401,1.123-4.91,4.026-5.389c0.334-0.048,0.633-0.083,0.836-0.083l0.012,0.824
		c-2.485,0-3.668,1.804-3.871,3.524H206.226z M209.846,225.749c0-1.374-0.741-2.175-1.816-2.175c-1.051,0-1.852,1.027-1.852,1.696
		c0.012,1.638,0.705,2.761,1.948,2.761C209.165,228.031,209.846,227.098,209.846,225.749z"/>
	<path d="M221.147,228.664h-0.979V224.9c0-1.267-0.454-2.079-1.434-2.079c-0.801,0-1.529,0.753-1.529,1.745v4.098h-0.98v-4.015
		c0-1.039-0.442-1.828-1.362-1.828c-0.849,0-1.601,0.837-1.601,1.853v3.99h-0.98v-4.839c0-0.669-0.023-1.146-0.047-1.685h0.872
		l0.06,1.052h0.036c0.358-0.634,0.956-1.195,1.983-1.195c0.849,0,1.505,0.526,1.78,1.303h0.024c0.43-0.776,1.087-1.303,2.091-1.303
		c0.801,0,2.067,0.514,2.067,2.748V228.664z"/>
	<path d="M226.116,223.144c-0.239-0.155-0.681-0.383-1.267-0.383c-0.717,0-1.099,0.442-1.099,0.968c0,0.562,0.371,0.824,1.207,1.183
		c1.052,0.431,1.661,0.98,1.661,1.96c0,1.159-0.884,1.924-2.306,1.924c-0.645,0-1.266-0.18-1.708-0.442l0.275-0.765
		c0.347,0.203,0.908,0.442,1.47,0.442c0.872,0,1.302-0.467,1.302-1.052c0-0.609-0.347-0.944-1.207-1.29
		c-1.099-0.442-1.661-1.052-1.661-1.84c0-1.016,0.813-1.853,2.127-1.853c0.621,0,1.147,0.18,1.493,0.395L226.116,223.144z"/>
</g>
<g>
	<g>
		<line fill="none" stroke="#000000" stroke-width="0.75" stroke-miterlimit="10" x1="30.795" y1="240.4" x2="292.635" y2="240.4"/>
		<g>
			<path d="M26.269,240.4c2.13,0.791,4.771,2.139,6.411,3.566l-1.291-3.566l1.291-3.566C31.042,238.262,28.399,239.61,26.269,240.4z
				"/>
		</g>
		<g>
			<path d="M297.16,240.4c-2.129,0.791-4.771,2.139-6.41,3.566l1.291-3.566l-1.291-3.566
				C292.389,238.262,295.031,239.61,297.16,240.4z"/>
		</g>
	</g>
</g>
<g enable-background="new    ">
	<path d="M106.957,254.796l0.107,0.693l-1.362,0.478v3.524c0,0.92-0.442,1.016-1.971,0.992c-0.024-0.203-0.144-0.55-0.251-0.777
		c0.334,0.013,0.633,0.024,0.872,0.024c0.514,0,0.574,0,0.574-0.239v-3.25c-0.562,0.191-1.087,0.371-1.494,0.502
		c-0.012,0.107-0.072,0.168-0.155,0.203l-0.287-0.932c0.525-0.144,1.194-0.347,1.936-0.585v-2.832h-1.804v-0.753h1.804v-2.449
		l1.003,0.06c-0.012,0.096-0.072,0.144-0.227,0.168v2.222h1.326v0.753h-1.326v2.593L106.957,254.796z M114.173,259.038v0.741h-5.567
		v0.717h-0.777v-7.014c-0.287,0.454-0.585,0.872-0.908,1.219c-0.107-0.167-0.347-0.478-0.502-0.633
		c0.968-1.052,1.828-2.855,2.33-4.695l0.979,0.274c-0.036,0.084-0.12,0.132-0.263,0.132c-0.215,0.681-0.466,1.361-0.753,2.019h1.816
		c0.334-0.692,0.705-1.673,0.92-2.377l0.956,0.322c-0.036,0.071-0.131,0.119-0.263,0.119c-0.215,0.562-0.526,1.303-0.836,1.936
		h2.664v0.729h-2.604v1.672h2.282v0.705h-2.282v1.697h2.282v0.704h-2.282v1.732H114.173z M110.601,254.199v-1.672h-1.995v1.672
		H110.601z M110.601,256.601v-1.697h-1.995v1.697H110.601z M108.606,257.305v1.732h1.995v-1.732H108.606z"/>
	<path d="M117.003,254.57c-0.43-0.383-1.291-0.896-2.007-1.207l0.442-0.585c0.717,0.274,1.589,0.752,2.02,1.135L117.003,254.57z
		 M115.247,259.898c0.49-0.932,1.195-2.521,1.708-3.871l0.633,0.431c-0.454,1.254-1.076,2.735-1.529,3.632
		c0.048,0.071,0.071,0.132,0.071,0.191c0,0.035-0.012,0.083-0.036,0.119L115.247,259.898z M117.433,251.416
		c-0.395-0.406-1.219-0.968-1.912-1.314l0.466-0.573c0.693,0.322,1.517,0.848,1.936,1.242L117.433,251.416z M119.763,258.083
		c-0.048,0.083-0.131,0.119-0.251,0.107c-0.418,0.836-1.087,1.744-1.72,2.329c-0.144-0.131-0.418-0.334-0.598-0.441
		c0.609-0.526,1.254-1.422,1.649-2.294L119.763,258.083z M118.305,249.946h3.5v7.599h-3.5V249.946z M119.01,250.663v1.589h2.067
		v-1.589H119.01z M119.01,252.933v1.589h2.067v-1.589H119.01z M119.01,255.203v1.613h2.067v-1.613H119.01z M121.842,260.053
		c-0.275-0.489-0.873-1.302-1.374-1.876l0.597-0.37c0.502,0.562,1.123,1.338,1.398,1.816L121.842,260.053z M122.786,250.651
		l0.944,0.06c-0.012,0.071-0.084,0.132-0.227,0.155v6.702h-0.717V250.651z M124.912,249.396l0.979,0.06
		c-0.012,0.084-0.071,0.144-0.239,0.155v9.846c0,0.991-0.43,1.039-2.354,1.039c-0.036-0.203-0.144-0.55-0.251-0.776
		c0.43,0.012,0.836,0.023,1.135,0.023c0.633,0,0.729,0,0.729-0.286V249.396z"/>
	<path d="M129.677,249.91c-0.024,0.144-0.131,0.228-0.37,0.263c-0.096,1.387-0.215,4.553-0.215,6.32c0,1.78,0.884,2.641,2.39,2.641
		c1.458,0,2.939-0.729,4.301-2.27c0.119,0.19,0.394,0.573,0.538,0.704c-1.398,1.59-3.095,2.426-4.851,2.426
		c-2.174,0-3.285-1.255-3.285-3.513c0-1.505,0.107-5.209,0.191-6.679L129.677,249.91z"/>
	<path d="M144.49,252.013c-1.016,0.358-2.366,0.585-3.668,0.681c-0.502,2.736-1.23,5.46-2.187,7.467l-0.86-0.322
		c0.979-1.924,1.696-4.396,2.163-7.108c-0.239,0.012-1.84,0.023-2.199,0.012l-0.012-0.813c0.191,0.012,0.442,0.012,0.717,0.012
		c0.107,0,1.302,0,1.613-0.012c0.12-0.765,0.239-1.602,0.311-2.33l1.231,0.12c-0.012,0.131-0.179,0.227-0.347,0.238
		c-0.072,0.526-0.191,1.171-0.299,1.899c1.171-0.107,2.354-0.311,3.346-0.669L144.49,252.013z M147.669,259.97
		c-0.358,0.012-0.729,0.023-1.099,0.023c-1.123,0-2.187-0.084-2.832-0.263c-0.849-0.239-1.338-0.86-1.326-1.648
		c0.012-0.526,0.239-1.123,0.741-1.732l0.717,0.311c-0.418,0.489-0.622,0.955-0.622,1.326c0,0.943,0.908,1.183,3.083,1.183
		c0.442,0,0.896-0.012,1.338-0.048V259.97z M143.009,254.211c1.23-0.395,2.927-0.646,4.337-0.609v0.813
		c-1.35-0.036-2.915,0.155-4.134,0.537L143.009,254.211z"/>
	<path d="M150.725,255.024c-0.43,0.562-0.884,1.075-1.314,1.505c-0.083-0.167-0.311-0.514-0.442-0.681
		c0.956-0.908,2.091-2.401,2.808-3.823l0.896,0.347c-0.047,0.095-0.167,0.119-0.274,0.107c-0.263,0.489-0.574,0.991-0.908,1.481
		l0.227,0.071c-0.024,0.072-0.096,0.132-0.239,0.144v6.32h-0.753V255.024z M152.434,249.754c-0.048,0.107-0.167,0.107-0.263,0.096
		c-0.646,0.824-1.78,1.936-2.712,2.688c-0.095-0.155-0.311-0.442-0.454-0.586c0.884-0.669,1.971-1.72,2.544-2.557L152.434,249.754z
		 M156.628,253.339h3.441v0.74h-7.563v-0.74h3.333v-1.709h-2.7v-0.717h2.7v-1.529l1.027,0.071c-0.012,0.084-0.083,0.144-0.239,0.155
		v1.303h2.832v0.717h-2.832V253.339z M158.42,254.367c-0.012,0.083-0.072,0.143-0.239,0.155v1.158h1.804v0.741h-1.804v3.118
		c0,0.932-0.454,0.956-2.342,0.956c-0.048-0.215-0.155-0.538-0.263-0.753c0.43,0.012,0.825,0.024,1.123,0.024
		c0.633,0,0.693,0,0.693-0.239v-3.106h-4.863v-0.741h4.863v-1.373L158.42,254.367z M154.955,259.181
		c-0.251-0.562-0.86-1.397-1.434-2.007l0.621-0.347c0.585,0.585,1.219,1.397,1.481,1.959L154.955,259.181z"/>
	<path d="M169.864,251.81c-1.553,0.394-3.716,0.645-5.138,0.692c-0.155,1.493-0.37,2.725-0.562,3.166
		c0.932-0.753,2.377-1.267,3.393-1.267c1.78,0,2.868,0.956,2.868,2.569c0,2.377-2.402,3.178-6.285,3.273
		c-0.048-0.227-0.131-0.585-0.239-0.788c3.429-0.072,5.651-0.657,5.651-2.462c0-1.075-0.717-1.815-2.103-1.815
		c-1.063,0-2.891,0.645-3.68,1.827l-0.836-0.394c0.382-0.431,0.776-2.139,0.956-4.099h-2.795v-0.836
		c0.501,0.012,1.971,0.012,2.867,0.012c0.048-0.681,0.072-1.445,0.072-2.162l1.267,0.119c-0.024,0.203-0.167,0.239-0.382,0.263
		c-0.024,0.598-0.06,1.207-0.108,1.769c1.267-0.036,3.465-0.311,4.899-0.729L169.864,251.81z"/>
	<path d="M175.823,250.185v7.909h-2.628v0.968h-0.765v-8.877H175.823z M175.071,250.925h-1.875v2.808h1.875V250.925z
		 M173.195,257.353h1.875v-2.891h-1.875V257.353z M179.946,253.244h3.142v0.729h-7.049v-0.729h3.119v-1.637h-2.605v-0.718h2.605
		v-1.481l1.027,0.061c-0.012,0.083-0.083,0.143-0.239,0.167v1.254h2.664v0.718h-2.664V253.244z M181.845,254.307
		c-0.012,0.083-0.072,0.143-0.227,0.155v1.027h1.446v0.717h-1.446v3.345c0,0.49-0.107,0.717-0.478,0.837
		c-0.358,0.119-0.968,0.131-1.959,0.131c-0.036-0.215-0.155-0.537-0.275-0.752c0.454,0.012,0.884,0.023,1.195,0.023
		c0.669,0,0.729,0,0.729-0.251v-3.333h-4.743v-0.717h4.743v-1.243L181.845,254.307z M178.44,259.265
		c-0.275-0.598-0.944-1.506-1.565-2.15l0.645-0.383c0.633,0.621,1.326,1.506,1.613,2.103L178.44,259.265z"/>
	<path d="M188.904,254.043h-3.56v6.464h-0.789v-10.586h4.349V254.043z M188.139,250.555h-2.795v1.099h2.795V250.555z
		 M185.344,253.411h2.795v-1.147h-2.795V253.411z M191.724,259.361h-3.764v0.633h-0.741v-5.006h4.504V259.361z M190.959,255.633
		h-2.999v1.194h2.999V255.633z M187.96,258.715h2.999v-1.255h-2.999V258.715z M194.496,249.921v9.463
		c0,1.063-0.466,1.111-2.533,1.111c-0.024-0.228-0.155-0.609-0.274-0.836c0.382,0.012,0.765,0.023,1.063,0.023
		c0.873,0,0.944,0,0.944-0.299v-5.328h-3.656v-4.135H194.496z M193.695,250.555h-2.879v1.099h2.879V250.555z M190.816,253.422h2.879
		v-1.159h-2.879V253.422z"/>
</g>
<g enable-background="new    ">
	<path d="M99.683,273.811v-8.017h-0.024l-1.47,0.848l-0.239-0.74l1.852-1.04h0.848v8.949H99.683z"/>
	<path d="M104.664,269.068c0.406-0.598,1.135-1.1,2.091-1.1c1.518,0,2.533,1.136,2.533,2.855c0,1.638-1.003,3.131-2.748,3.131
		c-1.745,0-2.916-1.446-2.916-3.764c0-2.401,1.123-4.91,4.026-5.389c0.334-0.048,0.633-0.083,0.836-0.083l0.012,0.824
		c-2.485,0-3.668,1.804-3.871,3.524H104.664z M108.284,270.896c0-1.374-0.741-2.175-1.816-2.175c-1.051,0-1.852,1.027-1.852,1.696
		c0.012,1.638,0.705,2.761,1.948,2.761C107.603,273.178,108.284,272.246,108.284,270.896z"/>
	<path d="M119.586,273.811h-0.979v-3.764c0-1.267-0.454-2.079-1.434-2.079c-0.801,0-1.529,0.753-1.529,1.745v4.098h-0.98v-4.015
		c0-1.039-0.442-1.828-1.362-1.828c-0.849,0-1.601,0.837-1.601,1.853v3.99h-0.98v-4.839c0-0.669-0.023-1.146-0.047-1.685h0.872
		l0.06,1.052h0.036c0.358-0.634,0.956-1.195,1.983-1.195c0.849,0,1.505,0.526,1.78,1.303h0.024c0.43-0.776,1.087-1.303,2.091-1.303
		c0.801,0,2.067,0.514,2.067,2.748V273.811z"/>
	<path d="M124.554,268.292c-0.239-0.155-0.681-0.383-1.267-0.383c-0.717,0-1.099,0.442-1.099,0.968c0,0.562,0.371,0.824,1.207,1.183
		c1.051,0.431,1.661,0.98,1.661,1.96c0,1.159-0.884,1.924-2.306,1.924c-0.645,0-1.267-0.18-1.708-0.442l0.275-0.765
		c0.347,0.203,0.908,0.442,1.47,0.442c0.872,0,1.302-0.467,1.302-1.052c0-0.609-0.347-0.944-1.207-1.29
		c-1.099-0.442-1.661-1.052-1.661-1.84c0-1.016,0.813-1.853,2.127-1.853c0.621,0,1.147,0.18,1.493,0.395L124.554,268.292z"/>
	<path d="M132.02,266.619h0.765v3.226h3.106v0.717h-3.106v3.25h-0.765v-3.25h-3.106v-0.717h3.106V266.619z"/>
	<path d="M144.3,273.811h-0.944v-2.509h-3.907v-0.634l3.823-5.807h1.028v5.676h1.218v0.765H144.3V273.811z M140.453,270.538h2.903
		v-3.179c0-0.489,0.024-0.968,0.048-1.434h-0.048c-0.275,0.55-0.49,0.933-0.717,1.339l-2.187,3.249V270.538z"/>
	<path d="M155.637,273.811h-0.979v-3.764c0-1.267-0.454-2.079-1.434-2.079c-0.801,0-1.529,0.753-1.529,1.745v4.098h-0.98v-4.015
		c0-1.039-0.442-1.828-1.362-1.828c-0.849,0-1.601,0.837-1.601,1.853v3.99h-0.98v-4.839c0-0.669-0.024-1.146-0.047-1.685h0.872
		l0.06,1.052h0.036c0.358-0.634,0.956-1.195,1.983-1.195c0.849,0,1.505,0.526,1.78,1.303h0.024c0.43-0.776,1.087-1.303,2.091-1.303
		c0.801,0,2.067,0.514,2.067,2.748V273.811z"/>
	<path d="M160.605,268.292c-0.239-0.155-0.681-0.383-1.267-0.383c-0.717,0-1.099,0.442-1.099,0.968c0,0.562,0.371,0.824,1.207,1.183
		c1.052,0.431,1.661,0.98,1.661,1.96c0,1.159-0.884,1.924-2.306,1.924c-0.645,0-1.266-0.18-1.708-0.442l0.275-0.765
		c0.347,0.203,0.908,0.442,1.47,0.442c0.872,0,1.302-0.467,1.302-1.052c0-0.609-0.347-0.944-1.207-1.29
		c-1.099-0.442-1.661-1.052-1.661-1.84c0-1.016,0.813-1.853,2.127-1.853c0.621,0,1.147,0.18,1.493,0.395L160.605,268.292z"/>
	<path d="M171.93,269.223h-6.965v-0.717h6.965V269.223z M171.93,271.839h-6.965v-0.717h6.965V271.839z"/>
	<path d="M181.14,273.811h-5.293v-0.609l0.872-0.92c2.127-2.15,3.202-3.453,3.202-4.91c0-0.956-0.418-1.84-1.708-1.84
		c-0.717,0-1.362,0.394-1.792,0.74l-0.334-0.692c0.55-0.49,1.362-0.873,2.318-0.873c1.804,0,2.521,1.314,2.521,2.545
		c0,1.685-1.183,3.118-3.035,4.982l-0.705,0.741v0.023h3.955V273.811z"/>
	<path d="M182.322,269.367c0-3.131,1.219-4.647,2.891-4.647c1.697,0,2.736,1.601,2.736,4.527c0,3.106-1.087,4.708-2.868,4.708
		C183.456,273.955,182.322,272.353,182.322,269.367z M186.945,269.294c0-2.233-0.538-3.775-1.792-3.775
		c-1.063,0-1.816,1.422-1.816,3.775c0,2.354,0.657,3.848,1.78,3.848C186.443,273.142,186.945,271.421,186.945,269.294z"/>
	<path d="M198.27,273.811h-0.979v-3.764c0-1.267-0.454-2.079-1.434-2.079c-0.801,0-1.529,0.753-1.529,1.745v4.098h-0.98v-4.015
		c0-1.039-0.442-1.828-1.362-1.828c-0.849,0-1.601,0.837-1.601,1.853v3.99h-0.98v-4.839c0-0.669-0.023-1.146-0.047-1.685h0.872
		l0.06,1.052h0.036c0.358-0.634,0.956-1.195,1.983-1.195c0.849,0,1.505,0.526,1.78,1.303h0.024c0.43-0.776,1.087-1.303,2.091-1.303
		c0.801,0,2.067,0.514,2.067,2.748V273.811z"/>
	<path d="M203.239,268.292c-0.239-0.155-0.681-0.383-1.267-0.383c-0.717,0-1.099,0.442-1.099,0.968c0,0.562,0.371,0.824,1.207,1.183
		c1.051,0.431,1.661,0.98,1.661,1.96c0,1.159-0.884,1.924-2.306,1.924c-0.645,0-1.267-0.18-1.708-0.442l0.275-0.765
		c0.347,0.203,0.908,0.442,1.47,0.442c0.872,0,1.302-0.467,1.302-1.052c0-0.609-0.347-0.944-1.207-1.29
		c-1.099-0.442-1.661-1.052-1.661-1.84c0-1.016,0.813-1.853,2.127-1.853c0.621,0,1.147,0.18,1.493,0.395L203.239,268.292z"/>
</g>
</svg>
