<?xml version="1.0" encoding="utf-8"?>
<!-- Generator: Adobe Illustrator 16.0.0, SVG Export Plug-In . SVG Version: 6.00 Build 0)  -->
<!DOCTYPE svg PUBLIC "-//W3C//DTD SVG 1.1//EN" "http://www.w3.org/Graphics/SVG/1.1/DTD/svg11.dtd">
<svg version="1.1" id="レイヤー_1" xmlns="http://www.w3.org/2000/svg" xmlns:xlink="http://www.w3.org/1999/xlink" x="0px"
	 y="0px" width="558.339px" height="166.423px" viewBox="0 0 558.339 166.423" enable-background="new 0 0 558.339 166.423"
	 xml:space="preserve">
<rect fill="#FFFFFF" width="558.339" height="166.423"/>
<g>
	<g>
		<g>
			<path d="M218.726,122.284c0.646,0.758,1.301,1.874,1.587,2.622l-0.637,0.323c-0.258-0.729-0.914-1.883-1.533-2.641
				L218.726,122.284z M225.188,122.396c-0.028,0.083-0.092,0.12-0.24,0.12c-0.932,3.443-2.705,5.465-5.299,6.646
				c-0.102-0.139-0.314-0.369-0.471-0.489c2.539-1.117,4.247-3.037,5.124-6.563L225.188,122.396z"/>
		</g>
		<g>
			<path d="M221.812,135.816v-0.779l2.292-0.004v2.454c-0.351,0.343-0.714,0.6-1.09,0.772s-0.761,0.259-1.158,0.259
				c-0.528,0-1-0.132-1.414-0.396s-0.743-0.65-0.984-1.158s-0.362-1.117-0.362-1.83c0-0.721,0.122-1.349,0.365-1.884
				c0.243-0.534,0.562-0.929,0.955-1.183c0.393-0.254,0.858-0.381,1.396-0.381c0.396,0,0.743,0.073,1.041,0.221
				c0.297,0.146,0.542,0.355,0.734,0.626c0.192,0.271,0.336,0.641,0.433,1.112l-0.644,0.216c-0.087-0.372-0.197-0.65-0.329-0.835
				c-0.132-0.185-0.307-0.33-0.523-0.435c-0.216-0.105-0.459-0.158-0.729-0.158c-0.394,0-0.732,0.096-1.016,0.286
				c-0.284,0.191-0.512,0.488-0.685,0.891c-0.173,0.403-0.259,0.895-0.259,1.475c0,0.883,0.185,1.545,0.554,1.985
				c0.37,0.44,0.85,0.66,1.441,0.66c0.282,0,0.571-0.067,0.867-0.202c0.295-0.136,0.531-0.296,0.705-0.482v-1.229H221.812z"/>
		</g>
	</g>
	<g>
		<g>
			<path d="M275.05,122.285c0.646,0.758,1.302,1.874,1.588,2.622l-0.637,0.323c-0.259-0.729-0.914-1.883-1.532-2.641L275.05,122.285
				z M281.512,122.396c-0.027,0.083-0.092,0.12-0.239,0.12c-0.933,3.443-2.705,5.465-5.299,6.646
				c-0.102-0.139-0.314-0.369-0.472-0.489c2.539-1.117,4.247-3.037,5.124-6.563L281.512,122.396z"/>
		</g>
		<g>
			<path d="M278.137,135.817v-0.779l2.293-0.004v2.454c-0.352,0.343-0.715,0.6-1.091,0.772c-0.375,0.173-0.761,0.259-1.157,0.259
				c-0.528,0-1-0.132-1.414-0.396s-0.742-0.65-0.984-1.158c-0.241-0.508-0.362-1.117-0.362-1.83c0-0.721,0.121-1.349,0.365-1.884
				c0.243-0.534,0.561-0.929,0.954-1.183s0.859-0.381,1.396-0.381c0.396,0,0.743,0.073,1.04,0.221
				c0.298,0.146,0.542,0.355,0.734,0.626s0.337,0.641,0.433,1.112l-0.645,0.216c-0.087-0.372-0.196-0.65-0.328-0.835
				c-0.133-0.185-0.307-0.33-0.522-0.435c-0.217-0.105-0.46-0.158-0.729-0.158c-0.394,0-0.732,0.096-1.016,0.286
				c-0.284,0.191-0.513,0.488-0.685,0.891c-0.173,0.403-0.26,0.895-0.26,1.475c0,0.883,0.185,1.545,0.555,1.985
				c0.369,0.44,0.85,0.66,1.44,0.66c0.282,0,0.571-0.067,0.867-0.202c0.296-0.136,0.531-0.296,0.705-0.482v-1.229H278.137z"/>
		</g>
	</g>
	<g>
		<g>
			<path d="M338.615,122.284c0.646,0.758,1.302,1.874,1.588,2.622l-0.637,0.323c-0.259-0.729-0.914-1.883-1.532-2.641
				L338.615,122.284z M345.077,122.396c-0.027,0.083-0.092,0.12-0.239,0.12c-0.933,3.443-2.705,5.465-5.299,6.646
				c-0.102-0.139-0.314-0.369-0.472-0.489c2.539-1.117,4.247-3.037,5.124-6.563L345.077,122.396z"/>
		</g>
		<g>
			<path d="M341.702,135.816v-0.779l2.293-0.004v2.454c-0.352,0.343-0.715,0.6-1.091,0.772c-0.375,0.173-0.761,0.259-1.157,0.259
				c-0.528,0-1-0.132-1.414-0.396s-0.742-0.65-0.984-1.158c-0.241-0.508-0.362-1.117-0.362-1.83c0-0.721,0.121-1.349,0.365-1.884
				c0.243-0.534,0.561-0.929,0.954-1.183s0.859-0.381,1.396-0.381c0.396,0,0.743,0.073,1.04,0.221
				c0.298,0.146,0.542,0.355,0.734,0.626s0.337,0.641,0.433,1.112l-0.645,0.216c-0.087-0.372-0.196-0.65-0.328-0.835
				c-0.133-0.185-0.307-0.33-0.522-0.435c-0.217-0.105-0.46-0.158-0.729-0.158c-0.394,0-0.732,0.096-1.016,0.286
				c-0.284,0.191-0.513,0.488-0.685,0.891c-0.173,0.403-0.26,0.895-0.26,1.475c0,0.883,0.185,1.545,0.555,1.985
				c0.369,0.44,0.85,0.66,1.44,0.66c0.282,0,0.571-0.067,0.867-0.202c0.296-0.136,0.531-0.296,0.705-0.482v-1.229H341.702z"/>
		</g>
	</g>
	<g>
		<g>
			<path d="M397.704,122.284c0.646,0.758,1.302,1.874,1.588,2.622l-0.637,0.323c-0.259-0.729-0.914-1.883-1.532-2.641
				L397.704,122.284z M404.166,122.396c-0.027,0.083-0.092,0.12-0.239,0.12c-0.933,3.443-2.705,5.465-5.299,6.646
				c-0.102-0.139-0.314-0.369-0.472-0.489c2.539-1.117,4.247-3.037,5.124-6.563L404.166,122.396z"/>
		</g>
		<g>
			<path d="M400.79,135.816v-0.779l2.293-0.004v2.454c-0.352,0.343-0.715,0.6-1.091,0.772c-0.375,0.173-0.761,0.259-1.157,0.259
				c-0.528,0-1-0.132-1.414-0.396s-0.742-0.65-0.984-1.158c-0.241-0.508-0.362-1.117-0.362-1.83c0-0.721,0.121-1.349,0.365-1.884
				c0.243-0.534,0.561-0.929,0.954-1.183s0.859-0.381,1.396-0.381c0.396,0,0.743,0.073,1.04,0.221
				c0.298,0.146,0.542,0.355,0.734,0.626s0.337,0.641,0.433,1.112l-0.645,0.216c-0.087-0.372-0.196-0.65-0.328-0.835
				c-0.133-0.185-0.307-0.33-0.522-0.435c-0.217-0.105-0.46-0.158-0.729-0.158c-0.394,0-0.732,0.096-1.016,0.286
				c-0.284,0.191-0.513,0.488-0.685,0.891c-0.173,0.403-0.26,0.895-0.26,1.475c0,0.883,0.185,1.545,0.555,1.985
				c0.369,0.44,0.85,0.66,1.44,0.66c0.282,0,0.571-0.067,0.867-0.202c0.296-0.136,0.531-0.296,0.705-0.482v-1.229H400.79z"/>
		</g>
	</g>
	<g>
		<g>
			<path d="M490.269,122.284c0.646,0.758,1.302,1.874,1.588,2.622l-0.637,0.323c-0.259-0.729-0.914-1.883-1.532-2.641
				L490.269,122.284z M496.731,122.396c-0.027,0.083-0.092,0.12-0.239,0.12c-0.933,3.443-2.705,5.465-5.299,6.646
				c-0.102-0.139-0.314-0.369-0.472-0.489c2.539-1.117,4.247-3.037,5.124-6.563L496.731,122.396z"/>
		</g>
		<g>
			<path d="M493.356,135.816v-0.779l2.293-0.004v2.454c-0.352,0.343-0.715,0.6-1.091,0.772c-0.375,0.173-0.761,0.259-1.157,0.259
				c-0.528,0-1-0.132-1.414-0.396s-0.742-0.65-0.984-1.158c-0.241-0.508-0.362-1.117-0.362-1.83c0-0.721,0.121-1.349,0.365-1.884
				c0.243-0.534,0.561-0.929,0.954-1.183s0.859-0.381,1.396-0.381c0.396,0,0.743,0.073,1.04,0.221
				c0.298,0.146,0.542,0.355,0.734,0.626s0.337,0.641,0.433,1.112l-0.645,0.216c-0.087-0.372-0.196-0.65-0.328-0.835
				c-0.133-0.185-0.307-0.33-0.522-0.435c-0.217-0.105-0.46-0.158-0.729-0.158c-0.394,0-0.732,0.096-1.016,0.286
				c-0.284,0.191-0.513,0.488-0.685,0.891c-0.173,0.403-0.26,0.895-0.26,1.475c0,0.883,0.185,1.545,0.555,1.985
				c0.369,0.44,0.85,0.66,1.44,0.66c0.282,0,0.571-0.067,0.867-0.202c0.296-0.136,0.531-0.296,0.705-0.482v-1.229H493.356z"/>
		</g>
	</g>
	<g>
		<g>
			<path d="M146.633,122.285c0.646,0.758,1.301,1.874,1.587,2.622l-0.637,0.323c-0.258-0.729-0.914-1.883-1.533-2.641
				L146.633,122.285z M153.095,122.396c-0.028,0.083-0.092,0.12-0.24,0.12c-0.932,3.443-2.705,5.465-5.299,6.646
				c-0.102-0.139-0.314-0.369-0.471-0.489c2.539-1.117,4.247-3.037,5.124-6.563L153.095,122.396z"/>
		</g>
		<g>
			<path d="M149.719,135.817v-0.779l2.292-0.004v2.454c-0.351,0.343-0.714,0.6-1.09,0.772s-0.761,0.259-1.158,0.259
				c-0.528,0-1-0.132-1.414-0.396s-0.743-0.65-0.984-1.158s-0.362-1.117-0.362-1.83c0-0.721,0.122-1.349,0.365-1.884
				c0.243-0.534,0.562-0.929,0.955-1.183c0.393-0.254,0.858-0.381,1.396-0.381c0.396,0,0.743,0.073,1.041,0.221
				c0.297,0.146,0.542,0.355,0.734,0.626c0.192,0.271,0.336,0.641,0.433,1.112l-0.644,0.216c-0.087-0.372-0.197-0.65-0.329-0.835
				c-0.132-0.185-0.307-0.33-0.523-0.435c-0.216-0.105-0.459-0.158-0.729-0.158c-0.394,0-0.732,0.096-1.016,0.286
				c-0.284,0.191-0.512,0.488-0.685,0.891c-0.173,0.403-0.259,0.895-0.259,1.475c0,0.883,0.185,1.545,0.554,1.985
				c0.37,0.44,0.85,0.66,1.441,0.66c0.282,0,0.571-0.067,0.867-0.202c0.295-0.136,0.531-0.296,0.705-0.482v-1.229H149.719z"/>
		</g>
	</g>
	<g>
		<g>
			<path d="M90.402,122.284c0.646,0.758,1.301,1.874,1.587,2.622l-0.637,0.323c-0.258-0.729-0.914-1.883-1.533-2.641L90.402,122.284
				z M96.864,122.396c-0.028,0.083-0.092,0.12-0.24,0.12c-0.932,3.443-2.705,5.465-5.299,6.646
				c-0.102-0.139-0.314-0.369-0.471-0.489c2.539-1.117,4.247-3.037,5.124-6.563L96.864,122.396z"/>
		</g>
		<g>
			<path d="M93.488,135.816v-0.779l2.292-0.004v2.454c-0.351,0.343-0.714,0.6-1.09,0.772s-0.761,0.259-1.158,0.259
				c-0.528,0-1-0.132-1.414-0.396s-0.743-0.65-0.984-1.158s-0.362-1.117-0.362-1.83c0-0.721,0.122-1.349,0.365-1.884
				c0.243-0.534,0.562-0.929,0.955-1.183c0.393-0.254,0.858-0.381,1.396-0.381c0.396,0,0.743,0.073,1.041,0.221
				c0.297,0.146,0.542,0.355,0.734,0.626c0.192,0.271,0.336,0.641,0.433,1.112l-0.644,0.216c-0.087-0.372-0.197-0.65-0.329-0.835
				c-0.132-0.185-0.307-0.33-0.523-0.435c-0.216-0.105-0.459-0.158-0.729-0.158c-0.394,0-0.732,0.096-1.016,0.286
				c-0.284,0.191-0.512,0.488-0.685,0.891c-0.173,0.403-0.259,0.895-0.259,1.475c0,0.883,0.185,1.545,0.554,1.985
				c0.37,0.44,0.85,0.66,1.441,0.66c0.282,0,0.571-0.067,0.867-0.202c0.295-0.136,0.531-0.296,0.705-0.482v-1.229H93.488z"/>
		</g>
	</g>
	<g>
		<g>
			<path d="M435.225,55.247c0.646,0.757,1.302,1.874,1.588,2.622l-0.637,0.323c-0.259-0.729-0.914-1.883-1.532-2.64L435.225,55.247z
				 M441.687,55.357c-0.027,0.083-0.092,0.12-0.239,0.12c-0.933,3.443-2.705,5.465-5.299,6.646
				c-0.102-0.139-0.314-0.369-0.472-0.489c2.539-1.117,4.247-3.037,5.124-6.563L441.687,55.357z"/>
		</g>
		<g>
			<path d="M438.311,68.778v-0.779l2.293-0.004v2.455c-0.352,0.342-0.715,0.6-1.091,0.772c-0.375,0.173-0.761,0.259-1.157,0.259
				c-0.528,0-1-0.132-1.414-0.397c-0.414-0.264-0.742-0.65-0.984-1.158c-0.241-0.508-0.362-1.118-0.362-1.83
				c0-0.721,0.121-1.349,0.365-1.884c0.243-0.535,0.561-0.929,0.954-1.183s0.859-0.381,1.396-0.381c0.396,0,0.743,0.074,1.04,0.221
				c0.298,0.147,0.542,0.356,0.734,0.626c0.192,0.27,0.337,0.641,0.433,1.112l-0.645,0.216c-0.087-0.373-0.196-0.651-0.328-0.835
				c-0.133-0.185-0.307-0.33-0.522-0.435c-0.217-0.105-0.46-0.158-0.729-0.158c-0.394,0-0.732,0.095-1.016,0.286
				c-0.284,0.191-0.513,0.488-0.685,0.89c-0.173,0.403-0.26,0.894-0.26,1.474c0,0.884,0.185,1.545,0.555,1.986
				c0.369,0.44,0.85,0.66,1.44,0.66c0.282,0,0.571-0.067,0.867-0.203c0.296-0.135,0.531-0.295,0.705-0.482v-1.229H438.311z"/>
		</g>
	</g>
	<g>
		<g>
			<path d="M464.726,55.247c0.646,0.757,1.302,1.874,1.588,2.622l-0.637,0.323c-0.259-0.729-0.914-1.883-1.532-2.64L464.726,55.247z
				 M471.188,55.357c-0.027,0.083-0.092,0.12-0.239,0.12c-0.933,3.443-2.705,5.465-5.299,6.646
				c-0.102-0.139-0.314-0.369-0.472-0.489c2.539-1.117,4.247-3.037,5.124-6.563L471.188,55.357z"/>
		</g>
		<g>
			<path d="M467.813,68.778v-0.779l2.293-0.004v2.455c-0.352,0.342-0.715,0.6-1.091,0.772c-0.375,0.173-0.761,0.259-1.157,0.259
				c-0.528,0-1-0.132-1.414-0.397c-0.414-0.264-0.742-0.65-0.984-1.158c-0.241-0.508-0.362-1.118-0.362-1.83
				c0-0.721,0.121-1.349,0.365-1.884c0.243-0.535,0.561-0.929,0.954-1.183s0.859-0.381,1.396-0.381c0.396,0,0.743,0.074,1.04,0.221
				c0.298,0.147,0.542,0.356,0.734,0.626c0.192,0.27,0.337,0.641,0.433,1.112l-0.645,0.216c-0.087-0.373-0.196-0.651-0.328-0.835
				c-0.133-0.185-0.307-0.33-0.522-0.435c-0.217-0.105-0.46-0.158-0.729-0.158c-0.394,0-0.732,0.095-1.016,0.286
				c-0.284,0.191-0.513,0.488-0.685,0.89c-0.173,0.403-0.26,0.894-0.26,1.474c0,0.884,0.185,1.545,0.555,1.986
				c0.369,0.44,0.85,0.66,1.44,0.66c0.282,0,0.571-0.067,0.867-0.203c0.296-0.135,0.531-0.295,0.705-0.482v-1.229H467.813z"/>
		</g>
	</g>
	<g>
		<g>
			<path d="M494.228,55.247c0.646,0.757,1.302,1.874,1.588,2.622l-0.637,0.323c-0.259-0.729-0.914-1.883-1.532-2.64L494.228,55.247z
				 M500.69,55.357c-0.027,0.083-0.092,0.12-0.239,0.12c-0.933,3.443-2.705,5.465-5.299,6.646c-0.102-0.139-0.314-0.369-0.472-0.489
				c2.539-1.117,4.247-3.037,5.124-6.563L500.69,55.357z"/>
		</g>
		<g>
			<path d="M497.315,68.778v-0.779l2.293-0.004v2.455c-0.352,0.342-0.715,0.6-1.091,0.772c-0.375,0.173-0.761,0.259-1.157,0.259
				c-0.528,0-1-0.132-1.414-0.397c-0.414-0.264-0.742-0.65-0.984-1.158c-0.241-0.508-0.362-1.118-0.362-1.83
				c0-0.721,0.121-1.349,0.365-1.884c0.243-0.535,0.561-0.929,0.954-1.183s0.859-0.381,1.396-0.381c0.396,0,0.743,0.074,1.04,0.221
				c0.298,0.147,0.542,0.356,0.734,0.626c0.192,0.27,0.337,0.641,0.433,1.112l-0.645,0.216c-0.087-0.373-0.196-0.651-0.328-0.835
				c-0.133-0.185-0.307-0.33-0.522-0.435c-0.217-0.105-0.46-0.158-0.729-0.158c-0.394,0-0.732,0.095-1.016,0.286
				c-0.284,0.191-0.513,0.488-0.685,0.89c-0.173,0.403-0.26,0.894-0.26,1.474c0,0.884,0.185,1.545,0.555,1.986
				c0.369,0.44,0.85,0.66,1.44,0.66c0.282,0,0.571-0.067,0.867-0.203c0.296-0.135,0.531-0.295,0.705-0.482v-1.229H497.315z"/>
		</g>
	</g>
	<g>
		<g>
			<path d="M61.985,55.246c0.646,0.757,1.301,1.874,1.587,2.622l-0.637,0.323c-0.258-0.729-0.914-1.883-1.533-2.64L61.985,55.246z
				 M68.447,55.357c-0.028,0.083-0.092,0.12-0.24,0.12c-0.932,3.443-2.705,5.465-5.299,6.646c-0.102-0.138-0.314-0.369-0.471-0.489
				c2.539-1.117,4.247-3.037,5.124-6.563L68.447,55.357z"/>
		</g>
		<g>
			<path d="M65.071,68.777v-0.779l2.292-0.004v2.455c-0.351,0.342-0.714,0.6-1.09,0.772c-0.375,0.173-0.761,0.259-1.158,0.259
				c-0.528,0-1-0.132-1.414-0.397c-0.415-0.264-0.743-0.65-0.984-1.158s-0.362-1.118-0.362-1.83c0-0.721,0.122-1.349,0.365-1.884
				c0.243-0.535,0.562-0.929,0.955-1.183c0.393-0.254,0.858-0.381,1.396-0.381c0.396,0,0.743,0.074,1.041,0.221
				c0.297,0.147,0.542,0.356,0.734,0.626c0.192,0.27,0.336,0.641,0.433,1.112l-0.644,0.216c-0.087-0.373-0.197-0.651-0.329-0.835
				c-0.132-0.185-0.307-0.33-0.523-0.435c-0.216-0.105-0.459-0.158-0.729-0.158c-0.394,0-0.732,0.095-1.016,0.286
				s-0.512,0.488-0.685,0.89c-0.173,0.403-0.259,0.894-0.259,1.474c0,0.884,0.185,1.545,0.554,1.986c0.37,0.44,0.85,0.66,1.441,0.66
				c0.282,0,0.571-0.067,0.867-0.203c0.295-0.135,0.531-0.295,0.705-0.482v-1.229H65.071z"/>
		</g>
	</g>
	<g>
		<g>
			<path d="M368.049,127.262c2.031,0.23,4.403,0.757,5.854,1.329l-0.277,0.646c-1.311-0.545-3.767-1.127-5.798-1.366
				L368.049,127.262z M368.789,124.437c1.468,0.147,3.313,0.499,4.458,0.85l-0.212,0.646c-1.08-0.369-2.945-0.72-4.44-0.867
				L368.789,124.437z M368.825,121.584c1.569,0.166,3.582,0.535,4.856,0.988l-0.268,0.646c-1.274-0.479-3.231-0.84-4.801-1.016
				L368.825,121.584z"/>
		</g>
		<g>
			<path d="M370.167,138.408v-6.603h3.914v0.779h-3.197v2.018h2.995v0.779h-2.995v2.247h3.323v0.779H370.167z"/>
		</g>
	</g>
	<g>
		<g>
			<path d="M118.717,127.262c2.031,0.23,4.403,0.757,5.853,1.329l-0.277,0.646c-1.311-0.545-3.767-1.127-5.797-1.366
				L118.717,127.262z M119.455,124.437c1.468,0.147,3.314,0.499,4.459,0.85l-0.212,0.646c-1.08-0.369-2.945-0.72-4.44-0.867
				L119.455,124.437z M119.492,121.584c1.569,0.166,3.582,0.535,4.855,0.988l-0.268,0.646c-1.274-0.479-3.231-0.84-4.8-1.016
				L119.492,121.584z"/>
		</g>
		<g>
			<path d="M120.835,138.408v-6.603h3.914v0.779h-3.198v2.018h2.996v0.779h-2.996v2.247h3.324v0.779H120.835z"/>
		</g>
	</g>
	<g>
		<g>
			<path d="M118.717,60.223c2.031,0.231,4.403,0.757,5.853,1.33l-0.277,0.646c-1.311-0.544-3.767-1.126-5.797-1.366L118.717,60.223z
				 M119.455,57.398c1.468,0.148,3.314,0.499,4.459,0.849l-0.212,0.646c-1.08-0.369-2.945-0.72-4.44-0.868L119.455,57.398z
				 M119.492,54.545c1.569,0.166,3.582,0.536,4.855,0.988l-0.268,0.646c-1.274-0.48-3.231-0.84-4.8-1.015L119.492,54.545z"/>
		</g>
		<g>
			<path d="M120.835,71.369v-6.603h3.914v0.779h-3.198v2.018h2.996v0.779h-2.996v2.248h3.324v0.779H120.835z"/>
		</g>
	</g>
	<g>
		<g>
			<path d="M90.3,60.223c2.031,0.231,4.403,0.757,5.853,1.33l-0.277,0.646c-1.311-0.544-3.767-1.126-5.797-1.366L90.3,60.223z
				 M91.039,57.398c1.468,0.148,3.314,0.499,4.459,0.849l-0.212,0.646c-1.08-0.369-2.945-0.72-4.44-0.868L91.039,57.398z
				 M91.076,54.545c1.569,0.166,3.582,0.536,4.855,0.988l-0.268,0.646c-1.274-0.48-3.231-0.84-4.8-1.015L91.076,54.545z"/>
		</g>
		<g>
			<path d="M92.419,71.369v-6.603h3.914v0.779h-3.198v2.018h2.996v0.779h-2.996v2.248h3.324v0.779H92.419z"/>
		</g>
	</g>
	<g>
		<g>
			<path d="M192.456,55.486c-0.027,0.046-0.064,0.083-0.12,0.101c-0.729,3.499-2.539,5.576-5.558,6.638
				c-0.102-0.157-0.305-0.406-0.425-0.536c2.862-0.932,4.616-2.991,5.17-5.788h-6.038v-0.618h6.277l0.129-0.083L192.456,55.486z"/>
			<path d="M201.394,56.603c-0.009,0.028-0.055,0.056-0.092,0.065c-0.397,0.904-1.191,1.883-1.883,2.456
				c-0.102-0.092-0.323-0.25-0.452-0.333c0.655-0.48,1.357-1.33,1.588-1.92h-5.345v-0.526h5.622l0.074-0.046L201.394,56.603z
				 M198.431,57.933c-0.018,0.055-0.074,0.111-0.175,0.129c-0.203,1.653-0.821,3.213-2.326,4.219
				c-0.111-0.092-0.333-0.268-0.48-0.351c1.514-0.969,2.068-2.308,2.243-4.099L198.431,57.933z"/>
		</g>
		<g>
			<path d="M191.872,71.368v-6.603h3.652v0.779h-2.937v2.045h2.541v0.779h-2.541v3H191.872z"/>
		</g>
	</g>
	<g>
		<g>
			<path d="M248.197,128.332c2.345-0.655,4.21-1.781,5.346-3.794c0.12,0.157,0.351,0.351,0.489,0.462
				c-1.246,2.123-3.306,3.36-6.084,4.089c-0.019,0.074-0.074,0.157-0.147,0.185l-0.388-0.646l0.11-0.176v-6.804l0.951,0.046
				c-0.01,0.102-0.093,0.186-0.277,0.203V128.332z"/>
		</g>
		<g>
			<path d="M247.849,138.407v-6.603h1.869c0.463,0,0.813,0.04,1.054,0.121c0.315,0.105,0.589,0.298,0.82,0.577
				c0.231,0.278,0.411,0.631,0.54,1.056s0.194,0.929,0.194,1.511c0,0.748-0.11,1.383-0.329,1.903
				c-0.22,0.521-0.501,0.891-0.845,1.108s-0.793,0.326-1.349,0.326H247.849z M248.565,137.628h1.153
				c0.466,0,0.818-0.076,1.059-0.228s0.425-0.396,0.554-0.731c0.172-0.447,0.257-0.983,0.257-1.608c0-0.669-0.091-1.195-0.272-1.578
				s-0.415-0.639-0.7-0.769c-0.192-0.087-0.497-0.13-0.914-0.13h-1.136V137.628z"/>
		</g>
	</g>
	<g>
		<g>
			<path d="M368.428,60.222c2.031,0.231,4.403,0.757,5.854,1.33l-0.277,0.646c-1.311-0.544-3.767-1.126-5.798-1.366L368.428,60.222z
				 M369.167,57.397c1.468,0.148,3.313,0.499,4.458,0.849l-0.212,0.646c-1.08-0.369-2.945-0.72-4.44-0.868L369.167,57.397z
				 M369.204,54.545c1.569,0.166,3.582,0.536,4.856,0.988l-0.268,0.646c-1.274-0.48-3.231-0.84-4.801-1.015L369.204,54.545z"/>
		</g>
		<g>
			<path d="M370.547,71.368v-6.603h3.914v0.779h-3.197v2.018h2.995v0.779h-2.995v2.248h3.323v0.779H370.547z"/>
		</g>
	</g>
	<g>
		<g>
			<path d="M399.491,55.486c-0.027,0.046-0.064,0.083-0.12,0.102c-0.729,3.499-2.538,5.576-5.557,6.638
				c-0.102-0.157-0.305-0.406-0.425-0.535c2.861-0.933,4.615-2.991,5.169-5.789h-6.037v-0.618h6.277l0.13-0.083L399.491,55.486z"/>
			<path d="M408.429,56.604c-0.009,0.028-0.056,0.056-0.092,0.064c-0.397,0.905-1.191,1.883-1.884,2.456
				c-0.102-0.093-0.323-0.25-0.452-0.333c0.655-0.48,1.357-1.33,1.588-1.92h-5.345v-0.526h5.622l0.073-0.046L408.429,56.604z
				 M405.466,57.933c-0.019,0.055-0.074,0.111-0.176,0.129c-0.203,1.653-0.821,3.213-2.326,4.219
				c-0.111-0.093-0.332-0.268-0.48-0.351c1.515-0.969,2.068-2.308,2.243-4.099L405.466,57.933z"/>
		</g>
		<g>
			<path d="M398.906,71.369v-6.603h3.653v0.779h-2.937v2.045h2.54v0.779h-2.54v3H398.906z"/>
		</g>
	</g>
	<g>
		<g>
			<path d="M340.453,61.293c2.345-0.656,4.21-1.782,5.346-3.794c0.12,0.157,0.351,0.351,0.489,0.461
				c-1.246,2.124-3.306,3.36-6.084,4.09c-0.019,0.074-0.074,0.157-0.147,0.185l-0.388-0.646l0.11-0.176v-6.804l0.951,0.046
				c-0.01,0.102-0.093,0.185-0.277,0.203V61.293z"/>
		</g>
		<g>
			<path d="M340.105,71.368v-6.603h1.869c0.463,0,0.813,0.041,1.054,0.122c0.315,0.105,0.589,0.297,0.82,0.577
				s0.411,0.631,0.54,1.056s0.194,0.929,0.194,1.511c0,0.748-0.11,1.382-0.329,1.903c-0.22,0.521-0.501,0.89-0.845,1.108
				s-0.793,0.327-1.349,0.327H340.105z M340.821,70.589h1.153c0.466,0,0.818-0.076,1.059-0.228c0.24-0.151,0.425-0.396,0.554-0.732
				c0.172-0.447,0.257-0.983,0.257-1.608c0-0.669-0.091-1.196-0.272-1.579s-0.415-0.639-0.7-0.768
				c-0.192-0.087-0.497-0.131-0.914-0.131h-1.136V70.589z"/>
		</g>
	</g>
	<g>
		<g>
			<path d="M250.503,61.294c2.345-0.656,4.21-1.782,5.346-3.794c0.12,0.157,0.351,0.351,0.489,0.461
				c-1.246,2.124-3.306,3.36-6.084,4.09c-0.019,0.074-0.074,0.157-0.147,0.185l-0.388-0.646l0.11-0.176V54.61l0.951,0.046
				c-0.01,0.102-0.093,0.185-0.277,0.203V61.294z"/>
		</g>
		<g>
			<path d="M250.156,71.369v-6.603h1.869c0.463,0,0.813,0.041,1.054,0.122c0.315,0.105,0.589,0.297,0.82,0.577
				s0.411,0.631,0.54,1.056s0.194,0.929,0.194,1.511c0,0.748-0.11,1.382-0.329,1.903c-0.22,0.521-0.501,0.89-0.845,1.108
				s-0.793,0.327-1.349,0.327H250.156z M250.872,70.59h1.153c0.466,0,0.818-0.076,1.059-0.228c0.24-0.151,0.425-0.396,0.554-0.732
				c0.172-0.447,0.257-0.983,0.257-1.608c0-0.669-0.091-1.196-0.272-1.579s-0.415-0.639-0.7-0.768
				c-0.192-0.087-0.497-0.131-0.914-0.131h-1.136V70.59z"/>
		</g>
	</g>
	<g>
		<g>
			<path d="M220.959,61.292c2.345-0.656,4.209-1.782,5.345-3.794c0.12,0.157,0.351,0.351,0.489,0.461
				c-1.246,2.124-3.305,3.36-6.083,4.09c-0.019,0.074-0.074,0.157-0.147,0.185l-0.388-0.646l0.11-0.176v-6.804l0.951,0.046
				c-0.009,0.102-0.092,0.185-0.277,0.203V61.292z"/>
		</g>
		<g>
			<path d="M220.611,71.368v-6.603h1.869c0.462,0,0.814,0.041,1.054,0.122c0.315,0.105,0.588,0.297,0.82,0.577
				c0.231,0.279,0.411,0.631,0.541,1.056c0.129,0.425,0.193,0.929,0.193,1.511c0,0.748-0.109,1.382-0.329,1.903
				s-0.501,0.89-0.845,1.108s-0.793,0.327-1.349,0.327H220.611z M221.327,70.589h1.153c0.465,0,0.818-0.076,1.059-0.228
				c0.24-0.151,0.425-0.396,0.554-0.732c0.171-0.447,0.256-0.983,0.256-1.608c0-0.669-0.091-1.196-0.272-1.579
				s-0.415-0.639-0.7-0.768c-0.192-0.087-0.497-0.131-0.915-0.131h-1.135V70.589z"/>
		</g>
	</g>
	<g>
		<g>
			<path d="M315.719,126.264c-0.941-0.508-2.233-1.108-3.24-1.505v4.606h-0.692v-8.022l0.933,0.056
				c-0.009,0.102-0.083,0.166-0.24,0.193v2.715l0.139-0.203c1.08,0.396,2.511,1.033,3.471,1.541L315.719,126.264z M314.75,121.915
				c0.425,0.352,0.979,0.933,1.273,1.357l-0.351,0.286c-0.277-0.396-0.84-1.016-1.256-1.348L314.75,121.915z M315.987,121.121
				c0.435,0.36,0.988,0.942,1.266,1.349l-0.333,0.286c-0.286-0.397-0.849-1.007-1.265-1.349L315.987,121.121z"/>
		</g>
		<g>
			<path d="M314.81,136.092l0.721,0.221c-0.159,0.742-0.438,1.295-0.836,1.66s-0.882,0.547-1.452,0.547
				c-0.502,0-0.931-0.122-1.286-0.367s-0.647-0.638-0.874-1.179c-0.227-0.54-0.34-1.179-0.34-1.915c0-0.728,0.113-1.343,0.34-1.846
				c0.228-0.503,0.535-0.884,0.923-1.141s0.82-0.385,1.298-0.385c0.523,0,0.973,0.162,1.348,0.487
				c0.376,0.325,0.639,0.802,0.789,1.431l-0.702,0.203c-0.24-0.916-0.724-1.374-1.448-1.374c-0.36,0-0.673,0.093-0.938,0.277
				c-0.265,0.186-0.477,0.473-0.634,0.863c-0.158,0.391-0.237,0.885-0.237,1.483c0,0.904,0.159,1.583,0.478,2.035
				s0.742,0.679,1.271,0.679c0.391,0,0.728-0.139,1.011-0.417C314.524,137.078,314.713,136.656,314.81,136.092z"/>
		</g>
	</g>
	<g>
		<g>
			<path d="M438.406,126.264c-0.941-0.508-2.233-1.108-3.24-1.505v4.606h-0.692v-8.022l0.933,0.056
				c-0.009,0.102-0.083,0.166-0.24,0.193v2.715l0.139-0.203c1.08,0.396,2.511,1.033,3.471,1.541L438.406,126.264z M437.437,121.915
				c0.425,0.352,0.979,0.933,1.273,1.357l-0.351,0.286c-0.277-0.396-0.84-1.016-1.256-1.348L437.437,121.915z M438.673,121.121
				c0.435,0.36,0.988,0.942,1.266,1.349l-0.333,0.286c-0.286-0.397-0.849-1.007-1.265-1.349L438.673,121.121z"/>
		</g>
		<g>
			<path d="M437.497,136.092l0.721,0.221c-0.159,0.742-0.438,1.295-0.836,1.66s-0.882,0.547-1.452,0.547
				c-0.502,0-0.931-0.122-1.286-0.367s-0.647-0.638-0.874-1.179c-0.227-0.54-0.34-1.179-0.34-1.915c0-0.728,0.113-1.343,0.34-1.846
				c0.228-0.503,0.535-0.884,0.923-1.141s0.82-0.385,1.298-0.385c0.523,0,0.973,0.162,1.348,0.487
				c0.376,0.325,0.639,0.802,0.789,1.431l-0.702,0.203c-0.24-0.916-0.724-1.374-1.448-1.374c-0.36,0-0.673,0.093-0.938,0.277
				c-0.265,0.186-0.477,0.473-0.634,0.863c-0.158,0.391-0.237,0.885-0.237,1.483c0,0.904,0.159,1.583,0.478,2.035
				s0.742,0.679,1.271,0.679c0.391,0,0.728-0.139,1.011-0.417C437.21,137.078,437.4,136.656,437.497,136.092z"/>
		</g>
	</g>
	<g>
		<g>
			<path d="M466.238,126.265c-0.941-0.508-2.233-1.108-3.24-1.505v4.606h-0.692v-8.022l0.933,0.056
				c-0.009,0.102-0.083,0.166-0.24,0.193v2.715l0.139-0.203c1.08,0.396,2.511,1.033,3.471,1.541L466.238,126.265z M465.269,121.916
				c0.425,0.352,0.979,0.933,1.273,1.357l-0.351,0.286c-0.277-0.396-0.84-1.016-1.256-1.348L465.269,121.916z M466.505,121.122
				c0.435,0.36,0.988,0.942,1.266,1.349l-0.333,0.286c-0.286-0.397-0.849-1.007-1.265-1.349L466.505,121.122z"/>
		</g>
		<g>
			<path d="M465.329,136.093l0.721,0.221c-0.159,0.742-0.438,1.295-0.836,1.66s-0.882,0.547-1.452,0.547
				c-0.502,0-0.931-0.122-1.286-0.367s-0.647-0.638-0.874-1.179c-0.227-0.54-0.34-1.179-0.34-1.915c0-0.728,0.113-1.343,0.34-1.846
				c0.228-0.503,0.535-0.884,0.923-1.141s0.82-0.385,1.298-0.385c0.523,0,0.973,0.162,1.348,0.487
				c0.376,0.325,0.639,0.802,0.789,1.431l-0.702,0.203c-0.24-0.916-0.724-1.374-1.448-1.374c-0.36,0-0.673,0.093-0.938,0.277
				c-0.265,0.186-0.477,0.473-0.634,0.863c-0.158,0.391-0.237,0.885-0.237,1.483c0,0.904,0.159,1.583,0.478,2.035
				s0.742,0.679,1.271,0.679c0.391,0,0.728-0.139,1.011-0.417C465.042,137.079,465.232,136.657,465.329,136.093z"/>
		</g>
	</g>
	<g>
		<g>
			<path d="M495.77,148.28c-0.941-0.508-2.233-1.108-3.24-1.505v4.606h-0.692v-8.022l0.933,0.056
				c-0.009,0.102-0.083,0.166-0.24,0.193v2.715l0.139-0.203c1.08,0.396,2.511,1.033,3.471,1.541L495.77,148.28z M494.801,143.932
				c0.425,0.352,0.979,0.933,1.273,1.357l-0.351,0.286c-0.277-0.396-0.84-1.016-1.256-1.348L494.801,143.932z M496.038,143.138
				c0.435,0.36,0.988,0.942,1.266,1.349l-0.333,0.286c-0.286-0.397-0.849-1.007-1.265-1.349L496.038,143.138z"/>
		</g>
		<g>
			<path d="M494.862,158.108l0.721,0.221c-0.159,0.742-0.438,1.295-0.836,1.66s-0.882,0.547-1.452,0.547
				c-0.502,0-0.931-0.122-1.286-0.367s-0.647-0.638-0.874-1.179c-0.227-0.54-0.34-1.179-0.34-1.915c0-0.728,0.113-1.343,0.34-1.846
				c0.228-0.503,0.535-0.884,0.923-1.141s0.82-0.385,1.298-0.385c0.523,0,0.973,0.162,1.348,0.487
				c0.376,0.325,0.639,0.802,0.789,1.431l-0.702,0.203c-0.24-0.916-0.724-1.374-1.448-1.374c-0.36,0-0.673,0.093-0.938,0.277
				c-0.265,0.186-0.477,0.473-0.634,0.863c-0.158,0.391-0.237,0.885-0.237,1.483c0,0.904,0.159,1.583,0.478,2.035
				s0.742,0.679,1.271,0.679c0.391,0,0.728-0.139,1.011-0.417C494.576,159.095,494.765,158.673,494.862,158.108z"/>
		</g>
	</g>
	<g>
		<g>
			<path d="M67.487,126.264c-0.942-0.508-2.234-1.108-3.24-1.505v4.606h-0.692v-8.022l0.932,0.056
				c-0.009,0.102-0.083,0.166-0.24,0.193v2.715l0.138-0.203c1.08,0.396,2.511,1.033,3.471,1.541L67.487,126.264z M66.518,121.915
				c0.424,0.352,0.979,0.933,1.274,1.357l-0.351,0.286c-0.277-0.396-0.84-1.016-1.255-1.348L66.518,121.915z M67.754,121.121
				c0.434,0.36,0.988,0.942,1.265,1.349l-0.332,0.286c-0.287-0.397-0.85-1.007-1.265-1.349L67.754,121.121z"/>
		</g>
		<g>
			<path d="M66.577,136.092l0.721,0.221c-0.159,0.742-0.438,1.295-0.835,1.66s-0.882,0.547-1.453,0.547
				c-0.501,0-0.93-0.122-1.286-0.367s-0.647-0.638-0.874-1.179c-0.227-0.54-0.34-1.179-0.34-1.915c0-0.728,0.113-1.343,0.34-1.846
				s0.534-0.884,0.922-1.141s0.821-0.385,1.298-0.385c0.523,0,0.973,0.162,1.348,0.487s0.639,0.802,0.789,1.431l-0.703,0.203
				c-0.241-0.916-0.723-1.374-1.448-1.374c-0.361,0-0.674,0.093-0.938,0.277c-0.264,0.186-0.476,0.473-0.633,0.863
				c-0.158,0.391-0.237,0.885-0.237,1.483c0,0.904,0.159,1.583,0.477,2.035c0.318,0.452,0.742,0.679,1.271,0.679
				c0.39,0,0.727-0.139,1.011-0.417C66.291,137.078,66.481,136.656,66.577,136.092z"/>
		</g>
	</g>
	<g>
		<g>
			<path d="M315.719,59.226c-0.941-0.508-2.233-1.108-3.24-1.505v4.606h-0.692v-8.022l0.933,0.056
				c-0.009,0.102-0.083,0.166-0.24,0.194v2.714l0.139-0.203c1.08,0.397,2.511,1.034,3.471,1.542L315.719,59.226z M314.75,54.877
				c0.425,0.351,0.979,0.932,1.273,1.357l-0.351,0.286c-0.277-0.397-0.84-1.016-1.256-1.348L314.75,54.877z M315.987,54.083
				c0.435,0.36,0.988,0.941,1.266,1.348l-0.333,0.286c-0.286-0.397-0.849-1.006-1.265-1.348L315.987,54.083z"/>
		</g>
		<g>
			<path d="M314.81,69.053l0.721,0.221c-0.159,0.742-0.438,1.295-0.836,1.66s-0.882,0.547-1.452,0.547
				c-0.502,0-0.931-0.123-1.286-0.368c-0.355-0.245-0.647-0.638-0.874-1.178c-0.227-0.541-0.34-1.18-0.34-1.916
				c0-0.727,0.113-1.342,0.34-1.846c0.228-0.503,0.535-0.883,0.923-1.14s0.82-0.386,1.298-0.386c0.523,0,0.973,0.163,1.348,0.488
				c0.376,0.325,0.639,0.802,0.789,1.431l-0.702,0.203c-0.24-0.916-0.724-1.374-1.448-1.374c-0.36,0-0.673,0.092-0.938,0.277
				c-0.265,0.185-0.477,0.472-0.634,0.863c-0.158,0.391-0.237,0.885-0.237,1.483c0,0.904,0.159,1.583,0.478,2.035
				s0.742,0.678,1.271,0.678c0.391,0,0.728-0.139,1.011-0.417C314.524,70.039,314.713,69.618,314.81,69.053z"/>
		</g>
	</g>
	<g>
		<g>
			<path d="M191.168,123.993c0.831,0.185,1.865,0.536,2.483,0.831l-0.277,0.582c-0.609-0.296-1.671-0.665-2.483-0.85
				L191.168,123.993z M191.722,128.508c3-1.007,5.05-2.604,6.278-5.373c0.138,0.12,0.424,0.314,0.563,0.406
				c-1.237,2.742-3.388,4.449-6.213,5.456c0.019,0.083-0.028,0.193-0.111,0.23L191.722,128.508z M192.184,121.704
				c0.831,0.222,1.846,0.591,2.474,0.904l-0.305,0.563c-0.656-0.332-1.616-0.701-2.446-0.933L192.184,121.704z"/>
		</g>
		<g>
			<path d="M192.736,138.407v-6.603h2.034c0.412,0,0.738,0.063,0.979,0.191c0.24,0.127,0.438,0.326,0.591,0.596
				c0.153,0.271,0.23,0.568,0.23,0.896c0,0.304-0.066,0.576-0.198,0.819c-0.132,0.243-0.318,0.438-0.559,0.585
				c0.314,0.114,0.561,0.309,0.742,0.584c0.181,0.274,0.271,0.613,0.271,1.017c0,0.399-0.082,0.75-0.245,1.052
				c-0.164,0.302-0.382,0.521-0.655,0.658c-0.273,0.137-0.649,0.205-1.126,0.205H192.736z M193.452,134.579h1.173
				c0.307,0,0.525-0.021,0.654-0.063c0.187-0.063,0.33-0.169,0.431-0.317c0.101-0.148,0.151-0.351,0.151-0.605
				c0-0.237-0.046-0.435-0.137-0.593c-0.092-0.157-0.214-0.267-0.366-0.326c-0.152-0.061-0.425-0.09-0.819-0.09h-1.088V134.579z
				 M193.452,137.628h1.349c0.298,0,0.518-0.027,0.659-0.081c0.205-0.078,0.36-0.206,0.467-0.385c0.106-0.179,0.16-0.403,0.16-0.674
				c0-0.249-0.051-0.46-0.154-0.633c-0.102-0.173-0.24-0.299-0.413-0.378c-0.173-0.08-0.444-0.119-0.814-0.119h-1.254V137.628z"/>
		</g>
	</g>
</g>
<g>
	<line stroke="#000000" stroke-width="0.5765" stroke-miterlimit="10" x1="21.966" y1="16.178" x2="544.916" y2="16.178"/>
	<line stroke="#000000" stroke-width="0.5765" stroke-miterlimit="10" x1="21.966" y1="22.715" x2="544.916" y2="22.715"/>
	<line stroke="#000000" stroke-width="0.5765" stroke-miterlimit="10" x1="21.966" y1="29.252" x2="544.916" y2="29.252"/>
	<line stroke="#000000" stroke-width="0.5765" stroke-miterlimit="10" x1="21.966" y1="35.789" x2="544.916" y2="35.789"/>
	<line stroke="#000000" stroke-width="0.5765" stroke-miterlimit="10" x1="21.966" y1="42.325" x2="544.916" y2="42.325"/>
	<line stroke="#000000" stroke-width="0.5765" stroke-miterlimit="10" x1="21.966" y1="81.548" x2="544.916" y2="81.548"/>
	<line stroke="#000000" stroke-width="0.5765" stroke-miterlimit="10" x1="21.966" y1="88.084" x2="544.916" y2="88.084"/>
	<line stroke="#000000" stroke-width="0.5765" stroke-miterlimit="10" x1="21.966" y1="94.622" x2="544.916" y2="94.622"/>
	<line stroke="#000000" stroke-width="0.5765" stroke-miterlimit="10" x1="21.966" y1="101.158" x2="544.916" y2="101.158"/>
	<line stroke="#000000" stroke-width="0.5765" stroke-miterlimit="10" x1="21.966" y1="107.694" x2="544.916" y2="107.694"/>
	
		<line fill="none" stroke="#000000" stroke-width="0.5765" stroke-miterlimit="10" x1="21.966" y1="16.178" x2="21.966" y2="107.694"/>
	
		<line fill="none" stroke="#000000" stroke-width="0.5765" stroke-miterlimit="10" x1="544.916" y1="16.178" x2="544.916" y2="42.325"/>
	
		<line fill="none" stroke="#000000" stroke-width="0.5765" stroke-miterlimit="10" x1="544.916" y1="81.548" x2="544.916" y2="107.694"/>
	
		<line fill="none" stroke="#000000" stroke-width="0.5765" stroke-miterlimit="10" x1="299.783" y1="81.548" x2="299.783" y2="107.694"/>
	
		<line fill="none" stroke="#000000" stroke-width="0.5765" stroke-miterlimit="10" x1="177.217" y1="81.548" x2="177.217" y2="107.694"/>
	
		<line fill="none" stroke="#000000" stroke-width="0.5765" stroke-miterlimit="10" x1="422.349" y1="81.548" x2="422.349" y2="107.694"/>
	
		<line fill="none" stroke="#000000" stroke-width="0.5765" stroke-miterlimit="10" x1="299.783" y1="16.178" x2="299.783" y2="42.325"/>
	
		<line fill="none" stroke="#000000" stroke-width="0.5765" stroke-miterlimit="10" x1="177.217" y1="16.178" x2="177.217" y2="42.325"/>
	
		<line fill="none" stroke="#000000" stroke-width="0.5765" stroke-miterlimit="10" x1="422.349" y1="16.178" x2="422.349" y2="42.325"/>
</g>
<g>
	<g>
		<path stroke="#000000" stroke-width="0.5765" stroke-miterlimit="10" d="M493.14,99.293c0.521,1.13,2.316,1.41,4.009,0.63
			c1.692-0.781,2.643-2.33,2.121-3.458c-0.52-1.128-2.314-1.411-4.009-0.629C493.571,96.617,492.62,98.165,493.14,99.293z
			 M495.511,96.51c1.694-0.781,3.288-0.808,3.643-0.04c0.355,0.767-0.665,2.042-2.358,2.823c-1.691,0.781-3.243,0.802-3.599,0.035
			C492.843,98.56,493.819,97.291,495.511,96.51z"/>
		
			<line fill="none" stroke="#000000" stroke-width="0.5765" stroke-miterlimit="10" x1="492.999" y1="118.273" x2="492.999" y2="98.663"/>
	</g>
	<g>
		<path stroke="#000000" stroke-width="0.5765" stroke-miterlimit="10" d="M493.14,86.27c0.521,1.13,2.316,1.41,4.009,0.63
			c1.692-0.781,2.643-2.33,2.121-3.458c-0.52-1.128-2.314-1.411-4.009-0.629C493.571,83.594,492.62,85.142,493.14,86.27z
			 M495.511,83.486c1.694-0.781,3.288-0.807,3.643-0.04c0.355,0.767-0.665,2.042-2.358,2.823c-1.691,0.781-3.243,0.802-3.599,0.035
			C492.843,85.536,493.819,84.268,495.511,83.486z"/>
		
			<line fill="none" stroke="#000000" stroke-width="0.5765" stroke-miterlimit="10" x1="492.999" y1="105.25" x2="492.999" y2="85.64"/>
	</g>
	<g>
		
			<ellipse transform="matrix(0.908 -0.419 0.419 0.908 -35.1747 35.6369)" stroke="#000000" stroke-width="0.5765" stroke-miterlimit="10" cx="63.542" cy="97.895" rx="3.376" ry="2.25"/>
		
			<line fill="none" stroke="#000000" stroke-width="0.5765" stroke-miterlimit="10" x1="66.749" y1="77.501" x2="66.749" y2="97.111"/>
	</g>
	<g>
		
			<ellipse transform="matrix(-0.908 0.4189 -0.4189 -0.908 876.0197 3.4165)" stroke="#000000" stroke-width="0.5765" stroke-miterlimit="10" cx="437.635" cy="97.879" rx="3.375" ry="2.251"/>
		
			<line fill="none" stroke="#000000" stroke-width="0.5765" stroke-miterlimit="10" x1="434.428" y1="118.273" x2="434.428" y2="98.663"/>
	</g>
	<g>
		
			<ellipse transform="matrix(-0.908 0.4189 -0.4189 -0.908 931.6559 -8.7991)" stroke="#000000" stroke-width="0.5765" stroke-miterlimit="10" cx="466.794" cy="97.879" rx="3.375" ry="2.251"/>
		
			<line fill="none" stroke="#000000" stroke-width="0.5765" stroke-miterlimit="10" x1="463.587" y1="118.273" x2="463.587" y2="98.663"/>
	</g>
	<g>
		
			<ellipse transform="matrix(-0.908 0.4189 -0.4189 -0.908 212.6337 123.0245)" stroke="#000000" stroke-width="0.5765" stroke-miterlimit="10" cx="92.811" cy="84.855" rx="3.375" ry="2.251"/>
		
			<line fill="none" stroke="#000000" stroke-width="0.5765" stroke-miterlimit="10" x1="89.604" y1="105.25" x2="89.604" y2="85.64"/>
	</g>
	<g>
		
			<ellipse transform="matrix(-0.908 0.419 -0.419 -0.908 271.3009 123.5851)" stroke="#000000" stroke-width="0.5765" stroke-miterlimit="10" cx="122.08" cy="91.583" rx="3.376" ry="2.251"/>
		
			<line fill="none" stroke="#000000" stroke-width="0.5765" stroke-miterlimit="10" x1="118.873" y1="111.978" x2="118.873" y2="92.367"/>
	</g>
	<g>
		
			<ellipse transform="matrix(-0.908 0.4189 -0.4189 -0.908 324.3254 98.5012)" stroke="#000000" stroke-width="0.5765" stroke-miterlimit="10" cx="151.349" cy="84.855" rx="3.375" ry="2.251"/>
		
			<line fill="none" stroke="#000000" stroke-width="0.5765" stroke-miterlimit="10" x1="148.142" y1="105.25" x2="148.142" y2="85.64"/>
	</g>
	<g>
		
			<ellipse transform="matrix(0.908 -0.419 0.419 0.908 -12.1853 140.3093)" stroke="#000000" stroke-width="0.5765" stroke-miterlimit="10" cx="313.327" cy="97.895" rx="3.376" ry="2.25"/>
		
			<line fill="none" stroke="#000000" stroke-width="0.5765" stroke-miterlimit="10" x1="316.536" y1="77.501" x2="316.536" y2="97.111"/>
	</g>
	<g>
		
			<ellipse transform="matrix(-0.908 0.4189 -0.4189 -0.908 689.2294 18.3819)" stroke="#000000" stroke-width="0.5765" stroke-miterlimit="10" cx="342.597" cy="84.855" rx="3.375" ry="2.251"/>
		
			<line fill="none" stroke="#000000" stroke-width="0.5765" stroke-miterlimit="10" x1="339.39" y1="105.25" x2="339.39" y2="85.64"/>
	</g>
	<g>
		
			<ellipse transform="matrix(-0.908 0.4189 -0.4189 -0.908 747.7792 18.4308)" stroke="#000000" stroke-width="0.5765" stroke-miterlimit="10" cx="371.866" cy="91.308" rx="3.375" ry="2.251"/>
		
			<line fill="none" stroke="#000000" stroke-width="0.5765" stroke-miterlimit="10" x1="368.66" y1="111.702" x2="368.66" y2="92.092"/>
	</g>
	<g>
		
			<ellipse transform="matrix(-0.908 0.4189 -0.4189 -0.908 800.923 -6.1419)" stroke="#000000" stroke-width="0.5765" stroke-miterlimit="10" cx="401.136" cy="84.855" rx="3.375" ry="2.251"/>
		
			<line fill="none" stroke="#000000" stroke-width="0.5765" stroke-miterlimit="10" x1="397.928" y1="105.25" x2="397.928" y2="85.64"/>
	</g>
	<g>
		
			<ellipse transform="matrix(0.908 -0.419 0.419 0.908 -24.8046 90.4521)" stroke="#000000" stroke-width="0.5765" stroke-miterlimit="10" cx="193.531" cy="101.699" rx="3.376" ry="2.251"/>
		
			<line fill="none" stroke="#000000" stroke-width="0.5765" stroke-miterlimit="10" x1="196.738" y1="81.305" x2="196.738" y2="100.915"/>
	</g>
	<g>
		
			<ellipse transform="matrix(-0.908 0.4189 -0.4189 -0.908 458.5007 69.0413)" stroke="#000000" stroke-width="0.5765" stroke-miterlimit="10" cx="221.671" cy="84.855" rx="3.375" ry="2.251"/>
		
			<line fill="none" stroke="#000000" stroke-width="0.5765" stroke-miterlimit="10" x1="218.463" y1="105.25" x2="218.463" y2="85.64"/>
	</g>
	<g>
		
			<ellipse transform="matrix(-0.908 0.4189 -0.4189 -0.908 516.3947 76.3866)" stroke="#000000" stroke-width="0.5765" stroke-miterlimit="10" cx="249.812" cy="94.884" rx="3.375" ry="2.251"/>
		
			<line fill="none" stroke="#000000" stroke-width="0.5765" stroke-miterlimit="10" x1="246.604" y1="115.278" x2="246.604" y2="95.668"/>
	</g>
	<g>
		
			<ellipse transform="matrix(-0.908 0.4189 -0.4189 -0.908 565.8845 45.4638)" stroke="#000000" stroke-width="0.5765" stroke-miterlimit="10" cx="277.951" cy="84.855" rx="3.375" ry="2.251"/>
		
			<line fill="none" stroke="#000000" stroke-width="0.5765" stroke-miterlimit="10" x1="274.745" y1="105.25" x2="274.745" y2="85.64"/>
	</g>
</g>
<g>
	<g>
		<path stroke="#000000" stroke-width="0.5765" stroke-miterlimit="10" d="M499.271,34.62c-0.521-1.129-2.315-1.41-4.008-0.629
			c-1.692,0.781-2.644,2.33-2.122,3.458c0.521,1.128,2.315,1.411,4.009,0.629C498.841,37.297,499.792,35.749,499.271,34.62z
			 M496.9,37.404c-1.693,0.781-3.288,0.807-3.643,0.041c-0.354-0.767,0.665-2.043,2.359-2.824c1.69-0.78,3.242-0.802,3.599-0.035
			C499.569,35.354,498.592,36.622,496.9,37.404z"/>
		
			<line fill="none" stroke="#000000" stroke-width="0.5765" stroke-miterlimit="10" x1="499.414" y1="15.64" x2="499.414" y2="35.251"/>
	</g>
	<g>
		<path stroke="#000000" stroke-width="0.5765" stroke-miterlimit="10" d="M124.779,41.579c-0.521-1.129-2.315-1.41-4.008-0.63
			c-1.692,0.782-2.643,2.33-2.122,3.458c0.521,1.128,2.315,1.411,4.009,0.629C124.351,44.255,125.3,42.707,124.779,41.579z
			 M122.409,44.362c-1.693,0.781-3.288,0.808-3.643,0.041c-0.355-0.767,0.666-2.042,2.358-2.824
			c1.692-0.781,3.244-0.802,3.599-0.035C125.077,42.313,124.101,43.581,122.409,44.362z"/>
		
			<line fill="none" stroke="#000000" stroke-width="0.5765" stroke-miterlimit="10" x1="124.922" y1="22.599" x2="124.922" y2="42.209"/>
	</g>
	<g>
		
			<ellipse transform="matrix(0.908 -0.419 0.419 0.908 12.4113 146.939)" stroke="#000000" stroke-width="0.5765" stroke-miterlimit="10" cx="340.771" cy="45.21" rx="3.376" ry="2.251"/>
		
			<line fill="none" stroke="#000000" stroke-width="0.5765" stroke-miterlimit="10" x1="343.978" y1="24.816" x2="343.978" y2="44.427"/>
	</g>
	<g>
		
			<ellipse transform="matrix(0.908 -0.4189 0.4189 0.908 15.9139 158.4664)" stroke="#000000" stroke-width="0.5765" stroke-miterlimit="10" cx="368.825" cy="42.993" rx="3.375" ry="2.251"/>
		
			<line fill="none" stroke="#000000" stroke-width="0.5765" stroke-miterlimit="10" x1="372.033" y1="22.599" x2="372.033" y2="42.209"/>
	</g>
	<g>
		
			<ellipse transform="matrix(0.908 -0.419 0.419 0.908 20.0081 169.9132)" stroke="#000000" stroke-width="0.5765" stroke-miterlimit="10" cx="396.879" cy="39.4" rx="3.376" ry="2.25"/>
		
			<line fill="none" stroke="#000000" stroke-width="0.5765" stroke-miterlimit="10" x1="400.087" y1="19.006" x2="400.087" y2="38.616"/>
	</g>
	<g>
		
			<ellipse transform="matrix(0.908 -0.419 0.419 0.908 8.5802 135.4588)" stroke="#000000" stroke-width="0.5765" stroke-miterlimit="10" cx="312.716" cy="48.193" rx="3.376" ry="2.25"/>
		
			<line fill="none" stroke="#000000" stroke-width="0.5765" stroke-miterlimit="10" x1="315.924" y1="27.799" x2="315.924" y2="47.409"/>
	</g>
	<g>
		
			<ellipse transform="matrix(0.908 -0.419 0.419 0.908 25.1682 186.6798)" stroke="#000000" stroke-width="0.5765" stroke-miterlimit="10" cx="437.635" cy="36.034" rx="3.376" ry="2.25"/>
		
			<line fill="none" stroke="#000000" stroke-width="0.5765" stroke-miterlimit="10" x1="440.843" y1="15.64" x2="440.843" y2="35.251"/>
	</g>
	<g>
		
			<ellipse transform="matrix(0.908 -0.419 0.419 0.908 27.8511 198.8972)" stroke="#000000" stroke-width="0.5765" stroke-miterlimit="10" cx="466.794" cy="36.034" rx="3.376" ry="2.251"/>
		
			<line fill="none" stroke="#000000" stroke-width="0.5765" stroke-miterlimit="10" x1="470.002" y1="15.64" x2="470.002" y2="35.251"/>
	</g>
	<g>
		
			<ellipse transform="matrix(0.908 -0.4189 0.4189 0.908 -9.4742 42.8359)" stroke="#000000" stroke-width="0.5765" stroke-miterlimit="10" cx="92.811" cy="42.993" rx="3.375" ry="2.251"/>
		
			<line fill="none" stroke="#000000" stroke-width="0.5765" stroke-miterlimit="10" x1="96.019" y1="22.599" x2="96.019" y2="42.209"/>
	</g>
	<g>
		
			<ellipse transform="matrix(0.908 -0.419 0.419 0.908 -9.0898 29.9032)" stroke="#000000" stroke-width="0.5765" stroke-miterlimit="10" cx="63.542" cy="35.648" rx="3.376" ry="2.251"/>
		
			<line fill="none" stroke="#000000" stroke-width="0.5765" stroke-miterlimit="10" x1="66.749" y1="15.254" x2="66.749" y2="34.864"/>
	</g>
	<g>
		<path stroke="#000000" stroke-width="0.5765" stroke-miterlimit="10" d="M253.66,44.178c-0.521-1.129-2.315-1.41-4.008-0.629
			c-1.692,0.781-2.643,2.33-2.122,3.458c0.521,1.128,2.315,1.411,4.009,0.629C253.231,46.854,254.18,45.306,253.66,44.178z
			 M251.289,46.961c-1.692,0.782-3.287,0.808-3.643,0.041c-0.354-0.767,0.666-2.043,2.358-2.824c1.692-0.78,3.244-0.802,3.599-0.035
			C253.958,44.912,252.981,46.18,251.289,46.961z"/>
		
			<line fill="none" stroke="#000000" stroke-width="0.5765" stroke-miterlimit="10" x1="253.802" y1="25.198" x2="253.802" y2="44.808"/>
	</g>
	<g>
		
			<ellipse transform="matrix(0.908 -0.419 0.419 0.908 1.3144 97.068)" stroke="#000000" stroke-width="0.5765" stroke-miterlimit="10" cx="221.671" cy="45.541" rx="3.376" ry="2.251"/>
		
			<line fill="none" stroke="#000000" stroke-width="0.5765" stroke-miterlimit="10" x1="224.878" y1="25.147" x2="224.878" y2="44.758"/>
	</g>
	<g>
		
			<ellipse transform="matrix(0.908 -0.419 0.419 0.908 1.2969 84.7066)" stroke="#000000" stroke-width="0.5765" stroke-miterlimit="10" cx="193.531" cy="39.4" rx="3.376" ry="2.251"/>
		
			<line fill="none" stroke="#000000" stroke-width="0.5765" stroke-miterlimit="10" x1="196.738" y1="19.006" x2="196.738" y2="38.616"/>
	</g>
</g>
<path fill-rule="evenodd" clip-rule="evenodd" d="M40.205,41.641c0.491-0.222,0.944-0.506,1.34-0.87
	c1.633-1.497,2.442-3.369,2.479-5.57c0.019-1.209-0.315-2.318-1.104-3.266c-0.912-1.093-1.987-1.943-3.402-2.288
	c-0.629-0.153-1.267-0.172-1.905-0.078c-0.119,0.017-0.161-0.025-0.18-0.127c-0.035-0.177-0.071-0.353-0.109-0.528
	c-0.153-0.706-0.307-1.412-0.461-2.119c-0.107-0.493-0.212-0.987-0.325-1.479c-0.021-0.09,0.002-0.149,0.055-0.216
	c0.499-0.644,1.015-1.277,1.487-1.939c1.058-1.486,1.898-3.083,2.42-4.841c0.315-1.063,0.512-2.145,0.546-3.254
	c0.043-1.416-0.133-2.794-0.703-4.104c-0.248-0.567-0.572-1.086-1.033-1.509c-0.345-0.315-0.741-0.531-1.213-0.574
	c-0.466-0.043-0.882,0.109-1.26,0.372c-0.522,0.362-0.902,0.854-1.226,1.392c-0.42,0.696-0.733,1.441-0.992,2.211
	c-0.232,0.688-0.383,1.394-0.46,2.115c-0.135,1.26-0.055,2.517,0.154,3.761c0.186,1.104,0.428,2.198,0.651,3.295
	c0.024,0.112,0.002,0.185-0.083,0.261c-0.464,0.421-0.928,0.844-1.382,1.277c-1.149,1.088-2.233,2.235-3.148,3.532
	c-1.083,1.536-1.86,3.2-2.149,5.075c-0.211,1.36-0.116,2.692,0.328,3.995c0.343,1.008,0.867,1.917,1.554,2.729
	c1.055,1.249,2.351,2.161,3.876,2.744c0.8,0.307,1.629,0.502,2.485,0.567c0.876,0.067,1.747,0.022,2.604-0.188
	c0.082-0.021,0.148-0.022,0.17,0.083c0.074,0.365,0.15,0.729,0.226,1.093c0.128,0.604,0.261,1.208,0.385,1.814
	c0.081,0.397,0.169,0.794,0.222,1.195c0.09,0.691,0.077,1.385-0.047,2.074c-0.126,0.695-0.359,1.347-0.779,1.921
	c-0.316,0.431-0.693,0.799-1.205,0.987c-0.835,0.308-1.7,0.384-2.581,0.271c-0.346-0.044-0.679-0.142-0.98-0.329
	c-0.161-0.101-0.312-0.216-0.422-0.394c0.035-0.013,0.046-0.021,0.057-0.022c0.034,0,0.068,0.002,0.1,0.003
	c0.422,0.021,0.827-0.055,1.205-0.241c1.255-0.616,1.799-2.059,1.27-3.358c-0.48-1.183-1.752-1.824-2.98-1.507
	c-1.112,0.288-1.905,1.306-1.917,2.455c-0.008,0.724,0.208,1.385,0.567,2.001c0.64,1.096,1.551,1.862,2.8,2.153
	c1.092,0.254,2.174,0.15,3.21-0.278c1.235-0.513,2.045-1.436,2.466-2.696c0.356-1.063,0.369-2.153,0.188-3.248
	c-0.081-0.486-0.196-0.966-0.298-1.448c-0.194-0.908-0.387-1.814-0.585-2.721C40.095,41.728,40.114,41.683,40.205,41.641z
	 M35.829,14.664c0.428-0.983,1.056-1.812,2.009-2.348c0.217-0.124,0.465-0.211,0.709-0.268c0.499-0.117,0.79,0.072,0.96,0.561
	c0.24,0.679,0.263,1.378,0.179,2.081c-0.185,1.55-0.781,2.956-1.576,4.281c-0.364,0.606-0.87,1.102-1.373,1.592
	c-0.299,0.291-0.606,0.574-0.913,0.86c-0.023,0.022-0.064,0.041-0.096,0.036c-0.016-0.001-0.034-0.052-0.041-0.081
	c-0.129-0.669-0.276-1.334-0.38-2.007c-0.078-0.499-0.099-1.005-0.146-1.509C35.173,16.75,35.386,15.681,35.829,14.664z
	 M38.789,41.011c-0.592,0.158-1.196,0.239-1.811,0.225c-1.652-0.038-3.126-0.549-4.36-1.672c-0.83-0.755-1.427-1.674-1.829-2.722
	c-0.431-1.124-0.582-2.281-0.387-3.473c0.19-1.168,0.696-2.192,1.491-3.067c1.125-1.236,2.259-2.466,3.388-3.698
	c0.142-0.154,0.28-0.311,0.417-0.47c0.023-0.028,0.03-0.071,0.044-0.107c0.023,0.015,0.047,0.029,0.072,0.042
	c0.047,0.22,0.094,0.439,0.141,0.658c0.153,0.721,0.305,1.439,0.458,2.159c0.057,0.266,0.108,0.533,0.17,0.796
	c0.024,0.108-0.021,0.156-0.11,0.189c-0.638,0.236-1.208,0.586-1.725,1.027c-0.797,0.68-1.403,1.5-1.76,2.488
	c-0.305,0.852-0.383,1.72-0.14,2.601c0.246,0.89,0.767,1.595,1.475,2.172c0.608,0.497,1.297,0.85,2.028,1.127
	c0.06,0.021,0.116,0.049,0.177,0.065c0.035,0.009,0.075,0.001,0.113,0.001c-0.019-0.033-0.031-0.072-0.06-0.096
	c-0.242-0.205-0.492-0.401-0.73-0.61c-0.157-0.137-0.301-0.291-0.447-0.439c-0.429-0.439-0.601-0.979-0.637-1.579
	c-0.032-0.524-0.043-1.045,0.072-1.561c0.268-1.2,0.955-2.029,2.146-2.409c0.031-0.01,0.063-0.023,0.094-0.034
	c0.08-0.029,0.123-0.006,0.142,0.081c0.084,0.41,0.176,0.818,0.262,1.227c0.127,0.6,0.252,1.203,0.378,1.803
	c0.108,0.511,0.217,1.022,0.325,1.534c0.152,0.715,0.305,1.43,0.458,2.145c0.099,0.469,0.196,0.94,0.3,1.41
	C38.978,40.971,38.882,40.988,38.789,41.011z M39.985,40.522c-0.111,0.064-0.137,0.057-0.167-0.076
	c-0.082-0.367-0.16-0.735-0.239-1.103c-0.129-0.596-0.259-1.192-0.387-1.788c-0.128-0.591-0.256-1.184-0.384-1.776
	c-0.152-0.701-0.305-1.403-0.457-2.105c-0.077-0.351-0.154-0.702-0.231-1.052c-0.018-0.085,0.008-0.128,0.103-0.122
	c1.412,0.089,2.557,0.669,3.349,1.862c0.422,0.638,0.595,1.356,0.588,2.042c-0.003,0.814-0.186,1.515-0.454,2.196
	C41.37,39.454,40.771,40.072,39.985,40.522z"/>
<g>
	<path fill-rule="evenodd" clip-rule="evenodd" d="M43.991,89.527c-0.004,0.924-0.126,1.832-0.352,2.729
		c-0.661,2.634-1.945,4.935-3.736,6.959c-1.262,1.429-2.714,2.64-4.307,3.681c-0.81,0.529-1.648,1.008-2.516,1.434
		c-0.754,0.369-1.521,0.712-2.321,0.97c-0.151,0.049-0.309,0.092-0.466,0.1c-0.132,0.008-0.27-0.022-0.38-0.108
		c-0.109-0.092-0.131-0.228-0.057-0.369c0.077-0.143,0.197-0.245,0.342-0.311c0.586-0.27,1.102-0.644,1.61-1.033
		c0.762-0.582,1.476-1.219,2.167-1.884c1.033-0.997,2.008-2.051,2.922-3.155c0.578-0.701,1.042-1.474,1.443-2.287
		c0.541-1.095,0.949-2.236,1.242-3.424c0.266-1.071,0.43-2.157,0.469-3.263c0.031-0.85-0.016-1.696-0.177-2.533
		c-0.197-1.012-0.538-1.971-1.172-2.8c-0.572-0.748-1.287-1.315-2.171-1.657c-0.574-0.219-1.172-0.296-1.783-0.247
		c-0.967,0.076-1.832,0.43-2.636,0.953c-0.498,0.324-0.954,0.699-1.331,1.165c-0.309,0.378-0.487,0.814-0.561,1.295
		c-0.021,0.13-0.017,0.265,0.04,0.39c0.056,0.127,0.16,0.195,0.298,0.196c0.167,0.005,0.326-0.039,0.463-0.141
		c0.337-0.252,0.715-0.347,1.128-0.309c0.499,0.048,0.933,0.269,1.352,0.521c0.379,0.23,0.704,0.52,0.933,0.906
		c0.28,0.476,0.333,0.979,0.182,1.505c-0.199,0.692-0.639,1.211-1.212,1.623c-0.563,0.405-1.191,0.642-1.891,0.651
		c-0.685,0.008-1.284-0.222-1.788-0.688c-0.5-0.462-0.897-0.997-1.141-1.638c-0.247-0.647-0.304-1.313-0.177-1.99
		c0.188-1.015,0.692-1.867,1.371-2.621c0.804-0.893,1.772-1.553,2.867-2.038c0.801-0.354,1.636-0.585,2.506-0.687
		c0.935-0.11,1.863-0.059,2.782,0.152c1.463,0.338,2.734,1.028,3.793,2.095c0.879,0.883,1.492,1.929,1.866,3.115
		C43.871,87.678,43.994,88.593,43.991,89.527z"/>
	<path fill-rule="evenodd" clip-rule="evenodd" d="M49.5,85.264c0.003,0.799-0.646,1.449-1.449,1.452
		c-0.798,0.002-1.452-0.648-1.453-1.449c-0.001-0.796,0.643-1.444,1.442-1.45C48.847,83.812,49.496,84.455,49.5,85.264z"/>
	<path fill-rule="evenodd" clip-rule="evenodd" d="M49.5,91.274c0,0.807-0.647,1.451-1.449,1.45c-0.803,0-1.453-0.647-1.453-1.446
		c0-0.804,0.648-1.449,1.451-1.449C48.853,89.829,49.5,90.473,49.5,91.274z"/>
</g>
<line fill="none" stroke="#000000" stroke-width="0.5765" stroke-miterlimit="10" x1="307.083" y1="47.861" x2="319.343" y2="47.861"/>
<g>
</g>
<g>
</g>
<g>
</g>
<g>
</g>
<g>
</g>
<g>
</g>
</svg>
